<?xml version="1.0" encoding="UTF-8" standalone="no"?>
<svg
   xmlns:dc="http://purl.org/dc/elements/1.1/"
   xmlns:cc="http://creativecommons.org/ns#"
   xmlns:rdf="http://www.w3.org/1999/02/22-rdf-syntax-ns#"
   xmlns:svg="http://www.w3.org/2000/svg"
   xmlns="http://www.w3.org/2000/svg"
   xmlns:sodipodi="http://sodipodi.sourceforge.net/DTD/sodipodi-0.dtd"
   xmlns:inkscape="http://www.inkscape.org/namespaces/inkscape"
   width="66.234596mm"
   height="79.478302mm"
   viewBox="0 0 66.234596 79.478302"
   version="1.1"
   id="svg28302"
   inkscape:version="1.0.1 (1.0.1+r74)"
   sodipodi:docname="seguridad_principal.svg">
  <defs
     id="defs28296">
    <clipPath
       clipPathUnits="userSpaceOnUse"
       id="clipPath24908">
      <path
         d="m 1360.083,1626.013 c -9.69,-9.121 -17.658,-13.367 -17.711,-13.398 v 0 c 0,0 -0.01,0 -0.013,10e-4 v 0 c -0.817,-1.071 -2.577,-3.187 -5.646,-6.058 v 0 c 0.01,0 0.019,-10e-4 0.024,0 v 0 c 0.037,0.024 8.966,3.844 19.706,13.334 v 0 c 11.365,10.05 26.891,27.357 33.63,53.205 v 0 c -5.848,-21.112 -19.643,-37.339 -29.99,-47.082"
         id="path24906" />
    </clipPath>
    <linearGradient
       x1="0"
       y1="0"
       x2="1"
       y2="0"
       gradientUnits="userSpaceOnUse"
       gradientTransform="matrix(53.359936,0,0,-53.359936,1336.7128,1639.8257)"
       spreadMethod="pad"
       id="linearGradient24930">
      <stop
         style="stop-opacity:1;stop-color:#000000"
         offset="0"
         id="stop24914" />
      <stop
         style="stop-opacity:1;stop-color:#000000"
         offset="0.245399"
         id="stop24916" />
      <stop
         style="stop-opacity:1;stop-color:#000000"
         offset="0.435583"
         id="stop24918" />
      <stop
         style="stop-opacity:1;stop-color:#000000"
         offset="0.54100672"
         id="stop24920" />
      <stop
         style="stop-opacity:1;stop-color:#353535"
         offset="0.711656"
         id="stop24922" />
      <stop
         style="stop-opacity:1;stop-color:#353535"
         offset="0.86137189"
         id="stop24924" />
      <stop
         style="stop-opacity:1;stop-color:#ffffff"
         offset="0.993865"
         id="stop24926" />
      <stop
         style="stop-opacity:1;stop-color:#ffffff"
         offset="1"
         id="stop24928" />
    </linearGradient>
    <clipPath
       clipPathUnits="userSpaceOnUse"
       id="clipPath24940">
      <path
         d="m 1375.119,1644.588 c -13.114,-16.936 -31.16,-28.021 -31.807,-28.415 v 0 -10e-4 c -0.096,-0.587 -0.347,-1.844 -0.94,-3.557 v 0 c 0.053,0.031 8.021,4.277 17.711,13.398 v 0 c 10.347,9.743 24.142,25.97 29.99,47.082 v 0 l 0.01,0.031 c -2.815,-9.619 -7.512,-18.893 -14.961,-28.538"
         id="path24938" />
    </clipPath>
    <linearGradient
       x1="0"
       y1="0"
       x2="1"
       y2="0"
       gradientUnits="userSpaceOnUse"
       gradientTransform="matrix(-22.583549,-79.356384,-79.356384,22.583549,1379.0245,1687.9646)"
       spreadMethod="pad"
       id="linearGradient24960">
      <stop
         style="stop-opacity:1;stop-color:#ffffff"
         offset="0"
         id="stop24946" />
      <stop
         style="stop-opacity:1;stop-color:#b3b4b6"
         offset="0.288344"
         id="stop24948" />
      <stop
         style="stop-opacity:1;stop-color:#959698"
         offset="0.32408915"
         id="stop24950" />
      <stop
         style="stop-opacity:1;stop-color:#959698"
         offset="0.466258"
         id="stop24952" />
      <stop
         style="stop-opacity:1;stop-color:#6e6f71"
         offset="0.6007486"
         id="stop24954" />
      <stop
         style="stop-opacity:1;stop-color:#6e6f71"
         offset="0.631902"
         id="stop24956" />
      <stop
         style="stop-opacity:1;stop-color:#ffffff"
         offset="1"
         id="stop24958" />
    </linearGradient>
    <clipPath
       clipPathUnits="userSpaceOnUse"
       id="clipPath24970">
      <path
         d="M 0,2106.092 H 3257.321 V 0 H 0 Z"
         id="path24968" />
    </clipPath>
    <clipPath
       clipPathUnits="userSpaceOnUse"
       id="clipPath24982">
      <path
         d="m 1236.864,1785.85 c 0,0 13.202,-59.948 15.855,-71.982 v 0 c 3.952,-17.902 11.745,-32.128 21.107,-43.33 v 0 c 9.362,-11.204 21.693,-20.914 32.334,-27.402 v 0 c 18.63,-11.323 34.09,-13.39 34.09,-13.39 v 0 c 0.035,0.024 13.037,7.589 25.018,23.663 v 0 c 12.287,16.522 21.012,38.323 13.782,68.627 v 0 c -2.437,10.193 -14.595,61.056 -14.595,61.056 v 0 c -18.39,4.541 -29.246,7.113 -60.176,8.048 v 0 c -5.553,0.168 -10.517,0.249 -15.029,0.249 v 0 c -22.788,0 -34.121,-2.067 -52.386,-5.539 m 27.52,-89.697 c -9.873,19.183 -23.666,74.279 -27.517,89.697 v 0 c 8.485,1.16 54.531,5.532 83.563,0.746 v 0 c 22.235,-27.489 40.819,-75.359 19.828,-156.844 v 0 c -46.692,18.256 -68.528,54.202 -75.874,66.401"
         id="path24980" />
    </clipPath>
    <linearGradient
       x1="0"
       y1="0"
       x2="1"
       y2="0"
       gradientUnits="userSpaceOnUse"
       gradientTransform="matrix(-13.426784,96.473427,96.473427,13.426784,1314.1989,1710.7952)"
       spreadMethod="pad"
       id="linearGradient25002">
      <stop
         style="stop-opacity:1;stop-color:#5f82d5"
         offset="0"
         id="stop24988" />
      <stop
         style="stop-opacity:1;stop-color:#5f82d5"
         offset="0.01227"
         id="stop24990" />
      <stop
         style="stop-opacity:1;stop-color:#285dc0"
         offset="0.374233"
         id="stop24992" />
      <stop
         style="stop-opacity:1;stop-color:#000083"
         offset="0.68813997"
         id="stop24994" />
      <stop
         style="stop-opacity:1;stop-color:#000083"
         offset="0.705521"
         id="stop24996" />
      <stop
         style="stop-opacity:1;stop-color:#000083"
         offset="0.90750116"
         id="stop24998" />
      <stop
         style="stop-opacity:1;stop-color:#000083"
         offset="1"
         id="stop25000" />
    </linearGradient>
    <clipPath
       clipPathUnits="userSpaceOnUse"
       id="clipPath25012">
      <path
         d="m 1236.867,1785.85 c 3.851,-15.418 17.644,-70.514 27.517,-89.697 v 0 c 7.346,-12.199 29.182,-48.145 75.874,-66.401 v 0 c 20.991,81.485 2.407,129.355 -19.828,156.844 v 0 c -9.836,1.622 -21.629,2.192 -33.249,2.192 v 0 c -22.676,10e-4 -44.703,-2.171 -50.314,-2.938"
         id="path25010" />
    </clipPath>
    <linearGradient
       x1="0"
       y1="0"
       x2="1"
       y2="0"
       gradientUnits="userSpaceOnUse"
       gradientTransform="matrix(92.435516,50.326138,50.326138,-92.435516,1269.0181,1697.1602)"
       spreadMethod="pad"
       id="linearGradient25034">
      <stop
         style="stop-opacity:1;stop-color:#5f82d5"
         offset="0"
         id="stop25018" />
      <stop
         style="stop-opacity:1;stop-color:#5f82d5"
         offset="0.03357132"
         id="stop25020" />
      <stop
         style="stop-opacity:1;stop-color:#5f82d5"
         offset="0.220859"
         id="stop25022" />
      <stop
         style="stop-opacity:1;stop-color:#5f82d5"
         offset="0.29827177"
         id="stop25024" />
      <stop
         style="stop-opacity:1;stop-color:#285dc0"
         offset="0.447853"
         id="stop25026" />
      <stop
         style="stop-opacity:1;stop-color:#000da9"
         offset="0.705521"
         id="stop25028" />
      <stop
         style="stop-opacity:1;stop-color:#000da9"
         offset="0.820352"
         id="stop25030" />
      <stop
         style="stop-opacity:1;stop-color:#0000be"
         offset="1"
         id="stop25032" />
    </linearGradient>
    <clipPath
       clipPathUnits="userSpaceOnUse"
       id="clipPath25044">
      <path
         d="m 1276.731,1717.197 c -5.293,-5.498 -10.005,-11.29 -14.137,-17.276 v 0 c 0.608,-1.37 1.206,-2.634 1.79,-3.768 v 0 c 7.346,-12.199 29.182,-48.145 75.874,-66.401 v 0 c 14.283,55.443 10.241,95.318 -0.803,123.805 v 0 c -21.94,-4.847 -44.252,-17.173 -62.724,-36.36"
         id="path25042" />
    </clipPath>
    <linearGradient
       x1="0"
       y1="0"
       x2="1"
       y2="0"
       gradientUnits="userSpaceOnUse"
       gradientTransform="matrix(182.52611,56.970093,56.970093,-182.52611,1262.2788,1667.6443)"
       spreadMethod="pad"
       id="linearGradient25070">
      <stop
         style="stop-opacity:1;stop-color:#5f82d5"
         offset="0"
         id="stop25050" />
      <stop
         style="stop-opacity:1;stop-color:#285dc0"
         offset="0.171779"
         id="stop25052" />
      <stop
         style="stop-opacity:1;stop-color:#0f00a3"
         offset="0.36856479"
         id="stop25054" />
      <stop
         style="stop-opacity:1;stop-color:#0f00a3"
         offset="0.380368"
         id="stop25056" />
      <stop
         style="stop-opacity:1;stop-color:#000083"
         offset="0.533742"
         id="stop25058" />
      <stop
         style="stop-opacity:1;stop-color:#285dc0"
         offset="0.63869616"
         id="stop25060" />
      <stop
         style="stop-opacity:1;stop-color:#285dc0"
         offset="0.668712"
         id="stop25062" />
      <stop
         style="stop-opacity:1;stop-color:#000083"
         offset="0.75896626"
         id="stop25064" />
      <stop
         style="stop-opacity:1;stop-color:#000083"
         offset="0.815951"
         id="stop25066" />
      <stop
         style="stop-opacity:1;stop-color:#000083"
         offset="1"
         id="stop25068" />
    </linearGradient>
    <clipPath
       clipPathUnits="userSpaceOnUse"
       id="clipPath25080">
      <path
         d="m 1339.455,1753.557 c 11.044,-28.487 15.086,-68.362 0.803,-123.805 v 0 l -0.01,-0.01 c 0.035,0.024 13.037,7.589 25.018,23.663 v 0 c 12.287,16.522 21.012,38.323 13.782,68.627 v 0 c -1.184,4.952 -4.664,19.507 -7.928,33.164 v 0 c -3.556,0.463 -7.187,0.694 -10.868,0.694 v 0 c -6.803,0 -13.782,-0.786 -20.799,-2.337"
         id="path25078" />
    </clipPath>
    <linearGradient
       x1="0"
       y1="0"
       x2="1"
       y2="0"
       gradientUnits="userSpaceOnUse"
       gradientTransform="matrix(123.25781,235.92888,235.92888,-123.25781,1290.9357,1584.6172)"
       spreadMethod="pad"
       id="linearGradient25100">
      <stop
         style="stop-opacity:1;stop-color:#000083"
         offset="0"
         id="stop25086" />
      <stop
         style="stop-opacity:1;stop-color:#5f82d5"
         offset="0.140826"
         id="stop25088" />
      <stop
         style="stop-opacity:1;stop-color:#5f82d5"
         offset="0.233129"
         id="stop25090" />
      <stop
         style="stop-opacity:1;stop-color:#285dc0"
         offset="0.490798"
         id="stop25092" />
      <stop
         style="stop-opacity:1;stop-color:#0f00a3"
         offset="0.62687188"
         id="stop25094" />
      <stop
         style="stop-opacity:1;stop-color:#0f00a3"
         offset="0.717791"
         id="stop25096" />
      <stop
         style="stop-opacity:1;stop-color:#000083"
         offset="1"
         id="stop25098" />
    </linearGradient>
    <clipPath
       clipPathUnits="userSpaceOnUse"
       id="clipPath25110">
      <path
         d="m 1230.164,1800.464 c -4.098,-0.695 -8.238,-1.397 -12.419,-2.116 v 0 c 0,0 0,-0.01 0,-0.01 v 0 l 14.279,-9.333 c -10e-4,0 -10e-4,0 0,0.01 v 0 c 1.044,0.196 2.086,0.389 3.124,0.578 v 0 c 21.369,3.957 33.716,6.243 68.326,5.041 v 0 c 31.823,-1.107 43.009,-3.907 60.871,-8.398 v 0 c 0.824,-0.204 1.645,-0.411 2.465,-0.619 v 0 l 6.715,7.19 v 0 c -3.14,0.825 -6.305,1.658 -9.498,2.493 v 0 c -18.434,4.84 -29.988,7.867 -62.881,9.439 v 0 c -8.436,0.4 -15.599,0.585 -21.911,0.585 v 0 c -20.525,0 -32.043,-1.96 -49.071,-4.86"
         id="path25108" />
    </clipPath>
    <linearGradient
       x1="0"
       y1="0"
       x2="1"
       y2="0"
       gradientUnits="userSpaceOnUse"
       gradientTransform="matrix(-151.99301,4.5370798,4.5370798,151.99301,1371.7341,1793.7811)"
       spreadMethod="pad"
       id="linearGradient25134">
      <stop
         style="stop-opacity:1;stop-color:#ffffff"
         offset="0"
         id="stop25116" />
      <stop
         style="stop-opacity:1;stop-color:#b3b4b6"
         offset="0.153374"
         id="stop25118" />
      <stop
         style="stop-opacity:1;stop-color:#b3b4b6"
         offset="0.16449069"
         id="stop25120" />
      <stop
         style="stop-opacity:1;stop-color:#d1d2d3"
         offset="0.319018"
         id="stop25122" />
      <stop
         style="stop-opacity:1;stop-color:#ffffff"
         offset="0.417178"
         id="stop25124" />
      <stop
         style="stop-opacity:1;stop-color:#c9cacb"
         offset="0.576687"
         id="stop25126" />
      <stop
         style="stop-opacity:1;stop-color:#919294"
         offset="0.754601"
         id="stop25128" />
      <stop
         style="stop-opacity:1;stop-color:#797b7d"
         offset="0.822086"
         id="stop25130" />
      <stop
         style="stop-opacity:1;stop-color:#3c3d3e"
         offset="1"
         id="stop25132" />
    </linearGradient>
    <clipPath
       clipPathUnits="userSpaceOnUse"
       id="clipPath25144">
      <path
         d="m 1364.459,1783.08 c 0.118,-0.496 12.166,-50.901 14.591,-61.044 v 0 c 7.23,-30.304 -1.495,-52.105 -13.782,-68.627 v 0 c -11.93,-16.007 -24.863,-23.575 -25.013,-23.658 v 0 c 0.25,-1.178 0.508,-2.349 0.762,-3.518 v 0 c 0,0 0.01,-10e-4 0.01,-10e-4 v 0 c 0,0 14.524,8.609 26.777,24.895 v 0 c 7.832,10.435 12.555,20.392 14.947,30.648 v 0 c 2.931,12.609 2.662,26.169 -0.758,40.451 v 0 c -5.091,21.26 -10.152,42.39 -15.178,63.388 v 0 l -2.354,-2.534 z"
         id="path25142" />
    </clipPath>
    <linearGradient
       x1="0"
       y1="0"
       x2="1"
       y2="0"
       gradientUnits="userSpaceOnUse"
       gradientTransform="matrix(44.512131,0,0,-44.512131,1340.2551,1705.9232)"
       spreadMethod="pad"
       id="linearGradient25160">
      <stop
         style="stop-opacity:1;stop-color:#000000"
         offset="0"
         id="stop25150" />
      <stop
         style="stop-opacity:1;stop-color:#5a5a5a"
         offset="0.208589"
         id="stop25152" />
      <stop
         style="stop-opacity:1;stop-color:#ffffff"
         offset="0.668712"
         id="stop25154" />
      <stop
         style="stop-opacity:1;stop-color:#4f4f4f"
         offset="0.852761"
         id="stop25156" />
      <stop
         style="stop-opacity:1;stop-color:#000000"
         offset="1"
         id="stop25158" />
    </linearGradient>
    <clipPath
       clipPathUnits="userSpaceOnUse"
       id="clipPath25170">
      <path
         d="m 1232.024,1789.013 c 5.483,-24.951 11.001,-50.088 16.565,-75.411 v 0 c 3.745,-17.039 11.313,-32.438 22.352,-45.557 v 0 c 8.697,-10.33 20.812,-20.429 33.716,-28.114 v 0 c 18.932,-11.251 36.036,-13.651 36.36,-13.698 v 0 c -0.254,1.169 -0.512,2.34 -0.762,3.518 v 0 c 0,-10e-4 -0.01,0 -0.01,0 v 0 c 0,0 -15.46,2.067 -34.09,13.39 v 0 c -10.641,6.488 -22.972,16.198 -32.334,27.402 v 0 c -9.362,11.202 -17.155,25.428 -21.107,43.33 v 0 c -2.653,12.034 -15.855,71.982 -15.855,71.982 v 0 0 l -4.838,3.164 c 0,-10e-4 0,-10e-4 -0.01,-10e-4"
         id="path25168" />
    </clipPath>
    <linearGradient
       x1="0"
       y1="0"
       x2="1"
       y2="0"
       gradientUnits="userSpaceOnUse"
       gradientTransform="matrix(108.99329,0,0,-108.99329,1232.0247,1707.6238)"
       spreadMethod="pad"
       id="linearGradient25190">
      <stop
         style="stop-opacity:1;stop-color:#ffffff"
         offset="0"
         id="stop25176" />
      <stop
         style="stop-opacity:1;stop-color:#b3b4b6"
         offset="0.288344"
         id="stop25178" />
      <stop
         style="stop-opacity:1;stop-color:#959698"
         offset="0.32408915"
         id="stop25180" />
      <stop
         style="stop-opacity:1;stop-color:#959698"
         offset="0.466258"
         id="stop25182" />
      <stop
         style="stop-opacity:1;stop-color:#6e6f71"
         offset="0.6007486"
         id="stop25184" />
      <stop
         style="stop-opacity:1;stop-color:#6e6f71"
         offset="0.631902"
         id="stop25186" />
      <stop
         style="stop-opacity:1;stop-color:#000000"
         offset="1"
         id="stop25188" />
    </linearGradient>
    <clipPath
       clipPathUnits="userSpaceOnUse"
       id="clipPath25200">
      <path
         d="m 1235.148,1789.591 c -1.037,-0.189 -2.078,-0.382 -3.119,-0.577 v 0 l 4.838,-3.164 c 21.879,4.16 33.817,6.302 67.412,5.29 v 0 c 30.93,-0.935 41.786,-3.507 60.176,-8.048 v 0 c 0,0 0,-0.01 0,-0.012 v 0 l 2.354,2.534 c 0,0 0,0 0,10e-4 v 0 c -0.82,0.208 -1.642,0.415 -2.466,0.619 v 0 c -17.862,4.491 -29.048,7.291 -60.871,8.398 v 0 c -6.255,0.217 -11.786,0.321 -16.771,0.321 v 0 c -22.6,0 -34.048,-2.12 -51.555,-5.362"
         id="path25198" />
    </clipPath>
    <linearGradient
       x1="0"
       y1="0"
       x2="1"
       y2="0"
       gradientUnits="userSpaceOnUse"
       gradientTransform="matrix(134.78308,0,0,-134.78308,1232.0289,1789.0166)"
       spreadMethod="pad"
       id="linearGradient25220">
      <stop
         style="stop-opacity:1;stop-color:#000000"
         offset="0"
         id="stop25206" />
      <stop
         style="stop-opacity:1;stop-color:#000000"
         offset="0.159509"
         id="stop25208" />
      <stop
         style="stop-opacity:1;stop-color:#5a5a5a"
         offset="0.337423"
         id="stop25210" />
      <stop
         style="stop-opacity:1;stop-color:#909090"
         offset="0.453988"
         id="stop25212" />
      <stop
         style="stop-opacity:1;stop-color:#ffffff"
         offset="0.588957"
         id="stop25214" />
      <stop
         style="stop-opacity:1;stop-color:#4f4f4f"
         offset="0.754601"
         id="stop25216" />
      <stop
         style="stop-opacity:1;stop-color:#000000"
         offset="1"
         id="stop25218" />
    </linearGradient>
    <clipPath
       clipPathUnits="userSpaceOnUse"
       id="clipPath25230">
      <path
         d="m 1372.135,1750.958 c 2.945,-12.314 5.853,-24.48 6.915,-28.922 v 0 c 7.23,-30.304 -1.495,-52.105 -13.782,-68.627 v 0 c -11.9,-15.966 -24.795,-23.535 -25.01,-23.657 v 0 c 0,0 0,-10e-4 0,-10e-4 v 0 c 0.25,-1.178 0.508,-2.349 0.762,-3.518 v 0 c 0,-10e-4 0.01,-10e-4 0.01,-10e-4 v 0 c 0,0 14.524,8.609 26.777,24.895 v 0 c 7.832,10.435 12.555,20.392 14.947,30.648 v 0 c 2.931,12.609 2.662,26.169 -0.758,40.451 v 0 c -2.6,10.855 -5.19,21.676 -7.773,32.463 v 0 c -1.001,0.064 -2.004,0.118 -3.012,0.159 v 0 c 0.309,-1.292 0.62,-2.591 0.929,-3.89"
         id="path25228" />
    </clipPath>
    <linearGradient
       x1="0"
       y1="0"
       x2="1"
       y2="0"
       gradientUnits="userSpaceOnUse"
       gradientTransform="matrix(44.512131,0,0,-44.512131,1340.2551,1690.5408)"
       spreadMethod="pad"
       id="linearGradient25250">
      <stop
         style="stop-opacity:1;stop-color:#000000"
         offset="0"
         id="stop25236" />
      <stop
         style="stop-opacity:1;stop-color:#5a5a5a"
         offset="0.208589"
         id="stop25238" />
      <stop
         style="stop-opacity:1;stop-color:#ffffff"
         offset="0.36268922"
         id="stop25240" />
      <stop
         style="stop-opacity:1;stop-color:#ffffff"
         offset="0.533742"
         id="stop25242" />
      <stop
         style="stop-opacity:1;stop-color:#ffffff"
         offset="0.78866608"
         id="stop25244" />
      <stop
         style="stop-opacity:1;stop-color:#4f4f4f"
         offset="0.852761"
         id="stop25246" />
      <stop
         style="stop-opacity:1;stop-color:#000000"
         offset="1"
         id="stop25248" />
    </linearGradient>
    <clipPath
       clipPathUnits="userSpaceOnUse"
       id="clipPath25260">
      <path
         d="m 1256.313,1690.846 c 3.857,-8.183 8.75,-15.815 14.628,-22.801 v 0 c 8.697,-10.33 20.812,-20.429 33.716,-28.114 v 0 c 18.573,-11.037 35.384,-13.555 36.321,-13.691 v 0 c 0.017,0 0.027,0 0.035,-0.01 v 0 c 0,0 0,-10e-4 0,-10e-4 v 0 c -0.254,1.169 -0.512,2.34 -0.762,3.518 v 0 c 0,-10e-4 -0.01,0 -0.01,0 v 0 c 0,0 -15.46,2.067 -34.09,13.39 v 0 c -10.641,6.488 -22.972,16.198 -32.334,27.402 v 0 c -5.842,6.99 -11.072,15.157 -15.141,24.66 v 0 c -0.822,-1.433 -1.615,-2.882 -2.372,-4.352"
         id="path25258" />
    </clipPath>
    <linearGradient
       x1="0"
       y1="0"
       x2="1"
       y2="0"
       gradientUnits="userSpaceOnUse"
       gradientTransform="matrix(84.499382,-65.217659,-65.217659,-84.499382,1251.03,1690.5682)"
       spreadMethod="pad"
       id="linearGradient25284">
      <stop
         style="stop-opacity:1;stop-color:#ffffff"
         offset="0"
         id="stop25266" />
      <stop
         style="stop-opacity:1;stop-color:#f2f3f3"
         offset="0.159509"
         id="stop25268" />
      <stop
         style="stop-opacity:1;stop-color:#b3b4b6"
         offset="0.349693"
         id="stop25270" />
      <stop
         style="stop-opacity:1;stop-color:#959698"
         offset="0.37311237"
         id="stop25272" />
      <stop
         style="stop-opacity:1;stop-color:#959698"
         offset="0.466258"
         id="stop25274" />
      <stop
         style="stop-opacity:1;stop-color:#6e6f71"
         offset="0.62565441"
         id="stop25276" />
      <stop
         style="stop-opacity:1;stop-color:#6e6f71"
         offset="0.662577"
         id="stop25278" />
      <stop
         style="stop-opacity:1;stop-color:#333234"
         offset="0.901841"
         id="stop25280" />
      <stop
         style="stop-opacity:1;stop-color:#000000"
         offset="1"
         id="stop25282" />
    </linearGradient>
    <clipPath
       clipPathUnits="userSpaceOnUse"
       id="clipPath25294">
      <path
         d="m 1366.81,1785.615 h 10e-4 c 5.028,-20.999 10.089,-42.128 15.18,-63.389 v 0 c 3.42,-14.282 3.689,-27.842 0.758,-40.451 v 0 c -2.392,-10.256 -7.115,-20.213 -14.947,-30.648 v 0 c -12.253,-16.286 -26.777,-24.895 -26.777,-24.895 v 0 c 0,0 0,10e-4 -0.012,0 v 0 c 0.756,-3.377 1.511,-6.734 2.279,-10.073 v 0 c 0,0 18.473,11.179 31.827,28.427 v 0 c 8.753,11.335 13.674,22.104 16.238,33.473 v 0 c 3.157,14.015 2.807,28.995 -0.972,44.707 v 0 c -5.659,23.507 -11.279,46.852 -16.86,70.037 v 0 l -6.715,-7.19 z"
         id="path25292" />
    </clipPath>
    <linearGradient
       x1="0"
       y1="0"
       x2="1"
       y2="0"
       gradientUnits="userSpaceOnUse"
       gradientTransform="matrix(-166.55176,244.82158,244.82158,166.55176,1398.3696,1645.7434)"
       spreadMethod="pad"
       id="linearGradient25324">
      <stop
         style="stop-opacity:1;stop-color:#ffffff"
         offset="0"
         id="stop25300" />
      <stop
         style="stop-opacity:1;stop-color:#f2f2f2"
         offset="0.0366055"
         id="stop25302" />
      <stop
         style="stop-opacity:1;stop-color:#f2f2f2"
         offset="0.055215"
         id="stop25304" />
      <stop
         style="stop-opacity:1;stop-color:#858588"
         offset="0.128834"
         id="stop25306" />
      <stop
         style="stop-opacity:1;stop-color:#6e6f71"
         offset="0.14239258"
         id="stop25308" />
      <stop
         style="stop-opacity:1;stop-color:#6e6f71"
         offset="0.196319"
         id="stop25310" />
      <stop
         style="stop-opacity:1;stop-color:#5c5c5d"
         offset="0.21234278"
         id="stop25312" />
      <stop
         style="stop-opacity:1;stop-color:#5c5c5d"
         offset="0.276074"
         id="stop25314" />
      <stop
         style="stop-opacity:1;stop-color:#414042"
         offset="0.31426742"
         id="stop25316" />
      <stop
         style="stop-opacity:1;stop-color:#414042"
         offset="0.368098"
         id="stop25318" />
      <stop
         style="stop-opacity:1;stop-color:#ffffff"
         offset="0.460123"
         id="stop25320" />
      <stop
         style="stop-opacity:1;stop-color:#ffffff"
         offset="1"
         id="stop25322" />
    </linearGradient>
    <clipPath
       clipPathUnits="userSpaceOnUse"
       id="clipPath25334">
      <path
         d="m 1236.379,1712.813 c 4.199,-19.256 12.826,-36.693 25.456,-51.554 v 0 c 9.888,-11.618 23.662,-22.401 38.322,-30.562 v 0 c 20.971,-11.641 43.135,-14.536 43.135,-14.536 v 0 c -0.768,3.339 -1.523,6.696 -2.279,10.073 v 0 c -0.48,0.066 -17.511,2.494 -36.356,13.697 v 0 c -12.904,7.685 -25.019,17.784 -33.716,28.114 v 0 c -11.039,13.119 -18.607,28.518 -22.352,45.557 v 0 c -5.564,25.32 -11.081,50.455 -16.563,75.404 v 0 l -14.279,9.333 c 6.159,-28.27 12.369,-56.778 18.632,-85.526"
         id="path25332" />
    </clipPath>
    <linearGradient
       x1="0"
       y1="0"
       x2="1"
       y2="0"
       gradientUnits="userSpaceOnUse"
       gradientTransform="matrix(41.353718,-140.99654,-140.99654,-41.353718,1244.9484,1818.1407)"
       spreadMethod="pad"
       id="linearGradient25362">
      <stop
         style="stop-opacity:1;stop-color:#ffffff"
         offset="0"
         id="stop25340" />
      <stop
         style="stop-opacity:1;stop-color:#b3b4b6"
         offset="0.245399"
         id="stop25342" />
      <stop
         style="stop-opacity:1;stop-color:#959698"
         offset="0.27991156"
         id="stop25344" />
      <stop
         style="stop-opacity:1;stop-color:#959698"
         offset="0.417178"
         id="stop25346" />
      <stop
         style="stop-opacity:1;stop-color:#959698"
         offset="0.50183955"
         id="stop25348" />
      <stop
         style="stop-opacity:1;stop-color:#000000"
         offset="0.631902"
         id="stop25350" />
      <stop
         style="stop-opacity:1;stop-color:#3c3c3d"
         offset="0.736196"
         id="stop25352" />
      <stop
         style="stop-opacity:1;stop-color:#494949"
         offset="0.809816"
         id="stop25354" />
      <stop
         style="stop-opacity:1;stop-color:#494949"
         offset="0.88467368"
         id="stop25356" />
      <stop
         style="stop-opacity:1;stop-color:#ffffff"
         offset="0.95092"
         id="stop25358" />
      <stop
         style="stop-opacity:1;stop-color:#ffffff"
         offset="1"
         id="stop25360" />
    </linearGradient>
    <clipPath
       clipPathUnits="userSpaceOnUse"
       id="clipPath25372">
      <path
         d="m 1250.427,1677.169 c 3.336,-5.576 7.143,-10.891 11.408,-15.91 v 0 c 9.888,-11.618 23.662,-22.401 38.322,-30.562 v 0 c 1.639,-0.909 3.284,-1.765 4.927,-2.571 v 0 c 19.044,-9.345 37.569,-11.88 38.192,-11.963 v 0 c 0.011,0 0.016,0 0.016,0 v 0 c -0.768,3.339 -1.523,6.696 -2.279,10.073 v 0 c -0.01,0 -0.018,0 -0.035,0.01 v 0 c -0.976,0.138 -17.77,2.664 -36.321,13.691 v 0 c -12.904,7.685 -25.019,17.784 -33.716,28.114 v 0 c -5.878,6.986 -10.771,14.618 -14.628,22.801 v 0 c -2.271,-4.407 -4.237,-8.976 -5.886,-13.677"
         id="path25370" />
    </clipPath>
    <linearGradient
       x1="0"
       y1="0"
       x2="1"
       y2="0"
       gradientUnits="userSpaceOnUse"
       gradientTransform="matrix(100.37803,-89.035858,-89.035858,-100.37803,1244.5187,1693.4957)"
       spreadMethod="pad"
       id="linearGradient25396">
      <stop
         style="stop-opacity:1;stop-color:#ffffff"
         offset="0"
         id="stop25378" />
      <stop
         style="stop-opacity:1;stop-color:#ffffff"
         offset="0.177914"
         id="stop25380" />
      <stop
         style="stop-opacity:1;stop-color:#9d9d9d"
         offset="0.380368"
         id="stop25382" />
      <stop
         style="stop-opacity:1;stop-color:#8c8c8c"
         offset="0.484663"
         id="stop25384" />
      <stop
         style="stop-opacity:1;stop-color:#919191"
         offset="0.607362"
         id="stop25386" />
      <stop
         style="stop-opacity:1;stop-color:#ffffff"
         offset="0.809816"
         id="stop25388" />
      <stop
         style="stop-opacity:1;stop-color:#ffffff"
         offset="0.88467368"
         id="stop25390" />
      <stop
         style="stop-opacity:1;stop-color:#ffffff"
         offset="0.95092"
         id="stop25392" />
      <stop
         style="stop-opacity:1;stop-color:#ffffff"
         offset="1"
         id="stop25394" />
    </linearGradient>
    <clipPath
       clipPathUnits="userSpaceOnUse"
       id="clipPath25406">
      <path
         d="m 1381.991,1722.226 c 3.42,-14.282 3.689,-27.842 0.758,-40.451 v 0 c -2.392,-10.256 -7.115,-20.213 -14.947,-30.648 v 0 c -12.253,-16.286 -26.777,-24.895 -26.777,-24.895 v 0 c 0,0 0,10e-4 -0.012,0 v 0 c 0.756,-3.377 1.511,-6.734 2.279,-10.073 v 0 c 0,0 18.473,11.179 31.827,28.427 v 0 c 8.715,11.284 13.664,22.058 16.238,33.473 v 0 c 3.157,14.015 2.807,28.995 -0.972,44.707 v 0 c -2.5,10.389 -4.993,20.74 -7.479,31.066 v 0 c -2.866,0.379 -5.763,0.666 -8.688,0.855 v 0 c 2.583,-10.787 5.174,-21.608 7.773,-32.463"
         id="path25404" />
    </clipPath>
    <linearGradient
       x1="0"
       y1="0"
       x2="1"
       y2="0"
       gradientUnits="userSpaceOnUse"
       gradientTransform="matrix(-39.211903,-137.78677,-137.78677,39.211903,1392.7185,1751.0416)"
       spreadMethod="pad"
       id="linearGradient25430">
      <stop
         style="stop-opacity:1;stop-color:#ffffff"
         offset="0"
         id="stop25412" />
      <stop
         style="stop-opacity:1;stop-color:#ffffff"
         offset="0.0366055"
         id="stop25414" />
      <stop
         style="stop-opacity:1;stop-color:#ffffff"
         offset="0.055215"
         id="stop25416" />
      <stop
         style="stop-opacity:1;stop-color:#b3b4b6"
         offset="0.177914"
         id="stop25418" />
      <stop
         style="stop-opacity:1;stop-color:#6e6f71"
         offset="0.343558"
         id="stop25420" />
      <stop
         style="stop-opacity:1;stop-color:#6e6f71"
         offset="0.4042328"
         id="stop25422" />
      <stop
         style="stop-opacity:1;stop-color:#9fa0a2"
         offset="0.521472"
         id="stop25424" />
      <stop
         style="stop-opacity:1;stop-color:#ffffff"
         offset="0.668712"
         id="stop25426" />
      <stop
         style="stop-opacity:1;stop-color:#ffffff"
         offset="1"
         id="stop25428" />
    </linearGradient>
    <clipPath
       clipPathUnits="userSpaceOnUse"
       id="clipPath25440">
      <path
         d="m 1231.654,1712.507 c 4.366,-20.116 13.411,-38.339 26.662,-53.869 v 0 c 10.35,-12.115 24.691,-23.103 40.069,-31.443 v 0 c 21.569,-11.664 43.618,-14.534 43.987,-14.58 v 0 c 0.593,1.713 0.844,2.97 0.94,3.557 v 0 c -0.012,-0.01 -0.02,-0.011 -0.02,-0.011 v 0 c 0,0 -22.164,2.895 -43.135,14.536 v 0 c -14.66,8.161 -28.434,18.944 -38.322,30.562 v 0 c -12.63,14.861 -21.257,32.298 -25.456,51.554 v 0 c -6.263,28.748 -12.473,57.255 -18.632,85.525 v 0 l -5.04,1.421 c 6.419,-29.553 12.413,-57.175 18.947,-87.252"
         id="path25438" />
    </clipPath>
    <linearGradient
       x1="0"
       y1="0"
       x2="1"
       y2="0"
       gradientUnits="userSpaceOnUse"
       gradientTransform="matrix(130.60506,0,0,-130.60506,1212.707,1706.1868)"
       spreadMethod="pad"
       id="linearGradient25464">
      <stop
         style="stop-opacity:1;stop-color:#ffffff"
         offset="0"
         id="stop25446" />
      <stop
         style="stop-opacity:1;stop-color:#4e4e4e"
         offset="0.153374"
         id="stop25448" />
      <stop
         style="stop-opacity:1;stop-color:#ffffff"
         offset="0.2119588"
         id="stop25450" />
      <stop
         style="stop-opacity:1;stop-color:#ffffff"
         offset="0.263804"
         id="stop25452" />
      <stop
         style="stop-opacity:1;stop-color:#000000"
         offset="0.662577"
         id="stop25454" />
      <stop
         style="stop-opacity:1;stop-color:#000000"
         offset="0.80172784"
         id="stop25456" />
      <stop
         style="stop-opacity:1;stop-color:#7c7d7f"
         offset="0.907975"
         id="stop25458" />
      <stop
         style="stop-opacity:1;stop-color:#ffffff"
         offset="0.993865"
         id="stop25460" />
      <stop
         style="stop-opacity:1;stop-color:#ffffff"
         offset="1"
         id="stop25462" />
    </linearGradient>
    <clipPath
       clipPathUnits="userSpaceOnUse"
       id="clipPath25474">
      <path
         d="m 1212.706,1799.761 c 0,0 0,-10e-4 0,0 v 0 l 5.04,-1.421 c 0,0 0,0.01 0,0.01 v 0 c 4.181,0.719 8.321,1.421 12.419,2.116 v 0 c 22.264,3.792 35.109,5.976 70.982,4.275 v 0 c 32.893,-1.572 44.447,-4.599 62.881,-9.439 v 0 c 3.193,-0.835 6.358,-1.668 9.498,-2.493 v 0 c -24.896,9.149 -56.535,14.558 -90.724,14.559 v 0 c -22.65,0 -46.415,-2.373 -70.095,-7.605"
         id="path25472" />
    </clipPath>
    <linearGradient
       x1="0"
       y1="0"
       x2="1"
       y2="0"
       gradientUnits="userSpaceOnUse"
       gradientTransform="matrix(160.81853,0,0,-160.81853,1212.7064,1800.0862)"
       spreadMethod="pad"
       id="linearGradient25490">
      <stop
         style="stop-opacity:1;stop-color:#000000"
         offset="0"
         id="stop25480" />
      <stop
         style="stop-opacity:1;stop-color:#5a5a5a"
         offset="0.208589"
         id="stop25482" />
      <stop
         style="stop-opacity:1;stop-color:#ffffff"
         offset="0.668712"
         id="stop25484" />
      <stop
         style="stop-opacity:1;stop-color:#4f4f4f"
         offset="0.852761"
         id="stop25486" />
      <stop
         style="stop-opacity:1;stop-color:#000000"
         offset="1"
         id="stop25488" />
    </linearGradient>
    <clipPath
       clipPathUnits="userSpaceOnUse"
       id="clipPath25500">
      <path
         d="m 1248.643,1671.596 c 2.921,-4.5 6.147,-8.825 9.673,-12.958 v 0 c 10.35,-12.115 24.691,-23.103 40.069,-31.443 v 0 c 21.569,-11.664 43.618,-14.534 43.987,-14.58 v 0 c 0.593,1.713 0.844,2.97 0.94,3.557 v 0 c -0.012,-0.01 -0.02,-0.011 -0.02,-0.011 v 0 c 0,0 0,0 -0.016,0 v 0 c -0.623,0.083 -19.148,2.618 -38.192,11.963 v 0 c -1.643,0.806 -3.288,1.662 -4.927,2.571 v 0 c -14.66,8.161 -28.434,18.944 -38.322,30.562 v 0 c -4.265,5.019 -8.072,10.334 -11.408,15.91 v 0 c -0.645,-1.838 -1.24,-3.695 -1.784,-5.573"
         id="path25498" />
    </clipPath>
    <linearGradient
       x1="0"
       y1="0"
       x2="1"
       y2="0"
       gradientUnits="userSpaceOnUse"
       gradientTransform="matrix(130.60495,0,0,-130.60495,1212.7068,1644.8921)"
       spreadMethod="pad"
       id="linearGradient25524">
      <stop
         style="stop-opacity:1;stop-color:#ffffff"
         offset="0"
         id="stop25506" />
      <stop
         style="stop-opacity:1;stop-color:#ffffff"
         offset="0.116564"
         id="stop25508" />
      <stop
         style="stop-opacity:1;stop-color:#ffffff"
         offset="0.1786821"
         id="stop25510" />
      <stop
         style="stop-opacity:1;stop-color:#cfcfcf"
         offset="0.245399"
         id="stop25512" />
      <stop
         style="stop-opacity:1;stop-color:#ffffff"
         offset="0.392638"
         id="stop25514" />
      <stop
         style="stop-opacity:1;stop-color:#000000"
         offset="0.662577"
         id="stop25516" />
      <stop
         style="stop-opacity:1;stop-color:#000000"
         offset="0.85043103"
         id="stop25518" />
      <stop
         style="stop-opacity:1;stop-color:#ffffff"
         offset="0.993865"
         id="stop25520" />
      <stop
         style="stop-opacity:1;stop-color:#ffffff"
         offset="1"
         id="stop25522" />
    </linearGradient>
    <clipPath
       clipPathUnits="userSpaceOnUse"
       id="clipPath25534">
      <path
         d="m 1205.744,1787.132 17.627,-81.106 c 4.368,-20.116 13.413,-38.339 26.663,-53.869 v 0 c 10.349,-12.116 24.043,-22.533 40.142,-30.857 v 0 c 22.041,-11.36 45.68,-14.63 46.537,-14.74 v 0 c 3.069,2.869 4.829,4.985 5.646,6.055 v 0 c -0.617,0.078 -22.526,2.98 -43.974,14.58 v 0 c -15.378,8.34 -29.719,19.328 -40.069,31.443 v 0 c -13.251,15.53 -22.296,33.753 -26.662,53.869 v 0 c -6.534,30.077 -12.528,57.7 -18.948,87.254 v 0 z"
         id="path25532" />
    </clipPath>
    <linearGradient
       x1="0"
       y1="0"
       x2="1"
       y2="0"
       gradientUnits="userSpaceOnUse"
       gradientTransform="matrix(136.61459,0,0,-136.61459,1205.7444,1703.1606)"
       spreadMethod="pad"
       id="linearGradient25564">
      <stop
         style="stop-opacity:1;stop-color:#000000"
         offset="0"
         id="stop25540" />
      <stop
         style="stop-opacity:1;stop-color:#000000"
         offset="0.01227"
         id="stop25542" />
      <stop
         style="stop-opacity:1;stop-color:#000000"
         offset="0.06110411"
         id="stop25544" />
      <stop
         style="stop-opacity:1;stop-color:#87888a"
         offset="0.110429"
         id="stop25546" />
      <stop
         style="stop-opacity:1;stop-color:#ffffff"
         offset="0.177914"
         id="stop25548" />
      <stop
         style="stop-opacity:1;stop-color:#b3b4b6"
         offset="0.368098"
         id="stop25550" />
      <stop
         style="stop-opacity:1;stop-color:#959698"
         offset="0.38781958"
         id="stop25552" />
      <stop
         style="stop-opacity:1;stop-color:#959698"
         offset="0.466258"
         id="stop25554" />
      <stop
         style="stop-opacity:1;stop-color:#6e6f71"
         offset="0.6007486"
         id="stop25556" />
      <stop
         style="stop-opacity:1;stop-color:#6e6f71"
         offset="0.631902"
         id="stop25558" />
      <stop
         style="stop-opacity:1;stop-color:#000000"
         offset="0.846626"
         id="stop25560" />
      <stop
         style="stop-opacity:1;stop-color:#000000"
         offset="1"
         id="stop25562" />
    </linearGradient>
    <clipPath
       clipPathUnits="userSpaceOnUse"
       id="clipPath25574">
      <path
         d="m 1236.864,1785.85 c 0,0 13.202,-59.948 15.855,-71.982 v 0 c 3.952,-17.902 11.745,-32.128 21.107,-43.33 v 0 c 9.362,-11.204 21.693,-20.914 32.334,-27.402 v 0 c 18.63,-11.323 34.09,-13.39 34.09,-13.39 v 0 l 0.01,0.01 c -46.692,18.256 -68.528,54.202 -75.874,66.401 v 0 c -9.873,19.183 -23.666,74.279 -27.517,89.697 v 0 0 z"
         id="path25572" />
    </clipPath>
    <linearGradient
       x1="0"
       y1="0"
       x2="1"
       y2="0"
       gradientUnits="userSpaceOnUse"
       gradientTransform="matrix(103.39592,0,0,-103.39592,1236.8633,1707.7985)"
       spreadMethod="pad"
       id="linearGradient25592">
      <stop
         style="stop-opacity:1;stop-color:#000083"
         offset="0"
         id="stop25580" />
      <stop
         style="stop-opacity:1;stop-color:#ffffff"
         offset="0.110429"
         id="stop25582" />
      <stop
         style="stop-opacity:1;stop-color:#5f82d5"
         offset="0.257669"
         id="stop25584" />
      <stop
         style="stop-opacity:1;stop-color:#285dc0"
         offset="0.46687624"
         id="stop25586" />
      <stop
         style="stop-opacity:1;stop-color:#285dc0"
         offset="0.515337"
         id="stop25588" />
      <stop
         style="stop-opacity:1;stop-color:#000083"
         offset="1"
         id="stop25590" />
    </linearGradient>
    <clipPath
       clipPathUnits="userSpaceOnUse"
       id="clipPath25602">
      <path
         d="m 1259.011,1694.453 c 4.02,-9.185 9.127,-17.109 14.815,-23.915 v 0 c 9.362,-11.204 21.693,-20.914 32.334,-27.402 v 0 c 18.63,-11.323 34.09,-13.39 34.09,-13.39 v 0 l 0.01,0.01 c -46.692,18.256 -68.528,54.202 -75.874,66.401 v 0 c -0.584,1.134 -1.182,2.398 -1.79,3.768 v 0 c -1.247,-1.806 -2.443,-3.63 -3.583,-5.468"
         id="path25600" />
    </clipPath>
    <linearGradient
       x1="0"
       y1="0"
       x2="1"
       y2="0"
       gradientUnits="userSpaceOnUse"
       gradientTransform="matrix(-46.35429,-59.379265,-59.379265,46.35429,1314.3979,1681.4529)"
       spreadMethod="pad"
       id="linearGradient25624">
      <stop
         style="stop-opacity:1;stop-color:#5f82d5"
         offset="0"
         id="stop25608" />
      <stop
         style="stop-opacity:1;stop-color:#5f82d5"
         offset="0.214724"
         id="stop25610" />
      <stop
         style="stop-opacity:1;stop-color:#5f82d5"
         offset="0.3732331"
         id="stop25612" />
      <stop
         style="stop-opacity:1;stop-color:#000083"
         offset="0.546012"
         id="stop25614" />
      <stop
         style="stop-opacity:1;stop-color:#000000"
         offset="0.90759696"
         id="stop25616" />
      <stop
         style="stop-opacity:1;stop-color:#000000"
         offset="1"
         id="stop25618" />
      <stop
         style="stop-opacity:1;stop-color:#000000"
         offset="1"
         id="stop25620" />
      <stop
         style="stop-opacity:1;stop-color:#000000"
         offset="1"
         id="stop25622" />
    </linearGradient>
    <clipPath
       clipPathUnits="userSpaceOnUse"
       id="clipPath24882">
      <path
         d="m 1360.083,1626.013 c -9.69,-9.121 -17.658,-13.367 -17.711,-13.398 v 0 c 0,0 -0.01,0 -0.013,10e-4 v 0 c -0.817,-1.071 -2.577,-3.187 -5.646,-6.058 v 0 c 0.01,0 0.019,-10e-4 0.024,0 v 0 c 0.037,0.024 8.966,3.844 19.706,13.334 v 0 c 11.365,10.05 26.891,27.357 33.63,53.205 v 0 c -5.848,-21.112 -19.643,-37.339 -29.99,-47.082"
         id="path24880" />
    </clipPath>
    <clipPath
       clipPathUnits="userSpaceOnUse"
       id="clipPath24914">
      <path
         d="m 1375.119,1644.588 c -13.114,-16.936 -31.16,-28.021 -31.807,-28.415 v 0 -10e-4 c -0.096,-0.587 -0.347,-1.844 -0.94,-3.557 v 0 c 0.053,0.031 8.021,4.277 17.711,13.398 v 0 c 10.347,9.743 24.142,25.97 29.99,47.082 v 0 l 0.01,0.031 c -2.815,-9.619 -7.512,-18.893 -14.961,-28.538"
         id="path24912" />
    </clipPath>
    <clipPath
       clipPathUnits="userSpaceOnUse"
       id="clipPath24944">
      <path
         d="M 0,2106.092 H 3257.321 V 0 H 0 Z"
         id="path24942" />
    </clipPath>
    <clipPath
       clipPathUnits="userSpaceOnUse"
       id="clipPath24956">
      <path
         d="m 1236.864,1785.85 c 0,0 13.202,-59.948 15.855,-71.982 v 0 c 3.952,-17.902 11.745,-32.128 21.107,-43.33 v 0 c 9.362,-11.204 21.693,-20.914 32.334,-27.402 v 0 c 18.63,-11.323 34.09,-13.39 34.09,-13.39 v 0 c 0.035,0.024 13.037,7.589 25.018,23.663 v 0 c 12.287,16.522 21.012,38.323 13.782,68.627 v 0 c -2.437,10.193 -14.595,61.056 -14.595,61.056 v 0 c -18.39,4.541 -29.246,7.113 -60.176,8.048 v 0 c -5.553,0.168 -10.517,0.249 -15.029,0.249 v 0 c -22.788,0 -34.121,-2.067 -52.386,-5.539 m 27.52,-89.697 c -9.873,19.183 -23.666,74.279 -27.517,89.697 v 0 c 8.485,1.16 54.531,5.532 83.563,0.746 v 0 c 22.235,-27.489 40.819,-75.359 19.828,-156.844 v 0 c -46.692,18.256 -68.528,54.202 -75.874,66.401"
         id="path24954" />
    </clipPath>
    <clipPath
       clipPathUnits="userSpaceOnUse"
       id="clipPath24986">
      <path
         d="m 1236.867,1785.85 c 3.851,-15.418 17.644,-70.514 27.517,-89.697 v 0 c 7.346,-12.199 29.182,-48.145 75.874,-66.401 v 0 c 20.991,81.485 2.407,129.355 -19.828,156.844 v 0 c -9.836,1.622 -21.629,2.192 -33.249,2.192 v 0 c -22.676,10e-4 -44.703,-2.171 -50.314,-2.938"
         id="path24984" />
    </clipPath>
    <clipPath
       clipPathUnits="userSpaceOnUse"
       id="clipPath25018">
      <path
         d="m 1276.731,1717.197 c -5.293,-5.498 -10.005,-11.29 -14.137,-17.276 v 0 c 0.608,-1.37 1.206,-2.634 1.79,-3.768 v 0 c 7.346,-12.199 29.182,-48.145 75.874,-66.401 v 0 c 14.283,55.443 10.241,95.318 -0.803,123.805 v 0 c -21.94,-4.847 -44.252,-17.173 -62.724,-36.36"
         id="path25016" />
    </clipPath>
    <clipPath
       clipPathUnits="userSpaceOnUse"
       id="clipPath25054">
      <path
         d="m 1339.455,1753.557 c 11.044,-28.487 15.086,-68.362 0.803,-123.805 v 0 l -0.01,-0.01 c 0.035,0.024 13.037,7.589 25.018,23.663 v 0 c 12.287,16.522 21.012,38.323 13.782,68.627 v 0 c -1.184,4.952 -4.664,19.507 -7.928,33.164 v 0 c -3.556,0.463 -7.187,0.694 -10.868,0.694 v 0 c -6.803,0 -13.782,-0.786 -20.799,-2.337"
         id="path25052" />
    </clipPath>
    <clipPath
       clipPathUnits="userSpaceOnUse"
       id="clipPath25084">
      <path
         d="m 1230.164,1800.464 c -4.098,-0.695 -8.238,-1.397 -12.419,-2.116 v 0 c 0,0 0,-0.01 0,-0.01 v 0 l 14.279,-9.333 c -10e-4,0 -10e-4,0 0,0.01 v 0 c 1.044,0.196 2.086,0.389 3.124,0.578 v 0 c 21.369,3.957 33.716,6.243 68.326,5.041 v 0 c 31.823,-1.107 43.009,-3.907 60.871,-8.398 v 0 c 0.824,-0.204 1.645,-0.411 2.465,-0.619 v 0 l 6.715,7.19 v 0 c -3.14,0.825 -6.305,1.658 -9.498,2.493 v 0 c -18.434,4.84 -29.988,7.867 -62.881,9.439 v 0 c -8.436,0.4 -15.599,0.585 -21.911,0.585 v 0 c -20.525,0 -32.043,-1.96 -49.071,-4.86"
         id="path25082" />
    </clipPath>
    <clipPath
       clipPathUnits="userSpaceOnUse"
       id="clipPath25118">
      <path
         d="m 1364.459,1783.08 c 0.118,-0.496 12.166,-50.901 14.591,-61.044 v 0 c 7.23,-30.304 -1.495,-52.105 -13.782,-68.627 v 0 c -11.93,-16.007 -24.863,-23.575 -25.013,-23.658 v 0 c 0.25,-1.178 0.508,-2.349 0.762,-3.518 v 0 c 0,0 0.01,-10e-4 0.01,-10e-4 v 0 c 0,0 14.524,8.609 26.777,24.895 v 0 c 7.832,10.435 12.555,20.392 14.947,30.648 v 0 c 2.931,12.609 2.662,26.169 -0.758,40.451 v 0 c -5.091,21.26 -10.152,42.39 -15.178,63.388 v 0 l -2.354,-2.534 z"
         id="path25116" />
    </clipPath>
    <clipPath
       clipPathUnits="userSpaceOnUse"
       id="clipPath25144-2">
      <path
         d="m 1232.024,1789.013 c 5.483,-24.951 11.001,-50.088 16.565,-75.411 v 0 c 3.745,-17.039 11.313,-32.438 22.352,-45.557 v 0 c 8.697,-10.33 20.812,-20.429 33.716,-28.114 v 0 c 18.932,-11.251 36.036,-13.651 36.36,-13.698 v 0 c -0.254,1.169 -0.512,2.34 -0.762,3.518 v 0 c 0,-10e-4 -0.01,0 -0.01,0 v 0 c 0,0 -15.46,2.067 -34.09,13.39 v 0 c -10.641,6.488 -22.972,16.198 -32.334,27.402 v 0 c -9.362,11.202 -17.155,25.428 -21.107,43.33 v 0 c -2.653,12.034 -15.855,71.982 -15.855,71.982 v 0 0 l -4.838,3.164 c 0,-10e-4 0,-10e-4 -0.01,-10e-4"
         id="path25142-2" />
    </clipPath>
    <clipPath
       clipPathUnits="userSpaceOnUse"
       id="clipPath25174">
      <path
         d="m 1235.148,1789.591 c -1.037,-0.189 -2.078,-0.382 -3.119,-0.577 v 0 l 4.838,-3.164 c 21.879,4.16 33.817,6.302 67.412,5.29 v 0 c 30.93,-0.935 41.786,-3.507 60.176,-8.048 v 0 c 0,0 0,-0.01 0,-0.012 v 0 l 2.354,2.534 c 0,0 0,0 0,10e-4 v 0 c -0.82,0.208 -1.642,0.415 -2.466,0.619 v 0 c -17.862,4.491 -29.048,7.291 -60.871,8.398 v 0 c -6.255,0.217 -11.786,0.321 -16.771,0.321 v 0 c -22.6,0 -34.048,-2.12 -51.555,-5.362"
         id="path25172" />
    </clipPath>
    <clipPath
       clipPathUnits="userSpaceOnUse"
       id="clipPath25204">
      <path
         d="m 1372.135,1750.958 c 2.945,-12.314 5.853,-24.48 6.915,-28.922 v 0 c 7.23,-30.304 -1.495,-52.105 -13.782,-68.627 v 0 c -11.9,-15.966 -24.795,-23.535 -25.01,-23.657 v 0 c 0,0 0,-10e-4 0,-10e-4 v 0 c 0.25,-1.178 0.508,-2.349 0.762,-3.518 v 0 c 0,-10e-4 0.01,-10e-4 0.01,-10e-4 v 0 c 0,0 14.524,8.609 26.777,24.895 v 0 c 7.832,10.435 12.555,20.392 14.947,30.648 v 0 c 2.931,12.609 2.662,26.169 -0.758,40.451 v 0 c -2.6,10.855 -5.19,21.676 -7.773,32.463 v 0 c -1.001,0.064 -2.004,0.118 -3.012,0.159 v 0 c 0.309,-1.292 0.62,-2.591 0.929,-3.89"
         id="path25202" />
    </clipPath>
    <clipPath
       clipPathUnits="userSpaceOnUse"
       id="clipPath25234">
      <path
         d="m 1256.313,1690.846 c 3.857,-8.183 8.75,-15.815 14.628,-22.801 v 0 c 8.697,-10.33 20.812,-20.429 33.716,-28.114 v 0 c 18.573,-11.037 35.384,-13.555 36.321,-13.691 v 0 c 0.017,0 0.027,0 0.035,-0.01 v 0 c 0,0 0,-10e-4 0,-10e-4 v 0 c -0.254,1.169 -0.512,2.34 -0.762,3.518 v 0 c 0,-10e-4 -0.01,0 -0.01,0 v 0 c 0,0 -15.46,2.067 -34.09,13.39 v 0 c -10.641,6.488 -22.972,16.198 -32.334,27.402 v 0 c -5.842,6.99 -11.072,15.157 -15.141,24.66 v 0 c -0.822,-1.433 -1.615,-2.882 -2.372,-4.352"
         id="path25232" />
    </clipPath>
    <clipPath
       clipPathUnits="userSpaceOnUse"
       id="clipPath25268">
      <path
         d="m 1366.81,1785.615 h 10e-4 c 5.028,-20.999 10.089,-42.128 15.18,-63.389 v 0 c 3.42,-14.282 3.689,-27.842 0.758,-40.451 v 0 c -2.392,-10.256 -7.115,-20.213 -14.947,-30.648 v 0 c -12.253,-16.286 -26.777,-24.895 -26.777,-24.895 v 0 c 0,0 0,10e-4 -0.012,0 v 0 c 0.756,-3.377 1.511,-6.734 2.279,-10.073 v 0 c 0,0 18.473,11.179 31.827,28.427 v 0 c 8.753,11.335 13.674,22.104 16.238,33.473 v 0 c 3.157,14.015 2.807,28.995 -0.972,44.707 v 0 c -5.659,23.507 -11.279,46.852 -16.86,70.037 v 0 l -6.715,-7.19 z"
         id="path25266" />
    </clipPath>
    <clipPath
       clipPathUnits="userSpaceOnUse"
       id="clipPath25308">
      <path
         d="m 1236.379,1712.813 c 4.199,-19.256 12.826,-36.693 25.456,-51.554 v 0 c 9.888,-11.618 23.662,-22.401 38.322,-30.562 v 0 c 20.971,-11.641 43.135,-14.536 43.135,-14.536 v 0 c -0.768,3.339 -1.523,6.696 -2.279,10.073 v 0 c -0.48,0.066 -17.511,2.494 -36.356,13.697 v 0 c -12.904,7.685 -25.019,17.784 -33.716,28.114 v 0 c -11.039,13.119 -18.607,28.518 -22.352,45.557 v 0 c -5.564,25.32 -11.081,50.455 -16.563,75.404 v 0 l -14.279,9.333 c 6.159,-28.27 12.369,-56.778 18.632,-85.526"
         id="path25306" />
    </clipPath>
    <clipPath
       clipPathUnits="userSpaceOnUse"
       id="clipPath25346">
      <path
         d="m 1250.427,1677.169 c 3.336,-5.576 7.143,-10.891 11.408,-15.91 v 0 c 9.888,-11.618 23.662,-22.401 38.322,-30.562 v 0 c 1.639,-0.909 3.284,-1.765 4.927,-2.571 v 0 c 19.044,-9.345 37.569,-11.88 38.192,-11.963 v 0 c 0.011,0 0.016,0 0.016,0 v 0 c -0.768,3.339 -1.523,6.696 -2.279,10.073 v 0 c -0.01,0 -0.018,0 -0.035,0.01 v 0 c -0.976,0.138 -17.77,2.664 -36.321,13.691 v 0 c -12.904,7.685 -25.019,17.784 -33.716,28.114 v 0 c -5.878,6.986 -10.771,14.618 -14.628,22.801 v 0 c -2.271,-4.407 -4.237,-8.976 -5.886,-13.677"
         id="path25344" />
    </clipPath>
    <clipPath
       clipPathUnits="userSpaceOnUse"
       id="clipPath25380">
      <path
         d="m 1381.991,1722.226 c 3.42,-14.282 3.689,-27.842 0.758,-40.451 v 0 c -2.392,-10.256 -7.115,-20.213 -14.947,-30.648 v 0 c -12.253,-16.286 -26.777,-24.895 -26.777,-24.895 v 0 c 0,0 0,10e-4 -0.012,0 v 0 c 0.756,-3.377 1.511,-6.734 2.279,-10.073 v 0 c 0,0 18.473,11.179 31.827,28.427 v 0 c 8.715,11.284 13.664,22.058 16.238,33.473 v 0 c 3.157,14.015 2.807,28.995 -0.972,44.707 v 0 c -2.5,10.389 -4.993,20.74 -7.479,31.066 v 0 c -2.866,0.379 -5.763,0.666 -8.688,0.855 v 0 c 2.583,-10.787 5.174,-21.608 7.773,-32.463"
         id="path25378" />
    </clipPath>
    <clipPath
       clipPathUnits="userSpaceOnUse"
       id="clipPath25414">
      <path
         d="m 1231.654,1712.507 c 4.366,-20.116 13.411,-38.339 26.662,-53.869 v 0 c 10.35,-12.115 24.691,-23.103 40.069,-31.443 v 0 c 21.569,-11.664 43.618,-14.534 43.987,-14.58 v 0 c 0.593,1.713 0.844,2.97 0.94,3.557 v 0 c -0.012,-0.01 -0.02,-0.011 -0.02,-0.011 v 0 c 0,0 -22.164,2.895 -43.135,14.536 v 0 c -14.66,8.161 -28.434,18.944 -38.322,30.562 v 0 c -12.63,14.861 -21.257,32.298 -25.456,51.554 v 0 c -6.263,28.748 -12.473,57.255 -18.632,85.525 v 0 l -5.04,1.421 c 6.419,-29.553 12.413,-57.175 18.947,-87.252"
         id="path25412" />
    </clipPath>
    <clipPath
       clipPathUnits="userSpaceOnUse"
       id="clipPath25448">
      <path
         d="m 1212.706,1799.761 c 0,0 0,-10e-4 0,0 v 0 l 5.04,-1.421 c 0,0 0,0.01 0,0.01 v 0 c 4.181,0.719 8.321,1.421 12.419,2.116 v 0 c 22.264,3.792 35.109,5.976 70.982,4.275 v 0 c 32.893,-1.572 44.447,-4.599 62.881,-9.439 v 0 c 3.193,-0.835 6.358,-1.668 9.498,-2.493 v 0 c -24.896,9.149 -56.535,14.558 -90.724,14.559 v 0 c -22.65,0 -46.415,-2.373 -70.095,-7.605"
         id="path25446" />
    </clipPath>
    <clipPath
       clipPathUnits="userSpaceOnUse"
       id="clipPath25474-8">
      <path
         d="m 1248.643,1671.596 c 2.921,-4.5 6.147,-8.825 9.673,-12.958 v 0 c 10.35,-12.115 24.691,-23.103 40.069,-31.443 v 0 c 21.569,-11.664 43.618,-14.534 43.987,-14.58 v 0 c 0.593,1.713 0.844,2.97 0.94,3.557 v 0 c -0.012,-0.01 -0.02,-0.011 -0.02,-0.011 v 0 c 0,0 0,0 -0.016,0 v 0 c -0.623,0.083 -19.148,2.618 -38.192,11.963 v 0 c -1.643,0.806 -3.288,1.662 -4.927,2.571 v 0 c -14.66,8.161 -28.434,18.944 -38.322,30.562 v 0 c -4.265,5.019 -8.072,10.334 -11.408,15.91 v 0 c -0.645,-1.838 -1.24,-3.695 -1.784,-5.573"
         id="path25472-4" />
    </clipPath>
    <clipPath
       clipPathUnits="userSpaceOnUse"
       id="clipPath25508">
      <path
         d="m 1205.744,1787.132 17.627,-81.106 c 4.368,-20.116 13.413,-38.339 26.663,-53.869 v 0 c 10.349,-12.116 24.043,-22.533 40.142,-30.857 v 0 c 22.041,-11.36 45.68,-14.63 46.537,-14.74 v 0 c 3.069,2.869 4.829,4.985 5.646,6.055 v 0 c -0.617,0.078 -22.526,2.98 -43.974,14.58 v 0 c -15.378,8.34 -29.719,19.328 -40.069,31.443 v 0 c -13.251,15.53 -22.296,33.753 -26.662,53.869 v 0 c -6.534,30.077 -12.528,57.7 -18.948,87.254 v 0 z"
         id="path25506" />
    </clipPath>
    <clipPath
       clipPathUnits="userSpaceOnUse"
       id="clipPath25548">
      <path
         d="m 1236.864,1785.85 c 0,0 13.202,-59.948 15.855,-71.982 v 0 c 3.952,-17.902 11.745,-32.128 21.107,-43.33 v 0 c 9.362,-11.204 21.693,-20.914 32.334,-27.402 v 0 c 18.63,-11.323 34.09,-13.39 34.09,-13.39 v 0 l 0.01,0.01 c -46.692,18.256 -68.528,54.202 -75.874,66.401 v 0 c -9.873,19.183 -23.666,74.279 -27.517,89.697 v 0 0 z"
         id="path25546" />
    </clipPath>
    <clipPath
       clipPathUnits="userSpaceOnUse"
       id="clipPath25576">
      <path
         d="m 1259.011,1694.453 c 4.02,-9.185 9.127,-17.109 14.815,-23.915 v 0 c 9.362,-11.204 21.693,-20.914 32.334,-27.402 v 0 c 18.63,-11.323 34.09,-13.39 34.09,-13.39 v 0 l 0.01,0.01 c -46.692,18.256 -68.528,54.202 -75.874,66.401 v 0 c -0.584,1.134 -1.182,2.398 -1.79,3.768 v 0 c -1.247,-1.806 -2.443,-3.63 -3.583,-5.468"
         id="path25574" />
    </clipPath>
  </defs>
  <sodipodi:namedview
     id="base"
     pagecolor="#ffffff"
     bordercolor="#666666"
     borderopacity="1.0"
     inkscape:pageopacity="0.0"
     inkscape:pageshadow="2"
     inkscape:zoom="0.35"
     inkscape:cx="450.99116"
     inkscape:cy="-100.49555"
     inkscape:document-units="mm"
     inkscape:current-layer="layer1"
     inkscape:document-rotation="0"
     showgrid="false"
     fit-margin-top="0"
     fit-margin-left="0"
     fit-margin-right="0"
     fit-margin-bottom="0"
     inkscape:window-width="1920"
     inkscape:window-height="997"
     inkscape:window-x="1920"
     inkscape:window-y="0"
     inkscape:window-maximized="1" />
  <metadata
     id="metadata28299">
    <rdf:RDF>
      <cc:Work
         rdf:about="">
        <dc:format>image/svg+xml</dc:format>
        <dc:type
           rdf:resource="http://purl.org/dc/dcmitype/StillImage" />
        <dc:title></dc:title>
      </cc:Work>
    </rdf:RDF>
  </metadata>
  <g
     inkscape:label="Capa 1"
     inkscape:groupmode="layer"
     id="layer1"
     transform="translate(13.49141,-174.75612)">
    <g
       id="g24800"
       transform="matrix(0.35277777,0,0,-0.35277777,44.928833,251.36316)">
      <path
         d="m 0,0 c 0,-4.494 -18.062,-8.139 -40.345,-8.139 -22.282,0 -40.345,3.645 -40.345,8.139 0,4.496 18.063,8.142 40.345,8.142 C -18.062,8.142 0,4.496 0,0"
         style="fill:#f5f5f5;fill-opacity:1;fill-rule:nonzero;stroke:none"
         id="path24802" />
    </g>
    <g
       id="g24804"
       transform="matrix(0.35277777,0,0,-0.35277777,44.313893,251.36316)">
      <path
         d="m 0,0 c 0,-4.3 -17.282,-7.787 -38.602,-7.787 -21.319,0 -38.601,3.487 -38.601,7.787 0,4.303 17.282,7.789 38.601,7.789 C -17.282,7.789 0,4.303 0,0"
         style="fill:#e8e8e9;fill-opacity:1;fill-rule:nonzero;stroke:none"
         id="path24806" />
    </g>
    <g
       id="g24808"
       transform="matrix(0.35277777,0,0,-0.35277777,43.698943,251.36316)">
      <path
         d="m 0,0 c 0,-4.105 -16.502,-7.436 -36.858,-7.436 -20.357,0 -36.859,3.331 -36.859,7.436 0,4.108 16.502,7.437 36.859,7.437 C -16.502,7.437 0,4.108 0,0"
         style="fill:#dcdcdc;fill-opacity:1;fill-rule:nonzero;stroke:none"
         id="path24810" />
    </g>
    <g
       id="g24812"
       transform="matrix(0.35277777,0,0,-0.35277777,43.083973,251.36316)">
      <path
         d="m 0,0 c 0,-3.911 -15.722,-7.084 -35.115,-7.084 -19.394,0 -35.115,3.173 -35.115,7.084 0,3.914 15.721,7.086 35.115,7.086 C -15.722,7.086 0,3.914 0,0"
         style="fill:#cfcfd0;fill-opacity:1;fill-rule:nonzero;stroke:none"
         id="path24814" />
    </g>
    <g
       id="g24816"
       transform="matrix(0.35277777,0,0,-0.35277777,42.469053,251.36316)">
      <path
         d="m 0,0 c 0,-3.718 -14.941,-6.732 -33.372,-6.732 -18.431,0 -33.372,3.014 -33.372,6.732 0,3.72 14.941,6.734 33.372,6.734 C -14.941,6.734 0,3.72 0,0"
         style="fill:#c3c3c3;fill-opacity:1;fill-rule:nonzero;stroke:none"
         id="path24818" />
    </g>
    <g
       id="g24820"
       transform="matrix(0.35277777,0,0,-0.35277777,41.853743,251.36316)">
      <path
         d="m 0,0 c 0,-3.523 -14.16,-6.381 -31.628,-6.381 -17.468,0 -31.629,2.858 -31.629,6.381 0,3.525 14.161,6.383 31.629,6.383 C -14.16,6.383 0,3.525 0,0"
         style="fill:#b6b6b7;fill-opacity:1;fill-rule:nonzero;stroke:none"
         id="path24822" />
    </g>
    <g
       id="g24824"
       transform="matrix(0.35277777,0,0,-0.35277777,41.238803,251.36316)">
      <path
         d="m 0,0 c 0,-3.329 -13.38,-6.028 -29.885,-6.028 -16.505,0 -29.885,2.699 -29.885,6.028 0,3.331 13.38,6.03 29.885,6.03 C -13.38,6.03 0,3.331 0,0"
         style="fill:#aaaaaa;fill-opacity:1;fill-rule:nonzero;stroke:none"
         id="path24826" />
    </g>
    <g
       id="g24828"
       transform="matrix(0.35277777,0,0,-0.35277777,40.623853,251.36316)">
      <path
         d="m 0,0 c 0,-3.135 -12.599,-5.677 -28.142,-5.677 -15.543,0 -28.141,2.542 -28.141,5.677 0,3.137 12.598,5.679 28.141,5.679 C -12.599,5.679 0,3.137 0,0"
         style="fill:#9d9d9e;fill-opacity:1;fill-rule:nonzero;stroke:none"
         id="path24830" />
    </g>
    <g
       id="g24832"
       transform="matrix(0.35277777,0,0,-0.35277777,40.008883,251.36316)">
      <path
         d="m 0,0 c 0,-2.94 -11.818,-5.325 -26.398,-5.325 -14.581,0 -26.399,2.385 -26.399,5.325 0,2.942 11.818,5.327 26.399,5.327 C -11.818,5.327 0,2.942 0,0"
         style="fill:#919191;fill-opacity:1;fill-rule:nonzero;stroke:none"
         id="path24834" />
    </g>
    <g
       id="g24836"
       transform="matrix(0.35277777,0,0,-0.35277777,39.393963,251.36316)">
      <path
         d="m 0,0 c 0,-2.746 -11.038,-4.974 -24.655,-4.974 -13.617,0 -24.656,2.228 -24.656,4.974 0,2.748 11.039,4.976 24.656,4.976 C -11.038,4.976 0,2.748 0,0"
         style="fill:#848485;fill-opacity:1;fill-rule:nonzero;stroke:none"
         id="path24838" />
    </g>
    <g
       id="g24840"
       transform="matrix(0.35277777,0,0,-0.35277777,38.778993,251.36316)">
      <path
         d="m 0,0 c 0,-2.553 -10.258,-4.622 -22.912,-4.622 -12.654,0 -22.912,2.069 -22.912,4.622 0,2.554 10.258,4.623 22.912,4.623 C -10.258,4.623 0,2.554 0,0"
         style="fill:#787779;fill-opacity:1;fill-rule:nonzero;stroke:none"
         id="path24842" />
    </g>
    <g
       id="g24844"
       transform="matrix(0.35277777,0,0,-0.35277777,38.164023,251.36316)">
      <path
         d="m 0,0 c 0,-2.358 -9.478,-4.271 -21.169,-4.271 -11.691,0 -21.168,1.913 -21.168,4.271 0,2.359 9.477,4.271 21.168,4.271 C -9.478,4.271 0,2.359 0,0"
         style="fill:#6b6b6c;fill-opacity:1;fill-rule:nonzero;stroke:none"
         id="path24846" />
    </g>
    <g
       id="g24848"
       transform="matrix(0.35277777,0,0,-0.35277777,37.549103,251.36316)">
      <path
         d="m 0,0 c 0,-2.164 -8.697,-3.919 -19.426,-3.919 -10.728,0 -19.425,1.755 -19.425,3.919 0,2.165 8.697,3.92 19.425,3.92 C -8.697,3.92 0,2.165 0,0"
         style="fill:#5f5e60;fill-opacity:1;fill-rule:nonzero;stroke:none"
         id="path24850" />
    </g>
    <g
       id="g24852"
       transform="matrix(0.35277777,0,0,-0.35277777,36.934133,251.36316)">
      <path
         d="m 0,0 c 0,-1.97 -7.917,-3.566 -17.683,-3.566 -9.765,0 -17.681,1.596 -17.681,3.566 0,1.971 7.916,3.568 17.681,3.568 C -7.917,3.568 0,1.971 0,0"
         style="fill:#525253;fill-opacity:1;fill-rule:nonzero;stroke:none"
         id="path24854" />
    </g>
    <g
       id="g24856"
       transform="matrix(0.35277777,0,0,-0.35277777,36.319213,251.36316)">
      <path
         d="m 0,0 c 0,-1.775 -7.136,-3.215 -15.939,-3.215 -8.803,0 -15.939,1.44 -15.939,3.215 0,1.776 7.136,3.217 15.939,3.217 C -7.136,3.217 0,1.776 0,0"
         style="fill:#464547;fill-opacity:1;fill-rule:nonzero;stroke:none"
         id="path24858" />
    </g>
    <g
       id="g24860"
       transform="matrix(0.35277777,0,0,-0.35277777,35.704243,251.36316)">
      <path
         d="m 0,0 c 0,-1.581 -6.355,-2.863 -14.196,-2.863 -7.84,0 -14.196,1.282 -14.196,2.863 0,1.582 6.356,2.864 14.196,2.864 C -6.355,2.864 0,1.582 0,0"
         style="fill:#39393a;fill-opacity:1;fill-rule:nonzero;stroke:none"
         id="path24862" />
    </g>
    <g
       id="g24864"
       transform="matrix(0.35277777,0,0,-0.35277777,35.088933,251.36316)">
      <path
         d="m 0,0 c 0,-1.387 -5.574,-2.512 -12.452,-2.512 -6.877,0 -12.451,1.125 -12.451,2.512 0,1.388 5.574,2.513 12.451,2.513 C -5.574,2.513 0,1.388 0,0"
         style="fill:#2d2c2e;fill-opacity:1;fill-rule:nonzero;stroke:none"
         id="path24866" />
    </g>
    <g
       id="g24868"
       transform="matrix(0.35277777,0,0,-0.35277777,34.474013,251.36316)">
      <path
         d="m 0,0 c 0,-1.193 -4.794,-2.16 -10.709,-2.16 -5.914,0 -10.708,0.967 -10.708,2.16 0,1.194 4.794,2.161 10.708,2.161 C -4.794,2.161 0,1.194 0,0"
         style="fill:#202021;fill-opacity:1;fill-rule:nonzero;stroke:none"
         id="path24870" />
    </g>
    <g
       id="g24872"
       transform="matrix(0.35277777,0,0,-0.35277777,33.859043,251.36316)">
      <path
         d="m 0,0 c 0,-0.999 -4.014,-1.809 -8.966,-1.809 -4.951,0 -8.965,0.81 -8.965,1.809 0,1 4.014,1.81 8.965,1.81 C -4.014,1.81 0,1 0,0"
         style="fill:#141315;fill-opacity:1;fill-rule:nonzero;stroke:none"
         id="path24874" />
    </g>
    <g
       id="g24876"
       transform="matrix(0.35277777,0,0,-0.35277777,-438.85109,812.35537)">
      <g
         id="g24878"
         clip-path="url(#clipPath24882)">
        <g
           id="g24884">
          <g
             id="g24886">
            <path
               d="m 1360.083,1626.013 c -9.69,-9.121 -17.658,-13.367 -17.711,-13.398 v 0 c 0,0 -0.01,0 -0.013,10e-4 v 0 c -0.817,-1.071 -2.577,-3.187 -5.646,-6.058 v 0 c 0.01,0 0.019,-10e-4 0.024,0 v 0 c 0.037,0.024 8.966,3.844 19.706,13.334 v 0 c 11.365,10.05 26.891,27.357 33.63,53.205 v 0 c -5.848,-21.112 -19.643,-37.339 -29.99,-47.082"
               style="fill:url(#linearGradient24930);stroke:none"
               id="path24906-7" />
          </g>
        </g>
      </g>
    </g>
    <g
       id="g24908"
       transform="matrix(0.35277777,0,0,-0.35277777,-438.85109,812.35537)">
      <g
         id="g24910"
         clip-path="url(#clipPath24914)">
        <g
           id="g24916">
          <g
             id="g24918">
            <path
               d="m 1375.119,1644.588 c -13.114,-16.936 -31.16,-28.021 -31.807,-28.415 v 0 -10e-4 c -0.096,-0.587 -0.347,-1.844 -0.94,-3.557 v 0 c 0.053,0.031 8.021,4.277 17.711,13.398 v 0 c 10.347,9.743 24.142,25.97 29.99,47.082 v 0 l 0.01,0.031 c -2.815,-9.619 -7.512,-18.893 -14.961,-28.538"
               style="fill:url(#linearGradient24960);stroke:none"
               id="path24936" />
          </g>
        </g>
      </g>
    </g>
    <g
       id="g24938"
       transform="matrix(0.35277777,0,0,-0.35277777,-438.85109,812.35537)">
      <g
         id="g24940"
         clip-path="url(#clipPath24944)">
        <g
           id="g24946"
           transform="translate(1304.2793,1791.14)">
          <path
             d="m 0,0 c -33.598,1.012 -45.534,-1.13 -67.416,-5.29 0,0 13.202,-59.948 15.855,-71.981 3.953,-17.903 11.746,-32.129 21.108,-43.332 9.361,-11.204 21.693,-20.913 32.334,-27.401 18.63,-11.323 34.09,-13.39 34.09,-13.39 0.035,0.024 13.037,7.589 25.018,23.663 12.287,16.522 21.012,38.323 13.782,68.627 C 72.334,-58.911 60.176,-8.048 60.176,-8.048 41.786,-3.507 30.93,-0.935 0,0"
             style="fill:#1c0f96;fill-opacity:1;fill-rule:nonzero;stroke:none"
             id="path24948" />
        </g>
      </g>
    </g>
    <g
       id="g24950"
       transform="matrix(0.35277777,0,0,-0.35277777,-438.85109,812.35537)">
      <g
         id="g24952"
         clip-path="url(#clipPath24956)">
        <g
           id="g24958">
          <g
             id="g24960">
            <path
               d="m 1236.864,1785.85 c 0,0 13.202,-59.948 15.855,-71.982 v 0 c 3.952,-17.902 11.745,-32.128 21.107,-43.33 v 0 c 9.362,-11.204 21.693,-20.914 32.334,-27.402 v 0 c 18.63,-11.323 34.09,-13.39 34.09,-13.39 v 0 c 0.035,0.024 13.037,7.589 25.018,23.663 v 0 c 12.287,16.522 21.012,38.323 13.782,68.627 v 0 c -2.437,10.193 -14.595,61.056 -14.595,61.056 v 0 c -18.39,4.541 -29.246,7.113 -60.176,8.048 v 0 c -5.553,0.168 -10.517,0.249 -15.029,0.249 v 0 c -22.788,0 -34.121,-2.067 -52.386,-5.539 m 27.52,-89.697 c -9.873,19.183 -23.666,74.279 -27.517,89.697 v 0 c 8.485,1.16 54.531,5.532 83.563,0.746 v 0 c 22.235,-27.489 40.819,-75.359 19.828,-156.844 v 0 c -46.692,18.256 -68.528,54.202 -75.874,66.401"
               style="fill:url(#linearGradient25002);stroke:none"
               id="path24978" />
          </g>
        </g>
      </g>
    </g>
    <g
       id="g24980"
       transform="matrix(0.35277777,0,0,-0.35277777,-438.85109,812.35537)">
      <g
         id="g24982"
         clip-path="url(#clipPath24986)">
        <g
           id="g24988">
          <g
             id="g24990">
            <path
               d="m 1236.867,1785.85 c 3.851,-15.418 17.644,-70.514 27.517,-89.697 v 0 c 7.346,-12.199 29.182,-48.145 75.874,-66.401 v 0 c 20.991,81.485 2.407,129.355 -19.828,156.844 v 0 c -9.836,1.622 -21.629,2.192 -33.249,2.192 v 0 c -22.676,10e-4 -44.703,-2.171 -50.314,-2.938"
               style="fill:url(#linearGradient25034);stroke:none"
               id="path25010-2" />
          </g>
        </g>
      </g>
    </g>
    <g
       id="g25012"
       transform="matrix(0.35277777,0,0,-0.35277777,-438.85109,812.35537)">
      <g
         id="g25014"
         clip-path="url(#clipPath25018)">
        <g
           id="g25020">
          <g
             id="g25022">
            <path
               d="m 1276.731,1717.197 c -5.293,-5.498 -10.005,-11.29 -14.137,-17.276 v 0 c 0.608,-1.37 1.206,-2.634 1.79,-3.768 v 0 c 7.346,-12.199 29.182,-48.145 75.874,-66.401 v 0 c 14.283,55.443 10.241,95.318 -0.803,123.805 v 0 c -21.94,-4.847 -44.252,-17.173 -62.724,-36.36"
               style="fill:url(#linearGradient25070);stroke:none"
               id="path25046" />
          </g>
        </g>
      </g>
    </g>
    <g
       id="g25048"
       transform="matrix(0.35277777,0,0,-0.35277777,-438.85109,812.35537)">
      <g
         id="g25050"
         clip-path="url(#clipPath25054)">
        <g
           id="g25056">
          <g
             id="g25058">
            <path
               d="m 1339.455,1753.557 c 11.044,-28.487 15.086,-68.362 0.803,-123.805 v 0 l -0.01,-0.01 c 0.035,0.024 13.037,7.589 25.018,23.663 v 0 c 12.287,16.522 21.012,38.323 13.782,68.627 v 0 c -1.184,4.952 -4.664,19.507 -7.928,33.164 v 0 c -3.556,0.463 -7.187,0.694 -10.868,0.694 v 0 c -6.803,0 -13.782,-0.786 -20.799,-2.337"
               style="fill:url(#linearGradient25100);stroke:none"
               id="path25076" />
          </g>
        </g>
      </g>
    </g>
    <g
       id="g25078"
       transform="matrix(0.35277777,0,0,-0.35277777,-438.85109,812.35537)">
      <g
         id="g25080"
         clip-path="url(#clipPath25084)">
        <g
           id="g25086">
          <g
             id="g25088">
            <path
               d="m 1230.164,1800.464 c -4.098,-0.695 -8.238,-1.397 -12.419,-2.116 v 0 c 0,0 0,-0.01 0,-0.01 v 0 l 14.279,-9.333 c -10e-4,0 -10e-4,0 0,0.01 v 0 c 1.044,0.196 2.086,0.389 3.124,0.578 v 0 c 21.369,3.957 33.716,6.243 68.326,5.041 v 0 c 31.823,-1.107 43.009,-3.907 60.871,-8.398 v 0 c 0.824,-0.204 1.645,-0.411 2.465,-0.619 v 0 l 6.715,7.19 v 0 c -3.14,0.825 -6.305,1.658 -9.498,2.493 v 0 c -18.434,4.84 -29.988,7.867 -62.881,9.439 v 0 c -8.436,0.4 -15.599,0.585 -21.911,0.585 v 0 c -20.525,0 -32.043,-1.96 -49.071,-4.86"
               style="fill:url(#linearGradient25134);stroke:none"
               id="path25110" />
          </g>
        </g>
      </g>
    </g>
    <g
       id="g25112"
       transform="matrix(0.35277777,0,0,-0.35277777,-438.85109,812.35537)">
      <g
         id="g25114"
         clip-path="url(#clipPath25118)">
        <g
           id="g25120">
          <g
             id="g25122">
            <path
               d="m 1364.459,1783.08 c 0.118,-0.496 12.166,-50.901 14.591,-61.044 v 0 c 7.23,-30.304 -1.495,-52.105 -13.782,-68.627 v 0 c -11.93,-16.007 -24.863,-23.575 -25.013,-23.658 v 0 c 0.25,-1.178 0.508,-2.349 0.762,-3.518 v 0 c 0,0 0.01,-10e-4 0.01,-10e-4 v 0 c 0,0 14.524,8.609 26.777,24.895 v 0 c 7.832,10.435 12.555,20.392 14.947,30.648 v 0 c 2.931,12.609 2.662,26.169 -0.758,40.451 v 0 c -5.091,21.26 -10.152,42.39 -15.178,63.388 v 0 l -2.354,-2.534 z"
               style="fill:url(#linearGradient25160);stroke:none"
               id="path25136" />
          </g>
        </g>
      </g>
    </g>
    <g
       id="g25138"
       transform="matrix(0.35277777,0,0,-0.35277777,-438.85109,812.35537)">
      <g
         id="g25140"
         clip-path="url(#clipPath25144-2)">
        <g
           id="g25146">
          <g
             id="g25148">
            <path
               d="m 1232.024,1789.013 c 5.483,-24.951 11.001,-50.088 16.565,-75.411 v 0 c 3.745,-17.039 11.313,-32.438 22.352,-45.557 v 0 c 8.697,-10.33 20.812,-20.429 33.716,-28.114 v 0 c 18.932,-11.251 36.036,-13.651 36.36,-13.698 v 0 c -0.254,1.169 -0.512,2.34 -0.762,3.518 v 0 c 0,-10e-4 -0.01,0 -0.01,0 v 0 c 0,0 -15.46,2.067 -34.09,13.39 v 0 c -10.641,6.488 -22.972,16.198 -32.334,27.402 v 0 c -9.362,11.202 -17.155,25.428 -21.107,43.33 v 0 c -2.653,12.034 -15.855,71.982 -15.855,71.982 v 0 0 l -4.838,3.164 c 0,-10e-4 0,-10e-4 -0.01,-10e-4"
               style="fill:url(#linearGradient25190);stroke:none"
               id="path25166" />
          </g>
        </g>
      </g>
    </g>
    <g
       id="g25168"
       transform="matrix(0.35277777,0,0,-0.35277777,-438.85109,812.35537)">
      <g
         id="g25170"
         clip-path="url(#clipPath25174)">
        <g
           id="g25176">
          <g
             id="g25178">
            <path
               d="m 1235.148,1789.591 c -1.037,-0.189 -2.078,-0.382 -3.119,-0.577 v 0 l 4.838,-3.164 c 21.879,4.16 33.817,6.302 67.412,5.29 v 0 c 30.93,-0.935 41.786,-3.507 60.176,-8.048 v 0 c 0,0 0,-0.01 0,-0.012 v 0 l 2.354,2.534 c 0,0 0,0 0,10e-4 v 0 c -0.82,0.208 -1.642,0.415 -2.466,0.619 v 0 c -17.862,4.491 -29.048,7.291 -60.871,8.398 v 0 c -6.255,0.217 -11.786,0.321 -16.771,0.321 v 0 c -22.6,0 -34.048,-2.12 -51.555,-5.362"
               style="fill:url(#linearGradient25220);stroke:none"
               id="path25196" />
          </g>
        </g>
      </g>
    </g>
    <g
       id="g25198"
       transform="matrix(0.35277777,0,0,-0.35277777,-438.85109,812.35537)">
      <g
         id="g25200"
         clip-path="url(#clipPath25204)">
        <g
           id="g25206">
          <g
             id="g25208">
            <path
               d="m 1372.135,1750.958 c 2.945,-12.314 5.853,-24.48 6.915,-28.922 v 0 c 7.23,-30.304 -1.495,-52.105 -13.782,-68.627 v 0 c -11.9,-15.966 -24.795,-23.535 -25.01,-23.657 v 0 c 0,0 0,-10e-4 0,-10e-4 v 0 c 0.25,-1.178 0.508,-2.349 0.762,-3.518 v 0 c 0,-10e-4 0.01,-10e-4 0.01,-10e-4 v 0 c 0,0 14.524,8.609 26.777,24.895 v 0 c 7.832,10.435 12.555,20.392 14.947,30.648 v 0 c 2.931,12.609 2.662,26.169 -0.758,40.451 v 0 c -2.6,10.855 -5.19,21.676 -7.773,32.463 v 0 c -1.001,0.064 -2.004,0.118 -3.012,0.159 v 0 c 0.309,-1.292 0.62,-2.591 0.929,-3.89"
               style="fill:url(#linearGradient25250);stroke:none"
               id="path25226" />
          </g>
        </g>
      </g>
    </g>
    <g
       id="g25228"
       transform="matrix(0.35277777,0,0,-0.35277777,-438.85109,812.35537)">
      <g
         id="g25230"
         clip-path="url(#clipPath25234)">
        <g
           id="g25236">
          <g
             id="g25238">
            <path
               d="m 1256.313,1690.846 c 3.857,-8.183 8.75,-15.815 14.628,-22.801 v 0 c 8.697,-10.33 20.812,-20.429 33.716,-28.114 v 0 c 18.573,-11.037 35.384,-13.555 36.321,-13.691 v 0 c 0.017,0 0.027,0 0.035,-0.01 v 0 c 0,0 0,-10e-4 0,-10e-4 v 0 c -0.254,1.169 -0.512,2.34 -0.762,3.518 v 0 c 0,-10e-4 -0.01,0 -0.01,0 v 0 c 0,0 -15.46,2.067 -34.09,13.39 v 0 c -10.641,6.488 -22.972,16.198 -32.334,27.402 v 0 c -5.842,6.99 -11.072,15.157 -15.141,24.66 v 0 c -0.822,-1.433 -1.615,-2.882 -2.372,-4.352"
               style="fill:url(#linearGradient25284);stroke:none"
               id="path25260" />
          </g>
        </g>
      </g>
    </g>
    <g
       id="g25262"
       transform="matrix(0.35277777,0,0,-0.35277777,-438.85109,812.35537)">
      <g
         id="g25264"
         clip-path="url(#clipPath25268)">
        <g
           id="g25270">
          <g
             id="g25272">
            <path
               d="m 1366.81,1785.615 h 10e-4 c 5.028,-20.999 10.089,-42.128 15.18,-63.389 v 0 c 3.42,-14.282 3.689,-27.842 0.758,-40.451 v 0 c -2.392,-10.256 -7.115,-20.213 -14.947,-30.648 v 0 c -12.253,-16.286 -26.777,-24.895 -26.777,-24.895 v 0 c 0,0 0,10e-4 -0.012,0 v 0 c 0.756,-3.377 1.511,-6.734 2.279,-10.073 v 0 c 0,0 18.473,11.179 31.827,28.427 v 0 c 8.753,11.335 13.674,22.104 16.238,33.473 v 0 c 3.157,14.015 2.807,28.995 -0.972,44.707 v 0 c -5.659,23.507 -11.279,46.852 -16.86,70.037 v 0 l -6.715,-7.19 z"
               style="fill:url(#linearGradient25324);stroke:none"
               id="path25300" />
          </g>
        </g>
      </g>
    </g>
    <g
       id="g25302"
       transform="matrix(0.35277777,0,0,-0.35277777,-438.85109,812.35537)">
      <g
         id="g25304"
         clip-path="url(#clipPath25308)">
        <g
           id="g25310">
          <g
             id="g25312">
            <path
               d="m 1236.379,1712.813 c 4.199,-19.256 12.826,-36.693 25.456,-51.554 v 0 c 9.888,-11.618 23.662,-22.401 38.322,-30.562 v 0 c 20.971,-11.641 43.135,-14.536 43.135,-14.536 v 0 c -0.768,3.339 -1.523,6.696 -2.279,10.073 v 0 c -0.48,0.066 -17.511,2.494 -36.356,13.697 v 0 c -12.904,7.685 -25.019,17.784 -33.716,28.114 v 0 c -11.039,13.119 -18.607,28.518 -22.352,45.557 v 0 c -5.564,25.32 -11.081,50.455 -16.563,75.404 v 0 l -14.279,9.333 c 6.159,-28.27 12.369,-56.778 18.632,-85.526"
               style="fill:url(#linearGradient25362);stroke:none"
               id="path25338" />
          </g>
        </g>
      </g>
    </g>
    <g
       id="g25340"
       transform="matrix(0.35277777,0,0,-0.35277777,-438.85109,812.35537)">
      <g
         id="g25342"
         clip-path="url(#clipPath25346)">
        <g
           id="g25348">
          <g
             id="g25350">
            <path
               d="m 1250.427,1677.169 c 3.336,-5.576 7.143,-10.891 11.408,-15.91 v 0 c 9.888,-11.618 23.662,-22.401 38.322,-30.562 v 0 c 1.639,-0.909 3.284,-1.765 4.927,-2.571 v 0 c 19.044,-9.345 37.569,-11.88 38.192,-11.963 v 0 c 0.011,0 0.016,0 0.016,0 v 0 c -0.768,3.339 -1.523,6.696 -2.279,10.073 v 0 c -0.01,0 -0.018,0 -0.035,0.01 v 0 c -0.976,0.138 -17.77,2.664 -36.321,13.691 v 0 c -12.904,7.685 -25.019,17.784 -33.716,28.114 v 0 c -5.878,6.986 -10.771,14.618 -14.628,22.801 v 0 c -2.271,-4.407 -4.237,-8.976 -5.886,-13.677"
               style="fill:url(#linearGradient25396);stroke:none"
               id="path25372" />
          </g>
        </g>
      </g>
    </g>
    <g
       id="g25374"
       transform="matrix(0.35277777,0,0,-0.35277777,-438.85109,812.35537)">
      <g
         id="g25376"
         clip-path="url(#clipPath25380)">
        <g
           id="g25382">
          <g
             id="g25384">
            <path
               d="m 1381.991,1722.226 c 3.42,-14.282 3.689,-27.842 0.758,-40.451 v 0 c -2.392,-10.256 -7.115,-20.213 -14.947,-30.648 v 0 c -12.253,-16.286 -26.777,-24.895 -26.777,-24.895 v 0 c 0,0 0,10e-4 -0.012,0 v 0 c 0.756,-3.377 1.511,-6.734 2.279,-10.073 v 0 c 0,0 18.473,11.179 31.827,28.427 v 0 c 8.715,11.284 13.664,22.058 16.238,33.473 v 0 c 3.157,14.015 2.807,28.995 -0.972,44.707 v 0 c -2.5,10.389 -4.993,20.74 -7.479,31.066 v 0 c -2.866,0.379 -5.763,0.666 -8.688,0.855 v 0 c 2.583,-10.787 5.174,-21.608 7.773,-32.463"
               style="fill:url(#linearGradient25430);stroke:none"
               id="path25406" />
          </g>
        </g>
      </g>
    </g>
    <g
       id="g25408"
       transform="matrix(0.35277777,0,0,-0.35277777,-438.85109,812.35537)">
      <g
         id="g25410"
         clip-path="url(#clipPath25414)">
        <g
           id="g25416">
          <g
             id="g25418">
            <path
               d="m 1231.654,1712.507 c 4.366,-20.116 13.411,-38.339 26.662,-53.869 v 0 c 10.35,-12.115 24.691,-23.103 40.069,-31.443 v 0 c 21.569,-11.664 43.618,-14.534 43.987,-14.58 v 0 c 0.593,1.713 0.844,2.97 0.94,3.557 v 0 c -0.012,-0.01 -0.02,-0.011 -0.02,-0.011 v 0 c 0,0 -22.164,2.895 -43.135,14.536 v 0 c -14.66,8.161 -28.434,18.944 -38.322,30.562 v 0 c -12.63,14.861 -21.257,32.298 -25.456,51.554 v 0 c -6.263,28.748 -12.473,57.255 -18.632,85.525 v 0 l -5.04,1.421 c 6.419,-29.553 12.413,-57.175 18.947,-87.252"
               style="fill:url(#linearGradient25464);stroke:none"
               id="path25440" />
          </g>
        </g>
      </g>
    </g>
    <g
       id="g25442"
       transform="matrix(0.35277777,0,0,-0.35277777,-438.85109,812.35537)">
      <g
         id="g25444"
         clip-path="url(#clipPath25448)">
        <g
           id="g25450">
          <g
             id="g25452">
            <path
               d="m 1212.706,1799.761 c 0,0 0,-10e-4 0,0 v 0 l 5.04,-1.421 c 0,0 0,0.01 0,0.01 v 0 c 4.181,0.719 8.321,1.421 12.419,2.116 v 0 c 22.264,3.792 35.109,5.976 70.982,4.275 v 0 c 32.893,-1.572 44.447,-4.599 62.881,-9.439 v 0 c 3.193,-0.835 6.358,-1.668 9.498,-2.493 v 0 c -24.896,9.149 -56.535,14.558 -90.724,14.559 v 0 c -22.65,0 -46.415,-2.373 -70.095,-7.605"
               style="fill:url(#linearGradient25490);stroke:none"
               id="path25466" />
          </g>
        </g>
      </g>
    </g>
    <g
       id="g25468"
       transform="matrix(0.35277777,0,0,-0.35277777,-438.85109,812.35537)">
      <g
         id="g25470"
         clip-path="url(#clipPath25474-8)">
        <g
           id="g25476">
          <g
             id="g25478">
            <path
               d="m 1248.643,1671.596 c 2.921,-4.5 6.147,-8.825 9.673,-12.958 v 0 c 10.35,-12.115 24.691,-23.103 40.069,-31.443 v 0 c 21.569,-11.664 43.618,-14.534 43.987,-14.58 v 0 c 0.593,1.713 0.844,2.97 0.94,3.557 v 0 c -0.012,-0.01 -0.02,-0.011 -0.02,-0.011 v 0 c 0,0 0,0 -0.016,0 v 0 c -0.623,0.083 -19.148,2.618 -38.192,11.963 v 0 c -1.643,0.806 -3.288,1.662 -4.927,2.571 v 0 c -14.66,8.161 -28.434,18.944 -38.322,30.562 v 0 c -4.265,5.019 -8.072,10.334 -11.408,15.91 v 0 c -0.645,-1.838 -1.24,-3.695 -1.784,-5.573"
               style="fill:url(#linearGradient25524);stroke:none"
               id="path25500" />
          </g>
        </g>
      </g>
    </g>
    <g
       id="g25502"
       transform="matrix(0.35277777,0,0,-0.35277777,-438.85109,812.35537)">
      <g
         id="g25504"
         clip-path="url(#clipPath25508)">
        <g
           id="g25510">
          <g
             id="g25512">
            <path
               d="m 1205.744,1787.132 17.627,-81.106 c 4.368,-20.116 13.413,-38.339 26.663,-53.869 v 0 c 10.349,-12.116 24.043,-22.533 40.142,-30.857 v 0 c 22.041,-11.36 45.68,-14.63 46.537,-14.74 v 0 c 3.069,2.869 4.829,4.985 5.646,6.055 v 0 c -0.617,0.078 -22.526,2.98 -43.974,14.58 v 0 c -15.378,8.34 -29.719,19.328 -40.069,31.443 v 0 c -13.251,15.53 -22.296,33.753 -26.662,53.869 v 0 c -6.534,30.077 -12.528,57.7 -18.948,87.254 v 0 z"
               style="fill:url(#linearGradient25564);stroke:none"
               id="path25540" />
          </g>
        </g>
      </g>
    </g>
    <g
       id="g25542"
       transform="matrix(0.35277777,0,0,-0.35277777,-438.85109,812.35537)">
      <g
         id="g25544"
         clip-path="url(#clipPath25548)">
        <g
           id="g25550">
          <g
             id="g25552">
            <path
               d="m 1236.864,1785.85 c 0,0 13.202,-59.948 15.855,-71.982 v 0 c 3.952,-17.902 11.745,-32.128 21.107,-43.33 v 0 c 9.362,-11.204 21.693,-20.914 32.334,-27.402 v 0 c 18.63,-11.323 34.09,-13.39 34.09,-13.39 v 0 l 0.01,0.01 c -46.692,18.256 -68.528,54.202 -75.874,66.401 v 0 c -9.873,19.183 -23.666,74.279 -27.517,89.697 v 0 0 z"
               style="fill:url(#linearGradient25592);stroke:none"
               id="path25568" />
          </g>
        </g>
      </g>
    </g>
    <g
       id="g25570"
       transform="matrix(0.35277777,0,0,-0.35277777,-438.85109,812.35537)">
      <g
         id="g25572"
         clip-path="url(#clipPath25576)">
        <g
           id="g25578">
          <g
             id="g25580">
            <path
               d="m 1259.011,1694.453 c 4.02,-9.185 9.127,-17.109 14.815,-23.915 v 0 c 9.362,-11.204 21.693,-20.914 32.334,-27.402 v 0 c 18.63,-11.323 34.09,-13.39 34.09,-13.39 v 0 l 0.01,0.01 c -46.692,18.256 -68.528,54.202 -75.874,66.401 v 0 c -0.584,1.134 -1.182,2.398 -1.79,3.768 v 0 c -1.247,-1.806 -2.443,-3.63 -3.583,-5.468"
               style="fill:url(#linearGradient25624);stroke:none"
               id="path25600-7" />
          </g>
        </g>
      </g>
    </g>
  </g>
</svg>
