<?xml version="1.0" encoding="UTF-8" standalone="no"?>
<svg
   xmlns:dc="http://purl.org/dc/elements/1.1/"
   xmlns:cc="http://creativecommons.org/ns#"
   xmlns:rdf="http://www.w3.org/1999/02/22-rdf-syntax-ns#"
   xmlns:svg="http://www.w3.org/2000/svg"
   xmlns="http://www.w3.org/2000/svg"
   xmlns:sodipodi="http://sodipodi.sourceforge.net/DTD/sodipodi-0.dtd"
   xmlns:inkscape="http://www.inkscape.org/namespaces/inkscape"
   version="1.1"
   id="svg2"
   xml:space="preserve"
   width="1059.7051"
   height="315.9472"
   viewBox="0 0 1059.7051 315.9472"
   sodipodi:docname="Imagotipo vectorial_ COMSEG.svg"
   inkscape:version="1.0.1 (3bc2e813f5, 2020-09-07)"><metadata
     id="metadata8"><rdf:RDF><cc:Work
         rdf:about=""><dc:format>image/svg+xml</dc:format><dc:type
           rdf:resource="http://purl.org/dc/dcmitype/StillImage" /><dc:title></dc:title></cc:Work></rdf:RDF></metadata><defs
     id="defs6"><clipPath
       clipPathUnits="userSpaceOnUse"
       id="clipPath20"><path
         d="M 0,612 H 792 V 0 H 0 Z"
         id="path18" /></clipPath></defs><sodipodi:namedview
     pagecolor="#ffffff"
     bordercolor="#666666"
     borderopacity="1"
     objecttolerance="10"
     gridtolerance="10"
     guidetolerance="10"
     inkscape:pageopacity="0"
     inkscape:pageshadow="2"
     inkscape:window-width="1366"
     inkscape:window-height="704"
     id="namedview4"
     showgrid="false"
     inkscape:zoom="0.65378181"
     inkscape:cx="1019.2224"
     inkscape:cy="442.28105"
     inkscape:window-x="1920"
     inkscape:window-y="0"
     inkscape:window-maximized="1"
     inkscape:current-layer="g10"
     fit-margin-top="0"
     fit-margin-left="0"
     fit-margin-right="0"
     fit-margin-bottom="0" /><g
     id="g10"
     inkscape:groupmode="layer"
     inkscape:label="Imagotipo vectorial_ COMSEG"
     transform="matrix(1.3333333,0,0,-1.3333333,0.36108399,599.43333)"
     style="display:inline"><path
       d="m -11.921178,203.4111 814.037388,-0.88799 -0.84426,253.90641 -813.252739,-0.97884 z"
       style="fill:#0047bb;fill-opacity:1;fill-rule:nonzero;stroke:none"
       id="path12"
       sodipodi:nodetypes="ccccc" /><g
       id="g14"><g
         id="g16"
         clip-path="url(#clipPath20)"><g
           id="g22"
           transform="translate(497.206,273.1357)"><path
             d="M 0,0 0.057,-0.362 C 2.051,-12.88 13.04,-20.97 28.047,-20.97 c 15.4,0 25.747,8.17 25.747,20.334 0,13.882 -11.019,16.715 -25.427,18.979 -12.085,1.908 -16.372,3.472 -16.372,8.466 0,5.254 6.368,9.211 14.817,9.211 8.116,0 13.932,-3.732 15.557,-9.98 l 0.06,-0.236 h 9.967 l -0.05,0.355 c -1.638,11.752 -11.182,18.77 -25.534,18.77 -16.925,0 -24.635,-9.585 -24.635,-18.487 0,-11.698 9.009,-15.276 24.569,-17.506 14.8,-1.985 17.607,-5.115 17.607,-10.188 0,-5.312 -5.6,-10.689 -16.306,-10.689 -9.201,0 -16.452,4.701 -18.043,11.698 L 9.951,0 Z"
             style="fill:#ffffff;fill-opacity:1;fill-rule:nonzero;stroke:none"
             id="path24" /></g><g
           id="g26"
           transform="translate(630.1552,244.4023)"><path
             d="m 0,0 0.196,-0.442 c 5.344,-12.009 17.298,-19.765 30.454,-19.765 18.357,0 33.294,14.864 33.294,33.134 v 27.787 c 0,18.269 -14.937,33.131 -33.294,33.131 -18.359,0 -33.293,-14.862 -33.293,-33.131 0,-18.273 14.934,-33.137 33.293,-33.137 8.706,0 16.949,3.342 23.214,9.414 l 1.002,0.969 v -5.033 c 0,-13.29 -10.863,-24.103 -24.216,-24.103 -8.233,0 -15.833,4.125 -20.333,11.032 L 10.224,0 Z m 30.65,16.612 c -13.356,0 -24.218,10.809 -24.218,24.102 0,13.29 10.862,24.099 24.218,24.099 13.353,0 24.216,-10.809 24.216,-24.099 0,-13.293 -10.863,-24.102 -24.216,-24.102"
             style="fill:#ffffff;fill-opacity:1;fill-rule:nonzero;stroke:none"
             id="path28" /></g><g
           id="g30"
           transform="translate(589.1762,318.248)"><path
             d="m 0,0 c -18.356,0 -33.293,-14.864 -33.293,-33.134 0,-18.269 14.937,-33.134 33.293,-33.134 13.616,0 26.086,8.502 31.034,21.16 l 0.169,0.429 H 21.25 l -0.094,-0.163 C 16.872,-52.485 8.762,-57.236 0,-57.236 c -12.224,0 -22.557,9.108 -24.032,21.186 l -0.08,0.658 h 57.326 l 0.016,0.297 c 0.041,0.716 0.061,1.359 0.061,1.961 C 33.291,-14.864 18.356,0 0,0 m 23.307,-26.549 h -46.613 l 0.246,0.769 c 3.226,10.017 12.491,16.748 23.06,16.748 10.566,0 19.834,-6.731 23.061,-16.748 z"
             style="fill:#ffffff;fill-opacity:1;fill-rule:nonzero;stroke:none"
             id="path32" /></g><g
           id="g34"
           transform="translate(481.6259,253.9258)"><path
             d="m 0,0 h 9.038 v 39.975 c 0,13.459 -11.002,24.408 -24.521,24.408 -7.614,0 -14.914,-3.615 -19.529,-9.667 l -0.469,-0.616 -0.473,0.616 c -4.617,6.052 -11.918,9.667 -19.527,9.667 -13.523,0 -24.522,-10.949 -24.522,-24.408 V 0 h 9.038 v 39.975 c 0,8.499 6.944,15.413 15.484,15.413 8.432,0 15.376,-6.804 15.48,-15.163 l -0.007,-0.26 c 0,-0.043 0.003,-0.097 0.009,-0.15 V 0 h 9.042 l -0.006,40.135 c 0.103,8.423 7.047,15.253 15.48,15.253 C -6.948,55.388 0,48.474 0,39.975 Z"
             style="fill:#ffffff;fill-opacity:1;fill-rule:nonzero;stroke:none"
             id="path36" /></g><g
           id="g38"
           transform="translate(303.9657,318.248)"><path
             d="m 0,0 c -18.356,0 -33.293,-14.864 -33.293,-33.134 0,-18.269 14.937,-33.134 33.293,-33.134 8.676,0 16.852,3.295 23.094,9.291 l -6.415,6.385 C 12.154,-54.883 6.255,-57.236 0,-57.236 c -13.353,0 -24.215,10.812 -24.215,24.102 0,13.289 10.862,24.102 24.215,24.102 6.272,0 12.181,-2.364 16.712,-6.671 l 6.415,6.385 C 16.878,-3.306 8.689,0 0,0"
             style="fill:#ffffff;fill-opacity:1;fill-rule:nonzero;stroke:none"
             id="path40" /></g><g
           id="g42"
           transform="translate(362.1454,318.248)"><path
             d="m 0,0 c -18.356,0 -33.291,-14.864 -33.291,-33.134 0,-18.269 14.935,-33.134 33.291,-33.134 18.36,0 33.293,14.865 33.293,33.134 C 33.293,-14.864 18.36,0 0,0 m 0,-57.236 c -13.353,0 -24.215,10.812 -24.215,24.102 0,13.289 10.862,24.102 24.215,24.102 13.353,0 24.219,-10.813 24.219,-24.102 0,-13.29 -10.866,-24.102 -24.219,-24.102"
             style="fill:#ffffff;fill-opacity:1;fill-rule:nonzero;stroke:none"
             id="path44" /></g><g
           id="g46"
           transform="translate(262.6064,314.9448)"><path
             d="m 0,0 c 0,1.698 -1.388,3.08 -3.096,3.08 -1.708,0 -3.099,-1.382 -3.099,-3.08 0,-0.896 0.389,-1.694 1.002,-2.257 -3.359,-7.757 -8.372,-14.548 -14.615,-19.974 -0.456,-0.403 -0.921,-0.786 -1.388,-1.172 -5.246,-4.274 -11.279,-7.624 -17.877,-9.798 -5.785,-1.907 -11.761,-2.876 -17.767,-2.876 -8.762,0 -17.221,2.011 -25.154,5.972 -7.75,3.872 -14.351,9.352 -19.462,16.02 0.796,0.899 1.286,2.077 1.286,3.366 0,2.816 -2.301,5.103 -5.127,5.103 -0.49,0 -0.962,-0.073 -1.412,-0.2 -1.338,2.584 -2.49,5.287 -3.429,8.1 -4.727,14.185 -3.622,29.355 3.117,42.711 6.734,13.357 18.289,23.307 32.537,28.018 5.75,1.897 11.712,2.859 17.721,2.859 0.356,0 0.705,-0.023 1.058,-0.03 -21.435,-2.946 -38.014,-21.662 -38.014,-44.253 0,-24.634 19.708,-44.675 43.933,-44.675 17.005,0 31.483,8.965 38.727,23.982 l 0.267,0.556 -2.058,0.889 -0.25,-0.513 c -6.864,-14.225 -20.58,-22.717 -36.686,-22.717 -22.983,0 -41.679,19.055 -41.679,42.478 0,23.423 18.696,42.479 41.679,42.479 4.501,0 8.759,-0.61 12.711,-1.778 1.225,-0.459 2.606,-0.782 3.811,-1.332 l 0.49,-0.206 c 8.192,-3.485 14.764,-9.634 18.992,-17.993 -0.576,-0.487 -0.949,-1.199 -0.949,-2.005 0,-1.458 1.192,-2.643 2.657,-2.643 1.461,0 2.65,1.185 2.65,2.643 0,1.282 -0.926,2.354 -2.148,2.587 -5.013,10.164 -13.269,17.291 -23.622,20.677 -6.891,2.743 -14.132,4.134 -21.562,4.134 -6.263,0 -12.464,-1.002 -18.44,-2.983 -14.834,-4.897 -26.862,-15.25 -33.869,-29.148 -6.329,-12.551 -7.864,-26.633 -4.488,-40.108 -10.047,24.508 -4.824,53.514 14.777,73.025 12.754,12.694 29.725,19.685 47.792,19.685 2.933,0 5.876,-0.2 8.796,-0.58 0.083,-0.562 0.282,-1.105 0.625,-1.581 0.566,-0.785 1.405,-1.305 2.36,-1.461 0.2,-0.03 0.4,-0.047 0.593,-0.047 1.788,0 3.296,1.275 3.586,3.033 0.322,1.964 -1.022,3.828 -3.003,4.151 -1.592,0.26 -3.056,-0.542 -3.765,-1.847 -3.05,0.399 -6.129,0.609 -9.192,0.609 -18.406,0 -36.416,-7.417 -49.413,-20.354 -23.676,-23.569 -27.048,-60.528 -8.668,-87.817 -0.843,-0.908 -1.362,-2.117 -1.362,-3.448 0,-2.814 2.303,-5.101 5.13,-5.101 0.706,0 1.378,0.144 1.987,0.4 5.327,-6.961 12.208,-12.684 20.297,-16.722 8.25,-4.121 17.058,-6.212 26.177,-6.212 4.391,0 8.762,0.506 13.059,1.488 -9.634,-3.818 -19.984,-5.839 -30.557,-5.839 -22.108,0 -42.871,8.545 -58.464,24.063 -32.062,31.908 -32.205,83.735 -0.443,115.833 0.446,-0.21 0.939,-0.336 1.461,-0.336 1.895,0 3.436,1.535 3.436,3.422 0,1.888 -1.541,3.423 -3.436,3.423 -1.897,0 -3.439,-1.535 -3.439,-3.423 0,-0.536 0.134,-1.032 0.353,-1.485 -32.648,-32.983 -32.501,-86.251 0.447,-119.049 16.022,-15.947 37.358,-24.725 60.085,-24.725 20.291,0 39.812,7.188 55.149,20.268 0.126,0.102 0.247,0.209 0.37,0.316 0.253,0.216 0.509,0.433 0.758,0.655 l 0.456,0.404 -0.009,0.009 c 6.195,5.56 11.178,12.438 14.557,20.251 C -1.365,-3.056 0,-1.685 0,0"
             style="fill:#ffffff;fill-opacity:1;fill-rule:nonzero;stroke:none"
             id="path48" /></g></g></g><path
       style="fill:none;fill-opacity:1;stroke-width:1.52956"
       d="M 296.51666,327.80032 -14.366877,327.41053 V 159.92714 -7.5562235 l 476.076257,-0.00195 c 261.84195,-0.00107 505.50122,-0.4573007 541.46502,-1.0138425 l 65.3888,-1.0118945 V 159.68179 328.94748 L 837.9817,328.5688 C 711.16187,328.36052 467.5026,328.01472 296.51666,327.80032 Z M 900.96097,296.7202 c 9.1942,-4.32178 19.88339,-16.3364 23.07013,-25.93075 2.06878,-6.22854 2.43133,-12.74217 2.01942,-36.28158 -0.46272,-26.44266 -0.77659,-29.20433 -4.00652,-35.2539 -17.56245,-32.89398 -63.9653,-32.74682 -80.98222,0.25682 -5.91261,11.46729 -5.89634,27.38105 0.0404,39.47028 7.91636,16.12053 21.93081,24.78469 40.08969,24.78469 11.03349,0 22.40876,-3.72546 28.83265,-9.44286 2.86923,-2.55366 2.92342,-2.42073 2.19503,5.38423 -1.00064,10.72214 -6.85723,19.02817 -16.97008,24.06762 -13.0998,6.52789 -26.8593,4.05243 -36.90481,-6.63951 -3.68503,-3.92218 -5.67811,-4.78157 -11.08932,-4.78157 -7.13607,0 -7.74809,1.01357 -4.43303,7.34138 9.65511,18.42965 37.68721,26.63848 58.1387,17.02515 z M 425.60654,259.28177 c 11.74801,-5.70613 12.75022,-7.54516 7.15894,-13.13644 l -4.61338,-4.61338 -5.61163,3.80816 c -24.38188,16.54599 -57.31736,-9.85704 -46.02304,-36.89479 7.73721,-18.52233 30.14321,-25.91674 46.24433,-15.26151 l 6.06872,4.01608 4.28805,-4.47576 4.28807,-4.47578 -3.58736,-3.81857 c -4.74599,-5.05186 -18.22812,-9.96809 -27.33625,-9.96809 -13.3828,0 -22.76131,3.94159 -32.46341,13.64369 -12.81914,12.81914 -16.44521,26.8429 -11.36444,43.95175 7.96942,26.83592 37.47781,39.59744 62.9514,27.22464 z m 78.06118,-0.0261 c 15.65142,-7.60243 24.19401,-21.94792 24.07955,-40.4366 -0.0577,-9.31338 -0.83122,-12.9461 -4.11157,-19.3082 -20.9292,-40.59134 -81.66321,-28.94904 -84.89894,16.27456 -0.94698,13.23538 2.3438,23.3973 10.62255,32.80249 13.82003,15.70036 35.27237,19.91423 54.30841,10.66775 z m 298.60293,1.93581 c 8.37952,-3.59932 16.80845,-10.437 21.38719,-17.34967 2.62027,-3.95588 4.7641,-7.76279 4.7641,-8.45981 0,-0.69704 -3.31207,-1.26733 -7.36016,-1.26733 -6.39992,0 -7.80158,0.59705 -10.74356,4.57628 -6.56241,8.87614 -21.13653,13.74469 -32.21498,10.76157 -10.27863,-2.76774 -23.10029,-16.34749 -23.10029,-24.4661 0,-1.04333 13.03435,-1.57869 38.43611,-1.57869 h 38.43611 l -1.05696,-7.96778 c -4.04722,-30.50937 -32.80723,-48.44763 -60.84465,-37.95014 -11.34157,4.24639 -18.5783,10.78221 -24.03961,21.71125 -8.25964,16.52902 -5.81889,35.64322 6.31103,49.42355 10.01819,11.38126 22.96066,16.5486 37.78917,15.0875 4.54514,-0.44786 10.05156,-1.58215 12.2365,-2.52066 z m -84.33133,-0.38245 c 11.72671,-4.89975 17.17932,-13.06829 17.17932,-25.73626 0,-14.37594 -7.67969,-20.19668 -32.71438,-24.79544 -16.34769,-3.00302 -20.66542,-4.83949 -21.77534,-9.26175 -3.61364,-14.39791 29.73496,-17.4656 37.00641,-3.40416 1.98207,3.8329 3.12442,4.38244 9.11,4.38244 7.45302,0 8.09531,-1.06987 5.22038,-8.69541 -5.71151,-15.14927 -26.80303,-22.61701 -46.66262,-16.52154 -13.03092,3.99956 -19.36773,11.67945 -19.36773,23.47273 0,14.07186 7.43364,19.48486 32.82176,23.90004 16.40719,2.85333 22.59546,6.26026 22.59546,12.43986 0,8.18911 -13.92662,15.6066 -25.29703,13.47351 -7.01656,-1.31633 -14.73065,-6.59841 -17.23179,-11.79919 -1.727,-3.59107 -2.91005,-4.14919 -8.79498,-4.14919 -5.82412,0 -6.79957,0.44759 -6.79957,3.12006 0,8.51862 8.60414,18.59704 20.16274,23.61753 6.93009,3.0101 27.30071,2.98459 34.54737,-0.0433 z M 548.51204,233.30071 c 0,-31.92159 1.1195,-36.88486 9.46772,-41.97463 6.40005,-3.90199 14.36929,-3.941 20.66688,-0.10111 8.81162,5.37276 9.63402,8.89691 9.63402,41.28414 v 29.13763 h 6.88303 6.88303 V 232.5091 c 0,-32.38723 0.8224,-35.91139 9.63403,-41.28414 6.29759,-3.83988 14.26682,-3.80087 20.66688,0.1011 8.34821,5.08977 9.46771,10.05305 9.46771,41.97463 v 28.34605 h 6.88303 6.88303 l -0.0672,-29.44408 c -0.072,-31.57701 -0.97905,-36.74736 -8.07994,-46.0571 -10.23012,-13.4124 -32.54292,-15.34687 -46.9584,-4.07123 l -5.39471,4.2197 -5.05999,-4.22427 c -13.50331,-11.27306 -36.96891,-9.24368 -47.12817,4.0758 -7.10088,9.30974 -8.00793,14.48009 -8.07994,46.0571 l -0.0671,29.44408 h 6.88303 6.88303 z m -262.11891,1.08447 c 24.84339,-8.32331 45.01564,-23.21176 55.58788,-41.02755 2.92234,-4.92458 6.19178,-9.50422 7.26543,-10.17696 3.00084,-1.88035 2.31487,-6.86812 -1.09337,-7.94986 -4.27385,-1.35646 -6.13194,0.23895 -6.13194,5.26509 0,6.29022 -11.25774,22.21455 -21.24768,30.05531 -16.68211,13.09322 -41.07646,18.87654 -61.31458,14.53624 -18.37915,-3.94162 -44.42993,-21.86166 -42.16318,-29.00355 1.35386,-4.26564 -1.46038,-9.06399 -5.66639,-9.66128 -5.209,-0.73974 -10.20363,-16.70083 -10.27375,-32.83129 -0.0682,-15.70348 3.90104,-29.07651 12.41428,-41.82518 9.77369,-14.636217 27.93164,-27.378731 42.69161,-29.959248 5.07667,-0.887564 4.99188,-0.761603 -2.46256,3.658737 -21.78397,12.91746 -32.90661,38.892081 -27.58437,64.417631 4.0121,19.24217 15.27483,33.5802 33.01026,42.02376 9.05932,4.313 11.30036,4.73331 25.23778,4.73331 13.36632,0 16.39053,-0.51327 23.97612,-4.06926 4.77427,-2.23809 11.66861,-6.82361 15.32077,-10.19005 7.84953,-7.23544 14.36436,-17.89486 11.87666,-19.43233 -1.99428,-1.23255 -1.79783,-1.41253 -8.03719,7.36327 -11.25819,15.83489 -26.54673,23.17605 -46.19549,22.1819 -10.2646,-0.51935 -13.79452,-1.44962 -21.90475,-5.77268 -41.45293,-22.09601 -39.84476,-79.85707 2.78523,-100.038001 20.36587,-9.641155 45.05276,-4.967747 60.39371,11.43297 6.37257,6.812791 7.66473,9.135971 7.03448,12.647301 -0.35354,1.9698 3.04122,5.57486 5.24966,5.57486 4.4861,0 3.45898,-5.10946 -2.855,-14.20241 -11.56554,-16.655887 -28.64984,-25.377585 -52.30914,-26.704334 -24.99124,-1.401441 -43.50564,5.460323 -60.50905,22.425734 -15.01706,14.98349 -22.59909,32.16649 -22.9568,52.02661 -0.14134,7.84434 -0.43695,9.04095 -1.3486,5.45824 -1.79644,-7.05991 -1.71981,-27.22151 0.13781,-36.25182 2.70159,-13.13319 12.43955,-31.695371 21.66458,-41.296398 17.0141,-17.707521 36.69783,-26.825221 61.20227,-28.349501 11.32961,-0.704748 13.86238,-0.424323 16.32898,1.807919 4.3799,3.963758 8.50051,2.509268 8.50051,-3.000508 v -4.567739 l -15.29562,0.506599 c -32.80166,1.086406 -51.85265,8.519902 -71.25126,27.801483 -18.44307,18.331788 -27.40552,39.837355 -27.40552,65.759995 0,15.17608 2.76284,27.26915 9.43522,41.29818 2.60073,5.46819 4.81118,12.00707 4.9121,14.53085 0.14271,3.56631 1.29906,5.14589 5.19037,7.08958 2.75378,1.37549 8.27027,5.55343 12.25888,9.2843 13.56833,12.69159 28.35241,19.17882 47.74067,20.94851 l 11.47171,1.04709 -11.46716,2.04866 c -22.43351,4.00787 -47.04722,-0.17973 -69.59964,-11.84119 -16.16068,-8.3564 -36.3571,-29.17168 -44.79433,-46.16692 -8.85588,-17.83847 -11.6255,-29.49923 -11.6255,-48.94599 0,-18.43444 2.68288,-30.523083 10.35358,-46.651652 6.61442,-13.90763 18.39879,-29.483808 22.77992,-30.109695 4.24848,-0.606941 5.37545,-5.757053 1.82749,-8.351388 -3.15555,-2.307398 -8.36762,-0.216638 -8.36762,3.356574 0,1.244177 -3.11003,6.080416 -6.91118,10.747201 -8.80936,10.815515 -16.61865,26.326792 -20.89426,41.501426 -4.33154,15.373094 -4.62913,42.202334 -0.63171,56.951164 11.68466,43.11171 44.68766,74.48756 87.87032,83.53807 16.6284,3.48509 41.1134,1.94183 57.77936,-3.64178 z"
       id="path296"
       transform="matrix(0.75000002,0,0,-0.75000002,-0.270813,449.57501)" /><path
       style="fill:none;fill-opacity:1;stroke-width:1.52956"
       d="M 296.51666,327.80032 -14.366877,327.41053 V 159.92714 -7.5562235 l 476.076257,-0.00195 c 261.84195,-0.00107 505.50122,-0.4573007 541.46502,-1.0138425 l 65.3888,-1.0118945 V 159.68179 328.94748 L 837.9817,328.5688 C 711.16187,328.36052 467.5026,328.01472 296.51666,327.80032 Z M 900.96097,296.7202 c 9.1942,-4.32178 19.88339,-16.3364 23.07013,-25.93075 2.06878,-6.22854 2.43133,-12.74217 2.01942,-36.28158 -0.46272,-26.44266 -0.77659,-29.20433 -4.00652,-35.2539 -17.56245,-32.89398 -63.9653,-32.74682 -80.98222,0.25682 -5.91261,11.46729 -5.89634,27.38105 0.0404,39.47028 7.91636,16.12053 21.93081,24.78469 40.08969,24.78469 11.03349,0 22.40876,-3.72546 28.83265,-9.44286 2.86923,-2.55366 2.92342,-2.42073 2.19503,5.38423 -1.00064,10.72214 -6.85723,19.02817 -16.97008,24.06762 -13.0998,6.52789 -26.8593,4.05243 -36.90481,-6.63951 -3.68503,-3.92218 -5.67811,-4.78157 -11.08932,-4.78157 -7.13607,0 -7.74809,1.01357 -4.43303,7.34138 9.65511,18.42965 37.68721,26.63848 58.1387,17.02515 z M 425.60654,259.28177 c 11.74801,-5.70613 12.75022,-7.54516 7.15894,-13.13644 l -4.61338,-4.61338 -5.61163,3.80816 c -24.38188,16.54599 -57.31736,-9.85704 -46.02304,-36.89479 7.73721,-18.52233 30.14321,-25.91674 46.24433,-15.26151 l 6.06872,4.01608 4.28805,-4.47576 4.28807,-4.47578 -3.58736,-3.81857 c -4.74599,-5.05186 -18.22812,-9.96809 -27.33625,-9.96809 -13.3828,0 -22.76131,3.94159 -32.46341,13.64369 -12.81914,12.81914 -16.44521,26.8429 -11.36444,43.95175 7.96942,26.83592 37.47781,39.59744 62.9514,27.22464 z m 78.06118,-0.0261 c 15.65142,-7.60243 24.19401,-21.94792 24.07955,-40.4366 -0.0577,-9.31338 -0.83122,-12.9461 -4.11157,-19.3082 -20.9292,-40.59134 -81.66321,-28.94904 -84.89894,16.27456 -0.94698,13.23538 2.3438,23.3973 10.62255,32.80249 13.82003,15.70036 35.27237,19.91423 54.30841,10.66775 z m 298.60293,1.93581 c 8.37952,-3.59932 16.80845,-10.437 21.38719,-17.34967 2.62027,-3.95588 4.7641,-7.76279 4.7641,-8.45981 0,-0.69704 -3.31207,-1.26733 -7.36016,-1.26733 -6.39992,0 -7.80158,0.59705 -10.74356,4.57628 -6.56241,8.87614 -21.13653,13.74469 -32.21498,10.76157 -10.27863,-2.76774 -23.10029,-16.34749 -23.10029,-24.4661 0,-1.04333 13.03435,-1.57869 38.43611,-1.57869 h 38.43611 l -1.05696,-7.96778 c -4.04722,-30.50937 -32.80723,-48.44763 -60.84465,-37.95014 -11.34157,4.24639 -18.5783,10.78221 -24.03961,21.71125 -8.25964,16.52902 -5.81889,35.64322 6.31103,49.42355 10.01819,11.38126 22.96066,16.5486 37.78917,15.0875 4.54514,-0.44786 10.05156,-1.58215 12.2365,-2.52066 z m -84.33133,-0.38245 c 11.72671,-4.89975 17.17932,-13.06829 17.17932,-25.73626 0,-14.37594 -7.67969,-20.19668 -32.71438,-24.79544 -16.34769,-3.00302 -20.66542,-4.83949 -21.77534,-9.26175 -3.61364,-14.39791 29.73496,-17.4656 37.00641,-3.40416 1.98207,3.8329 3.12442,4.38244 9.11,4.38244 7.45302,0 8.09531,-1.06987 5.22038,-8.69541 -5.71151,-15.14927 -26.80303,-22.61701 -46.66262,-16.52154 -13.03092,3.99956 -19.36773,11.67945 -19.36773,23.47273 0,14.07186 7.43364,19.48486 32.82176,23.90004 16.40719,2.85333 22.59546,6.26026 22.59546,12.43986 0,8.18911 -13.92662,15.6066 -25.29703,13.47351 -7.01656,-1.31633 -14.73065,-6.59841 -17.23179,-11.79919 -1.727,-3.59107 -2.91005,-4.14919 -8.79498,-4.14919 -5.82412,0 -6.79957,0.44759 -6.79957,3.12006 0,8.51862 8.60414,18.59704 20.16274,23.61753 6.93009,3.0101 27.30071,2.98459 34.54737,-0.0433 z M 548.51204,233.30071 c 0,-31.92159 1.1195,-36.88486 9.46772,-41.97463 6.40005,-3.90199 14.36929,-3.941 20.66688,-0.10111 8.81162,5.37276 9.63402,8.89691 9.63402,41.28414 v 29.13763 h 6.88303 6.88303 V 232.5091 c 0,-32.38723 0.8224,-35.91139 9.63403,-41.28414 6.29759,-3.83988 14.26682,-3.80087 20.66688,0.1011 8.34821,5.08977 9.46771,10.05305 9.46771,41.97463 v 28.34605 h 6.88303 6.88303 l -0.0672,-29.44408 c -0.072,-31.57701 -0.97905,-36.74736 -8.07994,-46.0571 -10.23012,-13.4124 -32.54292,-15.34687 -46.9584,-4.07123 l -5.39471,4.2197 -5.05999,-4.22427 c -13.50331,-11.27306 -36.96891,-9.24368 -47.12817,4.0758 -7.10088,9.30974 -8.00793,14.48009 -8.07994,46.0571 l -0.0671,29.44408 h 6.88303 6.88303 z m -262.11891,1.08447 c 24.84339,-8.32331 45.01564,-23.21176 55.58788,-41.02755 2.92234,-4.92458 6.19178,-9.50422 7.26543,-10.17696 3.00084,-1.88035 2.31487,-6.86812 -1.09337,-7.94986 -4.27385,-1.35646 -6.13194,0.23895 -6.13194,5.26509 0,6.29022 -11.25774,22.21455 -21.24768,30.05531 -16.68211,13.09322 -41.07646,18.87654 -61.31458,14.53624 -18.37915,-3.94162 -44.42993,-21.86166 -42.16318,-29.00355 1.35386,-4.26564 -1.46038,-9.06399 -5.66639,-9.66128 -5.209,-0.73974 -10.20363,-16.70083 -10.27375,-32.83129 -0.0682,-15.70348 3.90104,-29.07651 12.41428,-41.82518 9.77369,-14.636217 27.93164,-27.378731 42.69161,-29.959248 5.07667,-0.887564 4.99188,-0.761603 -2.46256,3.658737 -21.78397,12.91746 -32.90661,38.892081 -27.58437,64.417631 4.0121,19.24217 15.27483,33.5802 33.01026,42.02376 9.05932,4.313 11.30036,4.73331 25.23778,4.73331 13.36632,0 16.39053,-0.51327 23.97612,-4.06926 4.77427,-2.23809 11.66861,-6.82361 15.32077,-10.19005 7.84953,-7.23544 14.36436,-17.89486 11.87666,-19.43233 -1.99428,-1.23255 -1.79783,-1.41253 -8.03719,7.36327 -11.25819,15.83489 -26.54673,23.17605 -46.19549,22.1819 -10.2646,-0.51935 -13.79452,-1.44962 -21.90475,-5.77268 -41.45293,-22.09601 -39.84476,-79.85707 2.78523,-100.038001 20.36587,-9.641155 45.05276,-4.967747 60.39371,11.43297 6.37257,6.812791 7.66473,9.135971 7.03448,12.647301 -0.35354,1.9698 3.04122,5.57486 5.24966,5.57486 4.4861,0 3.45898,-5.10946 -2.855,-14.20241 -11.56554,-16.655887 -28.64984,-25.377585 -52.30914,-26.704334 -24.99124,-1.401441 -43.50564,5.460323 -60.50905,22.425734 -15.01706,14.98349 -22.59909,32.16649 -22.9568,52.02661 -0.14134,7.84434 -0.43695,9.04095 -1.3486,5.45824 -1.79644,-7.05991 -1.71981,-27.22151 0.13781,-36.25182 2.70159,-13.13319 12.43955,-31.695371 21.66458,-41.296398 17.0141,-17.707521 36.69783,-26.825221 61.20227,-28.349501 11.32961,-0.704748 13.86238,-0.424323 16.32898,1.807919 4.3799,3.963758 8.50051,2.509268 8.50051,-3.000508 v -4.567739 l -15.29562,0.506599 c -32.80166,1.086406 -51.85265,8.519902 -71.25126,27.801483 -18.44307,18.331788 -27.40552,39.837355 -27.40552,65.759995 0,15.17608 2.76284,27.26915 9.43522,41.29818 2.60073,5.46819 4.81118,12.00707 4.9121,14.53085 0.14271,3.56631 1.29906,5.14589 5.19037,7.08958 2.75378,1.37549 8.27027,5.55343 12.25888,9.2843 13.56833,12.69159 28.35241,19.17882 47.74067,20.94851 l 11.47171,1.04709 -11.46716,2.04866 c -22.43351,4.00787 -47.04722,-0.17973 -69.59964,-11.84119 -16.16068,-8.3564 -36.3571,-29.17168 -44.79433,-46.16692 -8.85588,-17.83847 -11.6255,-29.49923 -11.6255,-48.94599 0,-18.43444 2.68288,-30.523083 10.35358,-46.651652 6.61442,-13.90763 18.39879,-29.483808 22.77992,-30.109695 4.24848,-0.606941 5.37545,-5.757053 1.82749,-8.351388 -3.15555,-2.307398 -8.36762,-0.216638 -8.36762,3.356574 0,1.244177 -3.11003,6.080416 -6.91118,10.747201 -8.80936,10.815515 -16.61865,26.326792 -20.89426,41.501426 -4.33154,15.373094 -4.62913,42.202334 -0.63171,56.951164 11.68466,43.11171 44.68766,74.48756 87.87032,83.53807 16.6284,3.48509 41.1134,1.94183 57.77936,-3.64178 z"
       id="path298"
       transform="matrix(0.75000002,0,0,-0.75000002,-0.270813,449.57501)" /><path
       style="fill:#040cac;fill-opacity:1;stroke:#3771c8;stroke-width:1.52956"
       d="M -14.180385,160.88479 V -6.4131056 L 345.64914,-7.464996 C 543.55538,-8.0435356 787.04258,-8.3007372 886.7318,-8.0365549 l 181.2531,0.4803314 0.3891,167.8694635 0.3892,167.86946 H 527.29139 -14.180385 Z M 901.72183,295.97313 c 9.91993,-4.95705 15.16195,-10.13222 20.6454,-20.38218 3.1572,-5.90161 3.36841,-8.26252 3.36841,-37.65243 0,-29.61462 -0.19166,-31.71469 -3.45091,-37.81414 -8.71512,-16.30969 -22.18089,-25.05047 -38.85706,-25.22251 -18.79644,-0.19392 -31.59534,6.61335 -40.58135,21.58374 -11.27964,18.79151 -7.16414,42.49145 10.01918,57.69749 5.97335,5.286 19.04048,9.75798 28.51283,9.75798 8.78888,0 23.6926,-4.70776 26.81528,-8.47035 3.46412,-4.17402 4.96077,-2.43326 4.14331,4.81912 -1.0143,8.99895 -7.65513,18.59195 -16.10359,23.26241 -12.09233,6.68487 -30.28945,3.56109 -38.25637,-6.56722 -2.54726,-3.23832 -4.31688,-3.86658 -10.8908,-3.86658 h -7.84935 l 2.27808,4.40532 c 4.23498,8.18953 10.1208,13.75255 19.51994,18.44935 7.83174,3.91357 11.15406,4.67745 20.3435,4.67745 9.18944,0 12.51176,-0.76388 20.3435,-4.67745 z M 422.20034,260.86632 c 4.51992,-1.69113 9.70749,-4.6602 11.52793,-6.59798 l 3.30988,-3.52322 -4.36654,-4.18341 -4.36654,-4.18342 -7.33182,3.89837 c -25.89869,13.77046 -54.78609,-11.05219 -44.42741,-38.17601 5.35292,-14.01641 22.13141,-22.84837 36.20618,-19.05842 3.66874,0.98788 8.635,3.19504 11.03611,4.90478 l 4.36565,3.10861 4.70579,-4.70578 c 5.71949,-5.71949 4.74782,-7.47651 -7.42942,-13.43428 -6.67515,-3.26585 -10.41525,-4.02899 -19.74569,-4.02899 -18.60719,0 -31.82422,8.15973 -40.87992,25.23781 -4.77294,9.00124 -4.8533,27.83399 -0.16238,38.05326 9.63095,20.98123 35.19183,31.057 57.55818,22.68868 z m 76.50607,0.63965 c 20.05703,-6.83411 33.05718,-30.28952 28.62391,-51.64446 -4.22375,-20.34566 -22.83433,-35.1294 -44.05557,-34.99655 -38.29411,0.23973 -58.26107,42.34353 -34.71836,73.20962 10.31216,13.51992 32.47205,19.45489 50.15002,13.43139 z m 221.83508,-2.04088 c 9.57128,-4.63338 13.68946,-10.77033 14.47018,-21.56369 1.2051,-16.66045 -5.61244,-22.4998 -32.17927,-27.56205 -16.69237,-3.18071 -22.59151,-5.96822 -22.59151,-10.67514 0,-7.02519 13.17556,-13.31149 23.74419,-11.3288 6.24143,1.1709 12.38034,5.58181 13.74275,9.8744 0.78343,2.46835 2.33485,3.01922 8.50301,3.01922 8.55423,0 8.88585,-0.7229 4.63026,-10.09348 -4.92316,-10.84048 -15.29125,-15.90908 -32.54283,-15.90908 -17.02426,0 -28.75889,6.89963 -31.96126,18.79228 -4.50137,16.7168 5.49801,25.90886 32.81429,30.16497 14.63975,2.28099 20.49964,4.99024 21.77378,10.06684 1.26373,5.03506 -0.37786,7.94538 -7.04114,12.48295 -10.12544,6.89523 -28.0705,3.32153 -34.02858,-6.77668 -2.73544,-4.63621 -3.63793,-5.07743 -10.38572,-5.07743 h -7.38995 l 1.25486,4.37548 c 3.16381,11.03155 11.67786,19.15618 24.44483,23.32673 7.07217,2.31023 25.0709,0.59706 32.74211,-3.11652 z m 85.88829,-0.496 c 4.2063,-2.15607 9.47047,-5.87715 11.69815,-8.26905 4.20136,-4.51106 10.46479,-14.19973 10.47478,-16.20303 0.003,-0.63095 -3.11267,-1.14717 -6.92404,-1.14717 -6.02655,0 -7.55272,0.7095 -11.70929,5.44357 -15.27006,17.39164 -41.48865,14.47758 -51.86967,-5.76503 -5.57711,-10.87517 -7.24736,-10.38548 35.42251,-10.38548 H 831.855 l -1.01252,-7.26542 c -3.38555,-24.29323 -21.32767,-40.42093 -44.96837,-40.42093 -25.26755,0 -44.39943,18.63759 -44.43578,43.28774 -0.0314,21.25168 10.29597,36.19451 30.12153,43.58358 8.88992,3.31331 25.4826,1.95297 34.86992,-2.85878 z m -257.43801,-28.79911 0.47155,-30.71197 5.66113,-5.18485 c 9.68717,-8.87215 17.22962,-8.87215 26.91678,0 l 5.66114,5.18485 0.47155,30.71197 0.47153,30.71198 h 6.79389 6.79387 V 232.1788 c 0,-24.87764 0.37251,-29.39773 2.79493,-33.91458 7.38147,-13.76357 25.48394,-13.56583 33.98187,0.37118 2.67375,4.38507 2.98098,7.83867 2.9861,33.56726 l 0.006,28.6793 h 6.88303 6.88303 v -27.61958 c 0,-15.19078 -0.7491,-30.59452 -1.66465,-34.23055 -5.74736,-22.8248 -35.99972,-32.45218 -53.19538,-16.92865 l -5.55768,5.01724 -5.87977,-5.08631 c -7.587,-6.56314 -17.9046,-8.94464 -28.71103,-6.62708 -9.94737,2.13333 -21.60947,12.76241 -24.13608,21.99809 -0.93322,3.41126 -1.67753,18.8073 -1.68229,34.79754 l -0.009,28.6793 h 6.79388 6.79388 z m -268.91992,6.28719 c 23.71251,-6.06464 48.22768,-22.17602 58.91606,-38.71967 3.37919,-5.23037 7.61784,-11.42014 9.4192,-13.75508 3.93518,-5.10079 2.96354,-8.75595 -2.32758,-8.75595 -3.12652,0 -3.8719,0.74788 -3.8719,3.88484 0,9.02303 -13.76224,27.04767 -27.26939,35.71517 -12.64881,8.11673 -23.6829,11.22393 -40.03135,11.27286 -11.11803,0.0332 -16.6573,-0.72833 -23.58474,-3.24273 -17.42655,-6.32518 -35.82672,-21.27782 -33.84955,-27.50734 1.10396,-3.47827 -3.64322,-9.41586 -7.52809,-9.41586 -2.45027,0 -7.56055,-15.42377 -9.181,-27.70998 -1.1896,-9.01956 2.51748,-27.0299 7.77578,-37.77746 6.31461,-12.90662 20.50182,-26.987797 33.32068,-33.07167 5.97755,-2.836958 13.27732,-5.58575 16.22173,-6.108424 5.17833,-0.919229 5.11025,-0.820175 -2.081,3.027845 -21.94628,11.743376 -34.70773,38.530979 -30.14717,63.282029 9.62054,52.21252 75.09928,68.04854 105.84915,25.59958 2.41269,-3.33061 4.3867,-6.98484 4.3867,-8.12051 0,-3.95814 -3.91405,-2.02581 -6.81761,3.36579 -6.55254,12.1673 -23.28826,22.64842 -39.13841,24.51129 -16.64568,1.95637 -38.1202,-7.03572 -48.12372,-20.151 -2.20101,-2.88569 -5.83263,-9.19445 -8.07026,-14.01947 -5.40743,-11.66008 -5.60562,-28.89968 -0.48322,-42.03561 4.47682,-11.48038 15.76604,-23.74559 27.16951,-29.51837 8.11844,-4.109807 10.3143,-4.519499 24.22337,-4.519499 13.19902,0 16.2391,0.501989 22.17865,3.662208 14.02745,7.463493 23.51701,17.631771 23.65323,25.344981 0.067,3.79714 6.49789,5.27555 7.83144,1.8004 1.28362,-3.34508 -12.70904,-20.717262 -21.43891,-26.616844 -17.55453,-11.863236 -46.04631,-15.351887 -67.04678,-8.209486 -26.74485,9.096109 -47.05881,31.68602 -51.75486,57.55342 -3.3405,18.40053 -4.11168,19.07923 -4.27557,3.76288 -0.27162,-25.38195 7.14099,-45.030463 23.54902,-62.421167 15.93423,-16.888522 34.92815,-26.159079 58.36361,-28.486142 8.73136,-0.866992 12.03709,-0.56808 16.34968,1.478373 7.12294,3.380062 10.82457,2.553933 11.41656,-2.547945 0.34736,-2.993612 -0.35304,-4.32356 -2.66305,-5.056728 -1.72391,-0.547145 -3.97065,-0.477955 -4.99278,0.153756 -1.02213,0.631711 -8.0834,1.304287 -15.6917,1.494613 -42.23556,1.05655 -78.40934,29.648482 -88.74877,70.14746 -1.28007,5.01399 -2.32741,15.366 -2.32741,23.00446 0,15.92802 2.70524,28.11302 9.21044,41.48588 2.50559,5.1508 4.55562,11.37994 4.55562,13.84254 0,5.11738 2.40704,8.14842 6.47089,8.14842 1.53996,0 4.89532,2.38648 7.45631,5.30331 10.9632,12.48638 30.66087,21.97947 51.13376,24.64338 8.96113,1.166 9.02793,1.20996 3.76934,2.48035 -10.26171,2.47907 -35.21663,1.59091 -47.87603,-1.70393 -37.7955,-9.83694 -68.1472,-40.04078 -78.5221,-78.13954 -3.64437,-13.38286 -3.69822,-40.02999 -0.10819,-53.53468 5.30289,-19.948068 20.23911,-44.701566 29.71256,-49.242073 5.67827,-2.721527 6.10759,-9.646078 0.59804,-9.646078 -2.03416,0 -4.41,1.329377 -5.35346,2.995477 -0.93296,1.647511 -4.99753,7.408655 -9.03237,12.80254 -16.56755,22.147823 -23.14812,42.043336 -23.10586,69.857474 0.0318,20.92432 2.42787,31.96335 10.69086,49.2543 13.68436,28.6356 42.02533,52.00402 72.87205,60.0863 15.59843,4.08702 42.51868,4.11993 58.34859,0.0713 z"
       id="path1129"
       transform="matrix(0.75000002,0,0,-0.75000002,-0.270813,449.57501)" /><path
       style="fill:#040cac;fill-opacity:1;stroke:#3771c8;stroke-width:1.52956"
       d="m 470.70178,247.73845 c -15.23373,-6.60619 -22.75071,-25.42622 -16.30515,-40.82269 2.89233,-6.90889 13.41059,-15.91114 20.96849,-17.94627 22.16602,-5.96869 44.16659,15.93111 38.21365,38.03863 -4.79137,17.7938 -26.00143,28.04852 -42.87699,20.73033 z"
       id="path1131"
       transform="matrix(0.75000002,0,0,-0.75000002,-0.270813,449.57501)" /><path
       style="fill:#040cac;fill-opacity:1;stroke:#3771c8;stroke-width:0.540782"
       d="m 755.5075,209.69538 c 0,-1.26327 2.75775,-6.5086 5.03783,-9.58211 11.12831,-15.00079 33.29825,-16.91584 46.96472,-4.05683 3.99779,3.76159 6.49413,7.30253 8.06757,11.4435 l 1.03383,2.7208 h -30.55198 c -19.40966,0 -30.55197,-0.1916 -30.55197,-0.52536 z"
       id="path1135"
       transform="matrix(0.75000002,0,0,-0.75000002,-0.270813,449.57501)" /><path
       style="fill:#040cac;fill-opacity:1;stroke:#3771c8;stroke-width:0.540782"
       d="m 877.45382,250.97515 c -12.03314,-1.83486 -22.16071,-10.14185 -26.32577,-21.59334 -1.61223,-4.43271 -1.95915,-12.76147 -0.72862,-17.49262 1.55648,-5.98436 3.97194,-10.21592 8.39741,-14.71113 8.2981,-8.42886 19.76343,-11.60939 30.83544,-8.55388 11.26496,3.10876 19.84701,11.7857 22.70352,22.95456 2.84333,11.11732 -0.16741,21.65216 -8.59172,30.06318 -4.31851,4.31168 -9.3938,7.24839 -14.72586,8.52078 -2.98841,0.71312 -9.30534,1.15691 -11.5644,0.81245 z"
       id="path1137"
       transform="matrix(0.75000002,0,0,-0.75000002,-0.270813,449.57501)" /></g></svg>
