<?xml version="1.0" encoding="UTF-8" standalone="no"?>
<svg
   xmlns:dc="http://purl.org/dc/elements/1.1/"
   xmlns:cc="http://creativecommons.org/ns#"
   xmlns:rdf="http://www.w3.org/1999/02/22-rdf-syntax-ns#"
   xmlns:svg="http://www.w3.org/2000/svg"
   xmlns="http://www.w3.org/2000/svg"
   xmlns:sodipodi="http://sodipodi.sourceforge.net/DTD/sodipodi-0.dtd"
   xmlns:inkscape="http://www.inkscape.org/namespaces/inkscape"
   width="22.792973mm"
   height="22.79262mm"
   viewBox="0 0 22.792973 22.79262"
   version="1.1"
   id="svg24798"
   sodipodi:docname="btn-left.svg"
   inkscape:version="1.0.1 (3bc2e813f5, 2020-09-07)">
  <defs
     id="defs24792" />
  <sodipodi:namedview
     id="base"
     pagecolor="#ffffff"
     bordercolor="#666666"
     borderopacity="1.0"
     inkscape:pageopacity="0.0"
     inkscape:pageshadow="2"
     inkscape:zoom="0.35"
     inkscape:cx="849.22"
     inkscape:cy="580.64589"
     inkscape:document-units="mm"
     inkscape:current-layer="layer1"
     inkscape:document-rotation="0"
     showgrid="false"
     fit-margin-top="0"
     fit-margin-left="0"
     fit-margin-right="0"
     fit-margin-bottom="0"
     inkscape:window-width="1366"
     inkscape:window-height="704"
     inkscape:window-x="1920"
     inkscape:window-y="0"
     inkscape:window-maximized="1" />
  <metadata
     id="metadata24795">
    <rdf:RDF>
      <cc:Work
         rdf:about="">
        <dc:format>image/svg+xml</dc:format>
        <dc:type
           rdf:resource="http://purl.org/dc/dcmitype/StillImage" />
        <dc:title></dc:title>
      </cc:Work>
    </rdf:RDF>
  </metadata>
  <g
     inkscape:label="Capa 1"
     inkscape:groupmode="layer"
     id="layer1"
     transform="translate(118.85613,5.4625591)">
    <g
       id="g44"
       transform="matrix(0.35277777,0,0,-0.35277777,-107.45964,-4.7570036)">
      <path
         d="m 0,0 c 16.71,0 30.305,-13.595 30.305,-30.305 0,-16.71 -13.595,-30.304 -30.305,-30.304 -16.71,0 -30.305,13.594 -30.305,30.304 C -30.305,-13.595 -16.71,0 0,0 m 0,-62.609 c 17.813,0 32.305,14.492 32.305,32.304 C 32.305,-12.492 17.813,2 0,2 c -17.813,0 -32.305,-14.492 -32.305,-32.305 0,-17.812 14.492,-32.304 32.305,-32.304"
         style="fill:#cccccc;fill-opacity:1;fill-rule:nonzero;stroke:none"
         id="path46" />
    </g>
    <g
       id="g48"
       transform="matrix(0.35277777,0,0,-0.35277777,-106.31604,9.8713854)">
      <path
         d="m 0,0 c 0.493,-0.493 1.292,-0.493 1.785,0 0.493,0.494 0.493,1.292 0,1.786 l -9.375,9.377 9.375,9.374 c 0.493,0.494 0.493,1.293 0,1.786 -0.246,0.246 -0.569,0.37 -0.892,0.37 C 0.569,22.693 0.246,22.57 0,22.323 L -10.269,12.056 c -0.493,-0.493 -0.493,-1.293 0,-1.786 z"
         style="fill:#cccccc;fill-opacity:1;fill-rule:nonzero;stroke:none"
         id="path50" />
    </g>
  </g>
</svg>
