<?xml version="1.0" encoding="UTF-8" standalone="no"?>
<svg
   xmlns:dc="http://purl.org/dc/elements/1.1/"
   xmlns:cc="http://creativecommons.org/ns#"
   xmlns:rdf="http://www.w3.org/1999/02/22-rdf-syntax-ns#"
   xmlns:svg="http://www.w3.org/2000/svg"
   xmlns="http://www.w3.org/2000/svg"
   xmlns:sodipodi="http://sodipodi.sourceforge.net/DTD/sodipodi-0.dtd"
   xmlns:inkscape="http://www.inkscape.org/namespaces/inkscape"
   width="22.792973mm"
   height="22.792267mm"
   viewBox="0 0 22.792973 22.792267"
   version="1.1"
   id="svg24798"
   sodipodi:docname="btn-right.svg"
   inkscape:version="1.0.1 (3bc2e813f5, 2020-09-07)">
  <defs
     id="defs24792" />
  <sodipodi:namedview
     id="base"
     pagecolor="#ffffff"
     bordercolor="#666666"
     borderopacity="1.0"
     inkscape:pageopacity="0.0"
     inkscape:pageshadow="2"
     inkscape:zoom="0.35"
     inkscape:cx="454.71809"
     inkscape:cy="300.43037"
     inkscape:document-units="mm"
     inkscape:current-layer="layer1"
     inkscape:document-rotation="0"
     showgrid="false"
     fit-margin-top="0"
     fit-margin-left="0"
     fit-margin-right="0"
     fit-margin-bottom="0"
     inkscape:window-width="1366"
     inkscape:window-height="704"
     inkscape:window-x="1920"
     inkscape:window-y="0"
     inkscape:window-maximized="1" />
  <metadata
     id="metadata24795">
    <rdf:RDF>
      <cc:Work
         rdf:about="">
        <dc:format>image/svg+xml</dc:format>
        <dc:type
           rdf:resource="http://purl.org/dc/dcmitype/StillImage" />
        <dc:title></dc:title>
      </cc:Work>
    </rdf:RDF>
  </metadata>
  <g
     inkscape:label="Capa 1"
     inkscape:groupmode="layer"
     id="layer1"
     transform="translate(14.477496,-68.677798)">
    <g
       id="g28"
       transform="matrix(0.35277777,0,0,-0.35277777,-3.0810101,90.764509)">
      <path
         d="m 0,0 c -16.71,0 -30.305,13.595 -30.305,30.304 0,16.711 13.595,30.304 30.305,30.304 16.71,0 30.305,-13.593 30.305,-30.304 C 30.305,13.595 16.71,0 0,0 m 0,62.608 c -17.813,0 -32.305,-14.491 -32.305,-32.304 C -32.305,12.492 -17.813,-2 0,-2 17.813,-2 32.305,12.492 32.305,30.304 32.305,48.117 17.813,62.608 0,62.608"
         style="fill:#cccccc;fill-opacity:1;fill-rule:nonzero;stroke:none"
         id="path30" />
    </g>
    <g
       id="g32"
       transform="matrix(0.35277777,0,0,-0.35277777,-4.2246101,76.136299)">
      <path
         d="m 0,0 c -0.493,0.493 -1.292,0.493 -1.785,0 -0.493,-0.493 -0.493,-1.292 0,-1.786 l 9.375,-9.376 -9.375,-9.375 c -0.493,-0.493 -0.493,-1.292 0,-1.786 0.246,-0.246 0.569,-0.37 0.892,-0.37 0.324,0 0.647,0.124 0.893,0.37 l 10.269,10.268 c 0.493,0.493 0.493,1.292 0,1.785 z"
         style="fill:#cccccc;fill-opacity:1;fill-rule:nonzero;stroke:none"
         id="path34" />
    </g>
  </g>
</svg>
