<?xml version="1.0" encoding="UTF-8" standalone="no"?>
<svg
   xmlns:dc="http://purl.org/dc/elements/1.1/"
   xmlns:cc="http://creativecommons.org/ns#"
   xmlns:rdf="http://www.w3.org/1999/02/22-rdf-syntax-ns#"
   xmlns:svg="http://www.w3.org/2000/svg"
   xmlns="http://www.w3.org/2000/svg"
   xmlns:sodipodi="http://sodipodi.sourceforge.net/DTD/sodipodi-0.dtd"
   xmlns:inkscape="http://www.inkscape.org/namespaces/inkscape"
   width="22.792973mm"
   height="22.79262mm"
   viewBox="0 0 22.792973 22.79262"
   version="1.1"
   id="svg24798"
   sodipodi:docname="btn-left-active.svg"
   inkscape:version="1.0.1 (3bc2e813f5, 2020-09-07)">
  <defs
     id="defs24792" />
  <sodipodi:namedview
     id="base"
     pagecolor="#ffffff"
     bordercolor="#666666"
     borderopacity="1.0"
     inkscape:pageopacity="0.0"
     inkscape:pageshadow="2"
     inkscape:zoom="0.35"
     inkscape:cx="43.073334"
     inkscape:cy="43.072658"
     inkscape:document-units="mm"
     inkscape:current-layer="layer1"
     inkscape:document-rotation="0"
     showgrid="false"
     fit-margin-top="0"
     fit-margin-left="0"
     fit-margin-right="0"
     fit-margin-bottom="0"
     inkscape:window-width="1366"
     inkscape:window-height="704"
     inkscape:window-x="1920"
     inkscape:window-y="0"
     inkscape:window-maximized="1" />
  <metadata
     id="metadata24795">
    <rdf:RDF>
      <cc:Work
         rdf:about="">
        <dc:format>image/svg+xml</dc:format>
        <dc:type
           rdf:resource="http://purl.org/dc/dcmitype/StillImage" />
        <dc:title></dc:title>
      </cc:Work>
    </rdf:RDF>
  </metadata>
  <g
     inkscape:label="Capa 1"
     inkscape:groupmode="layer"
     id="layer1"
     transform="translate(-94.436847,-136.77036)">
    <path
       d="m 105.83333,137.47591 c 5.89492,0 10.69093,4.79602 10.69093,10.69093 0,5.89492 -4.79601,10.69058 -10.69093,10.69058 -5.894914,0 -10.690927,-4.79566 -10.690927,-10.69058 0,-5.89491 4.796013,-10.69093 10.690927,-10.69093 m 0,22.08707 c 6.28403,0 11.39649,-5.11246 11.39649,-11.39614 0,-6.28403 -5.11246,-11.39648 -11.39649,-11.39648 -6.284028,0 -11.396483,5.11245 -11.396483,11.39648 0,6.28368 5.112455,11.39614 11.396483,11.39614"
       style="fill:#004ab5;fill-opacity:1;fill-rule:nonzero;stroke:none;stroke-width:0.352777"
       id="path38" />
    <g
       id="g40"
       transform="matrix(0.35277777,0,0,-0.35277777,106.97693,152.1043)">
      <path
         d="m 0,0 c 0.493,-0.493 1.292,-0.493 1.785,0 0.493,0.493 0.493,1.292 0,1.786 l -9.375,9.377 9.375,9.374 c 0.493,0.494 0.493,1.293 0,1.786 -0.246,0.246 -0.569,0.37 -0.892,0.37 C 0.569,22.693 0.246,22.57 0,22.323 L -10.269,12.056 c -0.493,-0.494 -0.493,-1.293 0,-1.786 z"
         style="fill:#004ab5;fill-opacity:1;fill-rule:nonzero;stroke:none"
         id="path42" />
    </g>
  </g>
</svg>
