<?xml version="1.0" encoding="UTF-8" standalone="no"?>
<svg
   xmlns:dc="http://purl.org/dc/elements/1.1/"
   xmlns:cc="http://creativecommons.org/ns#"
   xmlns:rdf="http://www.w3.org/1999/02/22-rdf-syntax-ns#"
   xmlns:svg="http://www.w3.org/2000/svg"
   xmlns="http://www.w3.org/2000/svg"
   xmlns:sodipodi="http://sodipodi.sourceforge.net/DTD/sodipodi-0.dtd"
   xmlns:inkscape="http://www.inkscape.org/namespaces/inkscape"
   width="33.52578mm"
   height="37.736599mm"
   viewBox="0 0 33.525779 37.736599"
   version="1.1"
   id="svg226509"
   inkscape:version="1.0.1 (3bc2e813f5, 2020-09-07)"
   sodipodi:docname="cellphone.svg">
  <defs
     id="defs226503" />
  <sodipodi:namedview
     id="base"
     pagecolor="#ffffff"
     bordercolor="#666666"
     borderopacity="1.0"
     inkscape:pageopacity="0.0"
     inkscape:pageshadow="2"
     inkscape:zoom="0.7"
     inkscape:cx="74.238838"
     inkscape:cy="99.036971"
     inkscape:document-units="mm"
     inkscape:current-layer="layer1"
     inkscape:document-rotation="0"
     showgrid="false"
     fit-margin-top="0"
     fit-margin-left="0"
     fit-margin-right="0"
     fit-margin-bottom="0"
     inkscape:window-width="1366"
     inkscape:window-height="704"
     inkscape:window-x="1920"
     inkscape:window-y="0"
     inkscape:window-maximized="1" />
  <metadata
     id="metadata226506">
    <rdf:RDF>
      <cc:Work
         rdf:about="">
        <dc:format>image/svg+xml</dc:format>
        <dc:type
           rdf:resource="http://purl.org/dc/dcmitype/StillImage" />
        <dc:title></dc:title>
      </cc:Work>
    </rdf:RDF>
  </metadata>
  <g
     inkscape:label="Capa 1"
     inkscape:groupmode="layer"
     id="layer1"
     transform="translate(-95.356183,-129.89031)">
    <g
       id="g60187"
       transform="matrix(0.35277777,0,0,-0.35277777,121.92689,134.37262)">
      <path
         d="M 0,0 V -3.504 H -50.89 V 0 c 0,3.566 2.878,6.507 6.445,6.507 H -6.444 C -2.878,6.507 0,3.566 0,0 m -6.444,-88.598 h -38.001 c -3.567,0 -6.445,2.94 -6.445,6.507 v 9.135 H 0 v -9.135 c 0,-3.567 -2.878,-6.507 -6.444,-6.507 M -50.89,-7.258 H 0 v -61.944 h -50.89 z m 54.644,7.3 c 0,5.652 -4.567,10.219 -10.22,10.219 h -37.958 c -5.652,0 -10.22,-4.567 -10.22,-10.219 v -82.175 c 0,-5.652 4.568,-10.22 10.22,-10.22 h 37.958 c 5.653,0 10.22,4.568 10.22,10.22 z"
         style="fill:#6f7b85;fill-opacity:1;fill-rule:nonzero;stroke:none"
         id="path60189" />
    </g>
    <g
       id="g60191"
       transform="matrix(0.35277777,0,0,-0.35277777,121.92689,134.37262)">
      <path
         d="M 0,0 V -3.504 H -50.89 V 0 c 0,3.566 2.878,6.507 6.445,6.507 H -6.444 C -2.878,6.507 0,3.566 0,0 Z m -6.444,-88.598 h -38.001 c -3.567,0 -6.445,2.94 -6.445,6.507 v 9.135 H 0 v -9.135 c 0,-3.567 -2.878,-6.507 -6.444,-6.507 z M -50.89,-7.258 H 0 v -61.944 h -50.89 z m 54.644,7.3 c 0,5.652 -4.567,10.219 -10.22,10.219 h -37.958 c -5.652,0 -10.22,-4.567 -10.22,-10.219 v -82.175 c 0,-5.652 4.568,-10.22 10.22,-10.22 h 37.958 c 5.653,0 10.22,4.568 10.22,10.22 z"
         style="fill:none;stroke:#6f7b85;stroke-width:1;stroke-linecap:butt;stroke-linejoin:miter;stroke-miterlimit:10;stroke-dasharray:none;stroke-opacity:1"
         id="path60193" />
    </g>
    <g
       id="g60195"
       transform="matrix(0.35277777,0,0,-0.35277777,114.74592,162.24362)">
      <path
         d="m 0,0 h -10.179 c -1.042,0 -1.877,-0.834 -1.877,-1.877 0,-1.043 0.835,-1.877 1.877,-1.877 H 0 c 1.043,0 1.877,0.834 1.877,1.877 C 1.877,-0.834 1.043,0 0,0"
         style="fill:#6f7b85;fill-opacity:1;fill-rule:nonzero;stroke:none"
         id="path60197" />
    </g>
    <g
       id="g60199"
       transform="matrix(0.35277777,0,0,-0.35277777,114.74592,162.24362)">
      <path
         d="m 0,0 h -10.179 c -1.042,0 -1.877,-0.834 -1.877,-1.877 0,-1.043 0.835,-1.877 1.877,-1.877 H 0 c 1.043,0 1.877,0.834 1.877,1.877 C 1.877,-0.834 1.043,0 0,0 Z"
         style="fill:none;stroke:#6f7b85;stroke-width:1;stroke-linecap:butt;stroke-linejoin:miter;stroke-miterlimit:10;stroke-dasharray:none;stroke-opacity:1"
         id="path60201" />
    </g>
    <g
       id="g60203"
       transform="matrix(0.35277777,0,0,-0.35277777,113.02404,142.14805)">
      <path
         d="m 0,0 c 8.851,0 15.974,-7.231 15.974,-16.189 0,-8.851 -7.123,-16.189 -15.974,-16.189 -8.85,0 -15.974,7.338 -15.974,16.189 C -15.974,-7.231 -8.85,0 0,0 m 5.937,-26.874 c -4.642,-0.216 -9.606,2.266 -12.52,6.799 -3.022,4.425 -3.347,9.822 -1.403,14.031 0.215,0.863 1.187,1.403 2.05,1.187 l 4.209,-1.079 c 0.864,-0.216 1.404,-1.188 1.188,-2.159 l -0.972,-3.777 c -0.324,-0.972 -1.295,-1.511 -2.158,-1.295 l -1.619,0.431 c 0,-1.834 0.539,-3.669 1.619,-5.396 1.187,-1.727 2.697,-2.914 4.425,-3.67 l 0.323,1.835 c 0.216,0.971 1.188,1.511 2.159,1.295 l 4.101,-0.863 c 0.972,-0.216 1.512,-1.187 1.296,-2.159 L 7.771,-25.471 C 7.663,-26.334 6.8,-26.982 5.937,-26.874 M 0,3.346 c 10.685,0 19.319,-8.742 19.319,-19.535 0,-10.793 -8.634,-19.535 -19.319,-19.535 -10.685,0 -19.319,8.742 -19.319,19.535 0,10.793 8.634,19.535 19.319,19.535"
         style="fill:#6f7b85;fill-opacity:1;fill-rule:evenodd;stroke:none"
         id="path60205" />
    </g>
    <g
       id="g60207"
       transform="matrix(0.35277777,0,0,-0.35277777,113.02404,142.14805)">
      <path
         d="m 0,0 c 8.851,0 15.974,-7.231 15.974,-16.189 0,-8.851 -7.123,-16.189 -15.974,-16.189 -8.85,0 -15.974,7.338 -15.974,16.189 C -15.974,-7.231 -8.85,0 0,0 Z m 5.937,-26.874 c -4.642,-0.216 -9.606,2.266 -12.52,6.799 -3.022,4.425 -3.347,9.822 -1.403,14.031 0.215,0.863 1.187,1.403 2.05,1.187 l 4.209,-1.079 c 0.864,-0.216 1.404,-1.188 1.188,-2.159 l -0.972,-3.777 c -0.324,-0.972 -1.295,-1.511 -2.158,-1.295 l -1.619,0.431 c 0,-1.834 0.539,-3.669 1.619,-5.396 1.187,-1.727 2.697,-2.914 4.425,-3.67 l 0.323,1.835 c 0.216,0.971 1.188,1.511 2.159,1.295 l 4.101,-0.863 c 0.972,-0.216 1.512,-1.187 1.296,-2.159 L 7.771,-25.471 C 7.663,-26.334 6.8,-26.982 5.937,-26.874 Z M 0,3.346 c 10.685,0 19.319,-8.742 19.319,-19.535 0,-10.793 -8.634,-19.535 -19.319,-19.535 -10.685,0 -19.319,8.742 -19.319,19.535 0,10.793 8.634,19.535 19.319,19.535 z"
         style="fill:none;stroke:#6f7b85;stroke-width:0.5;stroke-linecap:butt;stroke-linejoin:miter;stroke-miterlimit:10;stroke-dasharray:none;stroke-opacity:1"
         id="path60209" />
    </g>
  </g>
</svg>
