<?xml version="1.0" encoding="UTF-8" standalone="no"?>
<svg
   xmlns:dc="http://purl.org/dc/elements/1.1/"
   xmlns:cc="http://creativecommons.org/ns#"
   xmlns:rdf="http://www.w3.org/1999/02/22-rdf-syntax-ns#"
   xmlns:svg="http://www.w3.org/2000/svg"
   xmlns="http://www.w3.org/2000/svg"
   xmlns:sodipodi="http://sodipodi.sourceforge.net/DTD/sodipodi-0.dtd"
   xmlns:inkscape="http://www.inkscape.org/namespaces/inkscape"
   version="1.1"
   id="Layer_1"
   x="0px"
   y="0px"
   viewBox="0 0 492 492"
   style="enable-background:new 0 0 492 492;"
   xml:space="preserve"
   sodipodi:docname="flecha-izquierda.svg"
   inkscape:version="1.0.1 (3bc2e813f5, 2020-09-07)"><metadata
   id="metadata43"><rdf:RDF><cc:Work
       rdf:about=""><dc:format>image/svg+xml</dc:format><dc:type
         rdf:resource="http://purl.org/dc/dcmitype/StillImage" /></cc:Work></rdf:RDF></metadata><defs
   id="defs41" /><sodipodi:namedview
   pagecolor="#ffffff"
   bordercolor="#666666"
   borderopacity="1"
   objecttolerance="10"
   gridtolerance="10"
   guidetolerance="10"
   inkscape:pageopacity="0"
   inkscape:pageshadow="2"
   inkscape:window-width="1366"
   inkscape:window-height="704"
   id="namedview39"
   showgrid="false"
   inkscape:zoom="1.0813008"
   inkscape:cx="246"
   inkscape:cy="246"
   inkscape:window-x="1920"
   inkscape:window-y="0"
   inkscape:window-maximized="1"
   inkscape:current-layer="Layer_1" />
<g
   id="g6">
	<g
   id="g4">
		<path
   d="M198.608,246.104L382.664,62.04c5.068-5.056,7.856-11.816,7.856-19.024c0-7.212-2.788-13.968-7.856-19.032l-16.128-16.12    C361.476,2.792,354.712,0,347.504,0s-13.964,2.792-19.028,7.864L109.328,227.008c-5.084,5.08-7.868,11.868-7.848,19.084    c-0.02,7.248,2.76,14.028,7.848,19.112l218.944,218.932c5.064,5.072,11.82,7.864,19.032,7.864c7.208,0,13.964-2.792,19.032-7.864    l16.124-16.12c10.492-10.492,10.492-27.572,0-38.06L198.608,246.104z"
   id="path2" />
	</g>
</g>
<g
   id="g8">
</g>
<g
   id="g10">
</g>
<g
   id="g12">
</g>
<g
   id="g14">
</g>
<g
   id="g16">
</g>
<g
   id="g18">
</g>
<g
   id="g20">
</g>
<g
   id="g22">
</g>
<g
   id="g24">
</g>
<g
   id="g26">
</g>
<g
   id="g28">
</g>
<g
   id="g30">
</g>
<g
   id="g32">
</g>
<g
   id="g34">
</g>
<g
   id="g36">
</g>
<path
   style="opacity:0.99;fill:#ffffff;fill-opacity:0.431373;stroke-width:1.23386"
   d="M 337.55639,489.53808 C 332.80701,487.76105 324.9796,480.14915 219.44475,374.67836 124.68344,279.97457 106.08656,260.97459 104.35866,257.09774 c -2.81795,-6.32256 -2.82857,-15.9208 -0.0241,-21.73675 1.49973,-3.11012 30.88542,-33.02324 115.99675,-118.07871 L 334.31955,3.3689003 339.79908,1.8029751 c 6.69407,-1.91301101 13.47305,-1.39193181 19.14118,1.4713219 2.22666,1.1247934 8.95672,6.878564 14.95569,12.786158 13.08105,12.881783 15.91232,17.675782 15.91232,26.943304 0,11.682679 4.64486,6.513012 -98.45958,109.584101 l -93.4301,93.3999 93.7232,93.87454 c 61.33829,61.43733 94.25738,95.05432 95.26914,97.28886 3.49853,7.72686 3.49125,16.03625 -0.0207,23.69016 -0.86166,1.87787 -6.80007,8.66448 -13.19647,15.08133 -9.94599,9.97782 -12.40473,11.9528 -16.98215,13.64098 -6.64459,2.45054 -12.55847,2.44265 -19.15516,-0.0255 z"
   id="path45" /><path
   style="opacity:0.99;fill:#ffffff;fill-opacity:0.431373;stroke-width:1.23386"
   d="M 337.87959,488.87795 C 335.49647,487.76562 325.3279,478.6784 311.06004,464.91044 279.39609,434.35591 115.2121,269.53525 109.33958,262.40776 c -2.72171,-3.30336 -5.22419,-7.47159 -5.82989,-9.71053 -1.64246,-6.07124 -0.56678,-13.9866 2.52114,-18.5518 1.4387,-2.12698 53.50777,-54.88784 115.70907,-117.24634 L 334.83314,3.5199741 339.83576,2.319867 c 7.2696,-1.7439513 15.41041,-0.785295 20.20895,2.3797929 6.11725,4.0348932 24.23719,22.5971971 26.558,27.2063551 2.79347,5.547882 3.53367,15.209763 1.47084,19.198866 -3.32186,6.42374 -14.63614,18.15263 -100.60558,104.292149 -49.25701,49.35445 -89.5582,90.09674 -89.5582,90.53841 0,0.44166 40.47856,41.42108 89.95234,91.06537 49.47377,49.64429 92.09739,92.84493 94.71914,96.00142 3.67892,4.42927 5.00977,6.90929 5.83129,10.86654 1.39233,6.70681 -0.0316,13.77521 -3.86049,19.16323 -4.44043,6.24861 -22.08314,23.2584 -26.18739,25.24793 -5.38986,2.61276 -15.53408,2.90888 -20.48507,0.59802 z"
   id="path47" /><path
   style="opacity:0.99;fill:#ffffff;fill-opacity:0.431373;stroke-width:1.23386"
   d="M 338.94361,488.81569 C 334.45223,486.98225 315.37699,468.58428 238.2793,391.72549 142.41143,296.15467 108.20682,261.15635 105.51545,255.88083 c -2.66078,-5.21556 -2.63836,-13.85829 0.0503,-19.41242 1.45586,-3.00741 32.54838,-34.76337 116.34154,-118.82401 L 336.26203,2.9246645 344.32997,2.5012059 c 11.99821,-0.6297449 14.45126,0.583388 27.52224,13.6108221 14.47235,14.42413 15.87645,16.67941 16.38209,26.312886 l 0.39909,7.603667 -5.80235,7.212735 c -3.19129,3.967006 -46.1041,47.800504 -95.36181,97.407754 -49.2577,49.60727 -89.55946,90.68638 -89.55946,91.28691 0,0.60053 36.7266,38.12923 81.61467,83.3971 106.87417,107.77847 105.46168,106.31169 107.48929,111.62091 2.10117,5.50184 1.5298,13.44581 -1.38148,19.20694 -2.72763,5.39773 -22.99565,25.44725 -28.03978,27.7375 -4.0582,1.84261 -15.05682,2.38357 -18.64886,0.91726 z"
   id="path49" /><path
   style="opacity:0.99;fill:#ffffff;fill-opacity:0.431373;stroke-width:1.23386"
   d="M 329.1685,480.23896 C 316.81024,469.31788 158.41174,311.56656 129.41937,281.30597 117.3221,268.67952 106.69403,256.8188 105.80145,254.94882 c -2.09221,-4.38324 -2.08601,-13.52751 0.0119,-17.58447 2.11357,-4.08717 27.76721,-30.24668 137.32012,-140.027884 L 337.03743,3.2368421 h 8.67422 c 6.19751,0 9.63835,0.4464649 12.05084,1.5636517 5.04823,2.337752 25.65852,23.2215772 27.7748,28.1434242 0.95744,2.226709 2.01252,6.886586 2.34462,10.355279 l 0.60381,6.306716 -3.96278,4.789575 c -5.38285,6.505909 -28.98914,30.693982 -114.1883,117.002472 -39.83368,40.35233 -72.42487,73.89903 -72.42487,74.54822 0,0.64918 31.10837,32.67221 69.1297,71.16227 94.21206,95.37352 117.68294,119.64081 119.18015,123.22414 1.98789,4.75768 1.63049,13.81283 -0.74107,18.7758 -2.42753,5.08009 -22.88132,25.75823 -27.77647,28.08113 -2.30632,1.09442 -5.68716,1.57364 -11.10192,1.57364 h -7.78571 z"
   id="path51" /><path
   style="opacity:0.99;fill:#ffffff;fill-opacity:0.431373;stroke-width:1.23386"
   d="m 330.01976,480.32406 c -13.79309,-12.45299 -189.80497,-188.0582 -206.19181,-205.7154 -16.70756,-18.00279 -18.16227,-19.92238 -18.91833,-24.96415 -1.18776,-7.92054 0.0806,-11.0279 8.23771,-20.18134 4.13334,-4.6382 56.42033,-57.48121 116.19331,-117.42893 L 338.0188,3.0384198 l 8.73378,0.6305768 c 4.8036,0.3468173 9.81301,1.188658 11.13204,1.8707571 3.49626,1.8079857 15.18207,12.8451383 21.78621,20.5768983 4.8255,5.649416 5.87865,7.527935 6.74024,12.022556 2.19567,11.454253 2.5089,10.446573 -6.33105,20.367059 -4.41332,4.952756 -36.69889,38.113322 -71.74572,73.690133 -82.14906,83.39134 -110.42453,112.49455 -110.42453,113.65714 0,1.26927 3.75238,5.14913 85.55912,88.46601 84.35968,85.91695 100.0402,102.20117 101.93612,105.86067 2.15932,4.16791 1.81539,14.09131 -0.65632,18.93626 -2.28787,4.48458 -22.20753,24.93918 -26.38403,27.09256 -1.52594,0.78676 -6.37401,1.72903 -10.77348,2.09393 l -7.99905,0.66345 z"
   id="path53" /><path
   style="opacity:0.99;fill:#ffffff;fill-opacity:0.431373;stroke-width:1.23386"
   d="M 315.72292,465.80331 C 283.7984,435.03408 121.14854,271.84205 113.94207,263.34986 c -7.20122,-8.48599 -8.63309,-11.30426 -8.77269,-17.26682 -0.20749,-8.86181 -9.983631,1.59052 132.20448,-141.34855 L 338.33923,3.2358996 347.39767,4.175212 c 7.31766,0.7588024 9.73092,1.405349 12.55785,3.3644079 4.60555,3.1916481 22.43739,21.6818161 24.20346,25.0970221 0.76004,1.469753 1.8565,5.397689 2.43658,8.728746 0.89342,5.130396 0.83308,6.485007 -0.3946,8.859089 -1.9206,3.714007 -12.65377,14.885213 -93.02424,96.820633 -82.81,84.42247 -95.26695,97.36113 -95.26695,98.95102 0,1.39667 13.10267,14.97885 101.26413,104.97004 76.77151,78.36485 84.55262,86.53878 86.2561,90.61074 1.95709,4.67818 0.94962,14.08159 -1.98354,18.5139 -3.04042,4.59439 -16.66839,18.92185 -22.0748,23.20786 -3.52356,2.79336 -5.44277,3.59533 -9.71053,4.05773 -2.92546,0.31696 -6.82078,0.78978 -8.65626,1.05071 -3.28823,0.46746 -3.68878,0.13559 -27.28195,-22.6038 z"
   id="path55" /><path
   style="opacity:0.99;fill:#ffffff;fill-opacity:0.431373;stroke-width:1.23386"
   d="m 327.78897,477.13979 c -14.79828,-13.537 -200.26858,-199.15646 -211.08658,-211.25633 -4.32022,-4.83214 -8.61506,-10.45038 -9.54407,-12.48496 -2.23114,-4.88628 -2.20289,-11.23526 0.0665,-14.95715 3.42064,-5.60991 29.05766,-31.8685 130.09668,-133.25091 L 338.94361,3.2229896 l 7.3985,0.9624381 c 12.0025,1.5613541 12.79274,2.0134788 24.84196,14.2132013 12.32284,12.476747 14.50084,16.139891 15.17178,25.517152 l 0.43133,6.028287 -6.29239,6.933981 c -7.5042,8.269361 -14.54675,15.512749 -96.6587,99.415181 -77.09502,78.77611 -85.92632,87.98789 -85.92632,89.62821 0,1.54359 11.7337,13.76782 90.17708,93.94698 76.31061,77.9992 92.09783,94.4095 95.37608,99.14034 2.27717,3.28619 2.62877,4.62839 2.52186,9.62691 -0.0818,3.82616 -0.79712,7.19833 -2.09601,9.88148 -2.57296,5.31503 -21.9985,25.20926 -26.41874,27.05615 -1.85026,0.77309 -6.59315,1.65462 -10.53976,1.95896 l -7.17565,0.55335 z"
   id="path57" /><path
   style="opacity:0.99;fill:#ffffff;fill-opacity:0.431373;stroke-width:1.23386"
   d="M 323.15415,472.3329 C 297.5649,448.05807 116.52352,266.10154 112.00016,260.11154 c -6.54669,-8.66935 -7.8169,-14.06957 -4.84194,-20.58522 2.30232,-5.04246 31.21982,-34.78585 140.43047,-144.441198 l 91.35492,-91.7269151 7.3985,0.9228698 c 4.06917,0.5075784 9.10838,1.7374196 11.19824,2.7329805 5.0033,2.3834546 23.45091,21.3304978 26.03669,26.7415818 1.09379,2.28891 2.26309,6.879317 2.59844,10.200904 l 0.60973,6.03925 -9.06775,9.682555 C 372.7302,65.003753 360.90309,77.268045 351.43501,86.932331 304.25994,135.08497 215.68862,225.89183 207.35235,234.65163 c -5.19342,5.45727 -9.44258,10.51855 -9.44258,11.2473 0,1.70342 11.21017,13.40629 97.10025,101.36799 77.69997,79.57406 86.19688,88.44819 88.84201,92.78623 2.4199,3.96867 2.38629,12.6361 -0.07,18.04903 -1.13589,2.50319 -6.09964,8.31556 -13.15825,15.40784 -12.30538,12.36406 -12.99045,12.74892 -24.81175,13.93851 l -6.07895,0.61173 -16.57894,-15.72736 z"
   id="path59" /><path
   style="opacity:0.99;fill:#ffffff;fill-opacity:0.431373;stroke-width:1.23386"
   d="M 325.40927,474.35719 C 273.53189,424.35662 115.45281,264.98235 110.33442,257.52017 c -3.91005,-5.70051 -5.25368,-10.95557 -3.99568,-15.62743 1.43784,-5.33974 12.88584,-17.25559 129.32922,-134.61454 L 338.43885,3.6992481 341.92807,3.971869 c 6.94936,0.5429695 13.74001,2.2537557 17.46387,4.3997225 5.53343,3.1887705 21.09248,19.9236965 23.85233,25.6549625 1.27539,2.648553 2.59114,7.342673 2.92389,10.431378 l 0.60502,5.615827 -11.87263,12.418008 c -6.52994,6.829904 -44.76728,46.127403 -84.97188,87.327783 -87.8278,90.00312 -92.0189,94.38061 -92.0189,96.11121 0,1.6434 6.06962,7.98909 92.50448,96.7121 103.84808,106.59719 95.86653,97.56876 94.97243,107.42904 -0.68467,7.5506 -3.7234,12.21482 -15.87405,24.36548 -11.17157,11.17156 -12.04084,11.63768 -24.2199,12.98713 l -5.67344,0.62861 z"
   id="path61" /><path
   style="opacity:0.99;fill:#ffffff;fill-opacity:0.431373;stroke-width:1.23386"
   d="M 313.41005,462.64864 C 282.14152,432.40036 142.12409,291.75661 122.97164,271.35836 c -7.39098,-7.87174 -14.2287,-15.96528 -15.19493,-17.98568 -0.96623,-2.02039 -1.76179,-5.61005 -1.7679,-7.97703 -0.0136,-5.27967 0.94085,-6.60626 17.52855,-24.36182 C 134.21335,209.6062 256.97551,85.447283 317.54384,24.820004 l 21.39977,-21.4205958 6.01128,0.8544767 c 10.53961,1.4981588 14.43508,3.300405 21.51802,9.9553261 8.5873,8.068375 17.00082,18.704375 18.21255,23.02349 0.53374,1.902466 1.22469,5.567 1.53545,8.143409 l 0.56501,4.684381 -11.879,12.424642 c -6.53344,6.833553 -44.77365,46.134037 -84.97825,87.334417 -87.4726,89.63913 -92.0189,94.38508 -92.0189,96.06011 0,1.65192 9.14412,11.21695 92.50514,96.7632 102.32659,105.00898 95.85427,97.69659 94.9825,107.31073 -0.26016,2.86903 -1.1654,6.55536 -2.01166,8.19184 -2.20303,4.26019 -13.59603,16.94571 -20.02192,22.2934 -5.76671,4.7991 -8.82702,5.98469 -18.04777,6.99187 l -5.65011,0.61714 z"
   id="path63" /><path
   style="opacity:0.99;fill:#ffffff;fill-opacity:0.431373;stroke-width:1.23386"
   d="M 313.30169,462.48654 C 259.46348,410.28678 117.76197,267.11609 110.76898,257.85394 c -3.25123,-4.30623 -3.9077,-5.92059 -4.23228,-10.40791 -0.26082,-3.60573 0.0673,-6.17537 1.02194,-8.00263 2.54424,-4.87005 16.36845,-19.12316 124.28134,-128.13714 L 338.6246,3.4320782 l 3.85875,0.4457381 c 7.3654,0.8508022 14.97534,3.1467778 18.48846,5.5781032 4.34029,3.0037875 16.30382,15.6169195 20.24259,21.3417155 2.83888,4.126162 5.31373,12.014397 5.34258,17.028704 0.0171,2.963016 2.93842,-0.118398 -98.0108,103.380431 -86.17309,88.3495 -90.63641,93.01076 -90.63641,94.65593 0,1.66235 11.255,13.44012 92.48445,96.78016 95.66156,98.14714 95.27505,97.72328 95.23033,104.4311 -0.0577,8.6516 -2.38103,12.95492 -13.39526,24.81068 -9.22912,9.93424 -15.03852,13.77783 -22.65034,14.98578 -3.30621,0.52467 -6.93793,0.9571 -8.0705,0.96094 -1.44782,0.005 -9.82261,-7.52015 -28.20676,-25.34482 z"
   id="path65" /><path
   style="opacity:0.99;fill:#ffffff;fill-opacity:0.431373;stroke-width:1.23386"
   d="M 313.30169,462.48654 C 259.46348,410.28678 117.76197,267.11609 110.76898,257.85394 c -3.25123,-4.30623 -3.9077,-5.92059 -4.23228,-10.40791 -0.26082,-3.60573 0.0673,-6.17537 1.02194,-8.00263 2.5356,-4.85351 16.25905,-19.00731 124.32831,-128.22709 L 338.7138,3.2521784 l 3.81416,0.5366331 c 7.89174,1.1103317 15.02784,3.3029884 18.44385,5.667108 4.31494,2.9862495 16.29564,15.6050115 20.19003,21.2653195 3.01675,4.384695 5.38035,11.680706 5.39861,16.664581 0.0118,3.223591 -2.55232,6.059598 -41.60855,46.020195 C 229.31776,211.71773 197.90977,244.30502 197.90977,245.96927 c 0,1.397 9.30067,11.13436 79.96939,83.72419 81.19012,83.39726 86.59109,88.97819 94.93583,98.09918 10.98165,12.00317 12.84093,14.936 12.79104,20.17664 -0.0596,6.25606 -1.88931,10.42412 -7.68708,17.51072 -10.97616,13.41613 -19.33829,19.84004 -27.81624,21.36882 -10.47026,1.88804 -8.12649,3.43962 -36.80102,-24.36228 z"
   id="path67" /><path
   style="opacity:0.99;fill:#ffffff;fill-opacity:0.431373;stroke-width:1.23386"
   d="M 313.30169,462.48654 C 259.46348,410.28678 117.76197,267.11609 110.76898,257.85394 c -3.25123,-4.30623 -3.9077,-5.92059 -4.23228,-10.40791 -0.49308,-6.81678 0.4086,-8.49201 10.48494,-19.47986 6.92923,-7.55606 187.06789,-190.097846 212.93907,-215.77977 l 9.15121,-9.0842767 5.92713,1.0361642 c 12.29765,2.1498447 14.48189,3.3219549 24.01517,12.8870295 4.86197,4.878181 10.21674,10.88787 11.89949,13.354866 3.19106,4.678251 5.58796,11.923194 5.60674,16.947088 0.0133,3.561088 2.86457,0.528199 -92.007,97.868219 -87.59161,89.87065 -96.64368,99.30304 -96.64368,100.70415 0,1.3514 13.74926,15.69909 98.07968,102.34862 71.63173,73.60162 83.07342,85.63485 86.93274,91.42721 4.66125,6.99593 3.46685,15.25377 -3.45872,23.91285 -10.97313,13.71979 -19.95224,21.12154 -27.88871,22.98953 -11.50393,2.70766 -9.02093,4.2706 -38.27307,-24.09131 z"
   id="path69" /><path
   style="opacity:0.99;fill:#ffffff;fill-opacity:0.431373;stroke-width:1.23386"
   d="M 313.30169,462.48654 C 259.46348,410.28678 117.76197,267.11609 110.76898,257.85394 c -3.25123,-4.30623 -3.9077,-5.92059 -4.23228,-10.40791 -0.25899,-3.58042 0.0695,-6.18839 1.00798,-8.00324 2.56782,-4.96562 27.57197,-30.77256 129.65967,-133.82252 L 338.71001,3.1578222 l 4.27846,0.5644604 c 2.35315,0.3104532 7.16308,1.4035627 10.68874,2.4291323 6.01101,1.748524 6.96488,2.4214901 15.31363,10.8039971 4.89683,4.916628 10.28012,10.957775 11.96287,13.424771 3.19106,4.678251 5.58796,11.923194 5.60674,16.947088 0.0133,3.572738 2.31241,1.12595 -91.08996,96.943409 -84.34474,86.52562 -97.56072,100.29772 -97.56072,101.66598 0,1.23 13.8751,15.69371 99.93164,104.17097 88.77449,91.27166 87.80993,90.20131 87.80005,97.42874 -0.0113,8.23779 -3.28156,13.98355 -14.68477,25.80047 -7.61219,7.88837 -13.37919,11.82816 -19.38193,13.24101 -11.50393,2.70766 -9.02093,4.2706 -38.27307,-24.09131 z"
   id="path71" /><path
   style="opacity:0.99;fill:#ffffff;fill-opacity:0.431373;stroke-width:1.23386"
   d="M 313.30169,462.48654 C 259.64605,410.4638 117.7658,267.12115 110.8083,257.90601 c -3.95705,-5.24107 -5.4245,-11.15383 -4.0889,-16.47529 1.29413,-5.15623 8.14582,-12.2618 146.11425,-151.52837 l 85.92824,-86.7367474 4.25252,0.5605702 c 2.33888,0.3083136 7.13714,1.3996725 10.6628,2.4252421 6.01101,1.748524 6.96488,2.4214901 15.31363,10.8039971 4.89683,4.916628 10.28012,10.957775 11.96287,13.424771 3.19106,4.678251 5.58796,11.923194 5.60674,16.947088 0.0133,3.560146 2.28978,1.134603 -89.19813,95.039389 -86.60782,88.89579 -99.45255,102.26839 -99.45255,103.53975 0,1.20412 15.65406,17.52253 100.85862,105.13902 87.72391,90.20716 86.88294,89.27309 86.87307,96.49094 -0.0113,8.23779 -3.28156,13.98355 -14.68477,25.80047 -7.61219,7.88837 -13.37919,11.82816 -19.38193,13.24101 -11.50393,2.70766 -9.02093,4.2706 -38.27307,-24.09131 z"
   id="path73" /><path
   style="opacity:0.99;fill:#ffffff;fill-opacity:0.431373;stroke-width:1.23386"
   d="M 313.30169,462.48654 C 259.64605,410.4638 117.7658,267.12115 110.8083,257.90601 c -3.95705,-5.24107 -5.4245,-11.15383 -4.0889,-16.47529 1.29418,-5.1564 8.14314,-12.25911 146.14206,-151.556405 l 85.95606,-86.7647827 4.6871,0.6364102 c 2.57791,0.3500257 7.37108,1.4614234 10.6515,2.4697728 5.40242,1.6606229 6.80171,2.6740719 14.85121,10.7561917 4.88776,4.907557 10.26363,10.94128 11.94638,13.408276 3.19106,4.678251 5.58796,11.923194 5.60674,16.947088 0.0133,3.55667 2.19369,1.232279 -88.27196,94.101459 -81.82678,84.00079 -100.37872,103.27736 -100.37872,104.2995 0,1.21719 8.19413,9.84835 58.20498,61.30936 137.58974,141.57942 129.53717,132.84473 129.52671,140.49878 -0.0113,8.23779 -3.28156,13.98355 -14.68477,25.80047 -10.06391,10.42902 -17.74675,14.46287 -27.59861,14.49053 -3.86845,0.0109 -4.17903,-0.25099 -30.05639,-25.34083 z"
   id="path75" /><path
   style="opacity:0.99;fill:#ffffff;fill-opacity:0.431373;stroke-width:1.23386"
   d="M 313.30169,462.48654 C 259.64605,410.4638 117.7658,267.12115 110.8083,257.90601 c -3.95705,-5.24107 -5.4245,-11.15383 -4.0889,-16.47529 1.29418,-5.1564 8.14314,-12.25911 146.14206,-151.556405 l 85.95606,-86.7647827 4.6871,0.6364102 c 2.57791,0.3500257 7.37108,1.4614234 10.6515,2.4697728 5.40242,1.6606229 6.80171,2.6740719 14.85121,10.7561917 4.88776,4.907557 10.26363,10.94128 11.94638,13.408276 3.19106,4.678251 5.58796,11.923194 5.60674,16.947088 0.0132,3.543647 2.28905,1.115343 -86.88738,92.709899 -81.27939,83.48339 -101.7633,104.76833 -101.7633,105.74286 0,1.13547 8.17549,9.72484 59.62627,62.64478 133.32555,137.13266 128.11586,131.47539 128.10542,139.11156 -0.0113,8.23779 -3.28156,13.98355 -14.68477,25.80047 -10.06391,10.42902 -17.74675,14.46287 -27.59861,14.49053 -3.86845,0.0109 -4.17903,-0.25099 -30.05639,-25.34083 z"
   id="path77" /><path
   style="opacity:0.99;fill:#ffffff;fill-opacity:0.431373;stroke-width:1.23386"
   d="M 313.30169,462.48654 C 259.64605,410.4638 117.7658,267.12115 110.8083,257.90601 c -3.95705,-5.24107 -5.4245,-11.15383 -4.0889,-16.47529 1.29418,-5.1564 8.14314,-12.25911 146.14206,-151.556405 l 85.95606,-86.7647827 4.6871,0.6364102 c 2.57791,0.3500257 7.37108,1.4614234 10.6515,2.4697728 5.40242,1.6606229 6.80171,2.6740719 14.85121,10.7561917 4.88776,4.907557 10.26363,10.94128 11.94638,13.408276 3.19106,4.678251 5.58796,11.923194 5.60674,16.947088 0.0132,3.5329 2.41899,0.964044 -85.96475,91.791649 -83.78957,86.1064 -100.82525,103.78759 -101.8861,105.74673 -1.07966,1.99387 -5.23161,-2.43881 76.42551,81.593 113.32466,116.62027 110.51653,113.54426 110.50635,121.04823 -0.0112,8.26951 -3.26928,14.00032 -14.68477,25.82996 -10.06391,10.42902 -17.74675,14.46287 -27.59861,14.49053 -3.86845,0.0109 -4.17903,-0.25099 -30.05639,-25.34083 z"
   id="path79" /><path
   style="opacity:0.99;fill:#ffffff;fill-opacity:0.431373;stroke-width:1.23386"
   d="M 313.30169,462.48654 C 259.64605,410.4638 117.7658,267.12115 110.8083,257.90601 c -3.95705,-5.24107 -5.4245,-11.15383 -4.0889,-16.47529 1.29423,-5.1566 8.14033,-12.2563 146.17114,-151.585729 l 85.98515,-86.794106 4.43683,0.5885661 c 2.44026,0.3237113 7.22034,1.4483047 10.62241,2.4990963 5.66213,1.7488521 6.93762,2.6656226 15.0724,10.8333596 4.88776,4.907557 10.26363,10.94128 11.94638,13.408276 3.19106,4.678251 5.58796,11.923194 5.60674,16.947088 0.0132,3.534221 2.27152,1.121985 -85.49823,91.325889 -82.12283,84.40037 -101.23821,104.23623 -102.30515,106.16114 -1.0834,1.95463 -0.71606,2.35037 62.4786,67.30976 126.28082,129.80727 124.41623,127.77771 124.40579,135.41231 -0.0113,8.23779 -3.28156,13.98355 -14.68477,25.80047 -10.06391,10.42902 -17.74675,14.46287 -27.59861,14.49053 -3.86845,0.0109 -4.17903,-0.25099 -30.05639,-25.34083 z"
   id="path81" /><path
   style="opacity:0.99;fill:#ffffff;fill-opacity:0.431373;stroke-width:1.23386"
   d="M 313.30169,462.48654 C 259.64605,410.4638 117.7658,267.12115 110.8083,257.90601 c -3.95705,-5.24107 -5.4245,-11.15383 -4.0889,-16.47529 1.29423,-5.1566 8.14033,-12.2563 146.17114,-151.585729 l 85.98515,-86.794106 4.43683,0.5885661 c 2.44026,0.3237113 7.22034,1.4483047 10.62241,2.4990963 5.66213,1.7488521 6.93762,2.6656226 15.0724,10.8333596 4.88776,4.907557 10.26363,10.94128 11.94638,13.408276 3.19106,4.678251 5.58796,11.923194 5.60674,16.947088 0.0132,3.524426 2.36844,1.007358 -84.57743,90.388139 -82.62611,84.94007 -102.15626,105.20541 -103.22071,107.10632 -1.08714,1.94145 -1.17603,1.84585 63.8621,68.68955 123.61068,127.04233 123.02747,126.40692 123.01705,134.02509 -0.0113,8.23779 -3.28156,13.98355 -14.68477,25.80047 -10.06391,10.42902 -17.74675,14.46287 -27.59861,14.49053 -3.86845,0.0109 -4.17903,-0.25099 -30.05639,-25.34083 z"
   id="path83" /><path
   style="opacity:0.99;fill:#ffffff;fill-opacity:0.431373;stroke-width:1.23386"
   d="M 313.30169,462.48654 C 259.64605,410.4638 117.7658,267.12115 110.8083,257.90601 c -3.95705,-5.24107 -5.4245,-11.15383 -4.0889,-16.47529 1.29423,-5.1566 8.14033,-12.2563 146.17114,-151.585729 l 85.98515,-86.794106 4.43683,0.5885661 c 2.44026,0.3237113 7.22034,1.4483047 10.62241,2.4990963 5.66213,1.7488521 6.93762,2.6656226 15.0724,10.8333596 4.88776,4.907557 10.26363,10.94128 11.94638,13.408276 3.19106,4.678251 5.58796,11.923194 5.60674,16.947088 0.0131,3.512373 2.54322,0.806067 -83.65416,89.480669 -88.5267,91.07088 -103.15204,106.23742 -104.1277,107.98085 -1.08345,1.93604 -1.43777,1.55817 80.04919,85.3691 81.93214,84.26881 99.67559,102.95692 104.39265,109.95049 4.23599,6.28033 3.01656,14.81616 -3.27839,22.94813 -13.27007,17.14264 -24.48598,24.73689 -36.58396,24.77086 -3.86845,0.0109 -4.17903,-0.25099 -30.05639,-25.34083 z"
   id="path85" /><path
   style="opacity:0.99;fill:#ffffff;fill-opacity:0.431373;stroke-width:1.23386"
   d="M 313.30169,462.48654 C 259.64605,410.4638 117.7658,267.12115 110.8083,257.90601 c -3.95705,-5.24107 -5.4245,-11.15383 -4.0889,-16.47529 1.29423,-5.1566 8.14033,-12.2563 146.17114,-151.585729 l 85.98515,-86.794106 4.43683,0.5885661 c 2.44026,0.3237113 7.22034,1.4483047 10.62241,2.4990963 5.66213,1.7488521 6.93762,2.6656226 15.0724,10.8333596 4.88776,4.907557 10.26363,10.94128 11.94638,13.408276 3.19106,4.678251 5.58796,11.923194 5.60674,16.947088 0.0131,3.510529 2.38171,0.975534 -82.72644,88.538689 -87.68388,90.21319 -104.04498,107.18026 -105.04625,108.9369 -1.06994,1.87712 -0.59274,2.38927 66.60493,71.48285 120.07525,123.46307 120.25914,123.66379 120.24877,131.25066 -0.0113,8.23779 -3.28156,13.98355 -14.68477,25.80047 -10.06391,10.42902 -17.74675,14.46287 -27.59861,14.49053 -3.86845,0.0109 -4.17903,-0.25099 -30.05639,-25.34083 z"
   id="path87" /></svg>
