<?xml version="1.0" encoding="UTF-8" standalone="no"?>
<svg
   xmlns:dc="http://purl.org/dc/elements/1.1/"
   xmlns:cc="http://creativecommons.org/ns#"
   xmlns:rdf="http://www.w3.org/1999/02/22-rdf-syntax-ns#"
   xmlns:svg="http://www.w3.org/2000/svg"
   xmlns="http://www.w3.org/2000/svg"
   xmlns:sodipodi="http://sodipodi.sourceforge.net/DTD/sodipodi-0.dtd"
   xmlns:inkscape="http://www.inkscape.org/namespaces/inkscape"
   version="1.1"
   id="Capa_1"
   x="0px"
   y="0px"
   width="451.847px"
   height="451.847px"
   viewBox="0 0 451.847 451.847"
   style="enable-background:new 0 0 451.847 451.847;"
   xml:space="preserve"
   sodipodi:docname="flecha-hacia-abajo-para-navegar.svg"
   inkscape:version="1.0.1 (3bc2e813f5, 2020-09-07)"><metadata
   id="metadata41"><rdf:RDF><cc:Work
       rdf:about=""><dc:format>image/svg+xml</dc:format><dc:type
         rdf:resource="http://purl.org/dc/dcmitype/StillImage" /></cc:Work></rdf:RDF></metadata><defs
   id="defs39" /><sodipodi:namedview
   pagecolor="#ffffff"
   bordercolor="#666666"
   borderopacity="1"
   objecttolerance="10"
   gridtolerance="10"
   guidetolerance="10"
   inkscape:pageopacity="0"
   inkscape:pageshadow="2"
   inkscape:window-width="1366"
   inkscape:window-height="704"
   id="namedview37"
   showgrid="false"
   inkscape:zoom="1.1773897"
   inkscape:cx="106.29452"
   inkscape:cy="184.91169"
   inkscape:window-x="1920"
   inkscape:window-y="0"
   inkscape:window-maximized="1"
   inkscape:current-layer="Capa_1" />
<g
   id="g4">
	<path
   d="M225.923,354.706c-8.098,0-16.195-3.092-22.369-9.263L9.27,151.157c-12.359-12.359-12.359-32.397,0-44.751   c12.354-12.354,32.388-12.354,44.748,0l171.905,171.915l171.906-171.909c12.359-12.354,32.391-12.354,44.744,0   c12.365,12.354,12.365,32.392,0,44.751L248.292,345.449C242.115,351.621,234.018,354.706,225.923,354.706z"
   id="path2" />
</g>
<g
   id="g6">
</g>
<g
   id="g8">
</g>
<g
   id="g10">
</g>
<g
   id="g12">
</g>
<g
   id="g14">
</g>
<g
   id="g16">
</g>
<g
   id="g18">
</g>
<g
   id="g20">
</g>
<g
   id="g22">
</g>
<g
   id="g24">
</g>
<g
   id="g26">
</g>
<g
   id="g28">
</g>
<g
   id="g30">
</g>
<g
   id="g32">
</g>
<g
   id="g34">
</g>
<path
   style="opacity:0.99;fill:#ffffff;fill-opacity:0.431373;stroke-width:1.13316"
   d="M 220.09003,353.68271 C 210.9829,351.89292 213.29442,354.05818 106.92696,247.68063 24.920156,165.66606 4.9511122,145.26741 3.3145938,141.83919 c -1.736453,-3.63758 -2.0281803,-5.52582 -2.0339054,-13.16472 -0.0064,-8.53715 0.1166166,-9.14541 2.8802969,-14.24196 1.5878393,-2.92817 4.3450767,-6.64124 6.1271947,-8.25127 7.106678,-6.42046 17.471994,-9.695872 25.807232,-8.15502 10.67399,1.973195 6.502194,-1.852793 101.284758,92.88908 l 88.54332,88.5053 88.54333,-88.5053 c 94.78256,-94.741873 90.61077,-90.915885 101.28475,-92.88908 6.05015,-1.118429 12.61846,0.132308 19.3366,3.68207 5.69262,3.0079 9.7933,7.24588 13.11937,13.55864 2.1543,4.08878 2.36485,5.28551 2.35876,13.40754 -0.006,7.64431 -0.29665,9.52457 -2.03688,13.16472 -1.63547,3.42098 -21.68291,23.92547 -103.10721,105.45787 -107.49889,107.64161 -104.15216,104.52522 -114.30629,106.43876 -5.15123,0.97075 -5.83284,0.96746 -11.02589,-0.0531 z"
   id="path918" /><path
   style="opacity:0.99;fill:#ffffff;fill-opacity:0.431373;stroke-width:1.13316"
   d="m 218.62927,352.99749 c -6.86231,-1.77065 -11.23853,-5.8764 -91.93549,-86.25372 C 45.888695,186.25874 5.3474085,144.69758 3.3490969,140.29617 1.0903313,135.32108 1.0692744,122.04251 3.3124848,117.20843 7.3782968,108.44667 14.132632,102.47022 23.135838,99.668106 c 10.601259,-3.299483 17.739835,-1.577085 27.472364,6.628544 3.697103,3.11708 44.655496,43.52533 91.018648,89.79613 l 84.29664,84.1287 84.29664,-84.1287 c 46.36316,-46.2708 87.32819,-86.68472 91.03341,-89.80873 11.06705,-9.331021 19.99223,-10.545445 32.40732,-4.40957 6.8209,3.37107 10.92685,7.48146 14.36462,14.38018 1.82476,3.66182 2.12022,5.39932 2.10418,12.37424 -0.014,6.09101 -0.41584,8.98895 -1.61159,11.62218 -2.16607,4.77007 -35.42992,38.88382 -123.76829,126.93061 -71.27867,71.04341 -82.32061,81.59187 -88.4584,84.50505 -3.47465,1.64919 -13.47437,2.39129 -17.66211,1.31075 z"
   id="path920" /><path
   style="opacity:0.99;fill:#ffffff;fill-opacity:0.431373;stroke-width:1.13316"
   d="M 215.85986,351.50999 C 210.30298,348.67286 195.7759,334.72263 125.80527,265.0314 60.004042,199.49291 13.165057,151.85074 6.1984406,143.37357 2.6059021,139.00207 1.1444771,131.03604 2.4489841,122.93579 5.2871272,105.31253 26.750566,93.561427 42.26312,101.13779 c 6.135243,2.99646 10.222721,6.95094 107.43242,103.93669 l 76.22794,76.05233 75.80328,-75.61757 c 90.92429,-90.70153 100.98875,-100.52146 106.01892,-103.44292 7.75472,-4.503857 15.84727,-4.511673 25.01197,-0.0242 6.68185,3.27179 10.73328,7.05505 13.88254,12.96365 2.56009,4.80324 2.74205,5.70308 2.73278,13.51441 -0.005,4.6027 -0.37146,9.31943 -0.81332,10.48163 -1.6681,4.38741 -19.86689,23.15271 -105.78559,109.07854 -84.07679,84.08378 -100.30847,99.81429 -106.21108,102.93173 -3.89543,2.05735 -17.03001,2.37321 -20.70312,0.49787 z"
   id="path922" /><path
   style="opacity:0.99;fill:#ffffff;fill-opacity:0.431373;stroke-width:1.13316"
   d="M 213.72063,349.39998 C 207.79146,345.47266 167.73875,306.36534 98.86615,237.25647 25.570953,163.70983 7.2550244,144.79163 4.902728,140.20332 2.4582974,135.43529 1.9203364,126.17228 3.7269424,119.95777 6.4269932,110.66993 15.078676,102.7608 25.384288,100.15924 c 6.46396,-1.631776 11.43164,-1.102392 17.230656,1.83619 5.516191,2.79527 14.297705,11.31047 104.497016,101.328 l 78.74038,78.58169 85.60622,-85.35674 c 47.08342,-46.94621 88.28094,-87.55523 91.55003,-90.24226 9.80921,-8.062697 18.07089,-9.207496 29.03334,-4.02308 6.62195,3.13169 10.63147,6.74497 14.04447,12.65654 2.69681,4.67105 2.77793,5.09358 2.67982,13.95849 -0.0952,8.60066 -0.24576,9.35163 -2.54455,12.69034 -5.73283,8.32623 -175.00136,178.5109 -198.97728,200.05422 -10.82603,9.72762 -12.28082,10.39542 -22.66163,10.40258 -6.2654,0.004 -7.20892,-0.22544 -10.86213,-2.64523 z"
   id="path924" /><path
   style="opacity:0.99;fill:#ffffff;fill-opacity:0.431373;stroke-width:1.13316"
   d="m 220.46862,351.40887 c -1.83234,-0.18055 -4.88995,-1.40174 -6.79469,-2.71377 -1.90474,-1.31203 -14.1648,-12.69873 -27.24458,-25.30378 C 156.56626,294.61212 24.449178,161.97175 13.391236,149.66785 4.2102347,139.45237 3.4093907,137.69506 3.4020824,127.74846 c -0.00404,-5.50115 0.3774991,-7.21162 2.6013192,-11.66188 2.9924748,-5.98847 7.6886774,-10.44096 14.3806734,-13.63437 3.836251,-1.83065 5.886039,-2.22928 11.466041,-2.22983 11.823075,-0.001 4.317388,-6.770509 115.297394,103.98593 l 78.77592,78.61724 76.22798,-76.05134 c 97.92725,-97.70034 102.16918,-101.80539 108.28342,-104.78953 4.22248,-2.060845 5.64667,-2.334295 10.6167,-2.038449 10.65323,0.634149 21.00518,7.565159 25.6597,17.180129 2.46725,5.09665 2.46872,17.14721 0.003,22.24129 -1.12883,2.33186 -13.85733,16.01148 -36.40499,39.1253 -48.75471,49.97894 -159.72351,160.22697 -167.61439,166.52571 -4.0106,3.2014 -7.66369,5.4204 -9.3427,5.67506 -5.29636,0.80331 -9.57697,1.04093 -12.88324,0.71515 z"
   id="path926" /><path
   style="opacity:0.99;fill:#ffffff;fill-opacity:0.431373;stroke-width:1.13316"
   d="m 216.84499,350.01356 c -4.94629,-2.256 -19.59278,-16.36271 -94.84483,-91.34943 C 38.560286,175.51845 9.7676827,146.0148 6.3132581,140.12027 4.2557785,136.60945 3.9635124,135.21841 3.923823,128.74775 c -0.039042,-6.36515 0.2724021,-8.02161 2.2795447,-12.12407 2.6017729,-5.31783 7.9094943,-10.64993 13.4592693,-13.5211 2.729122,-1.4119 5.621873,-2.00882 11.073817,-2.28508 8.691192,-0.4404 9.723746,0.0355 20.6484,9.51639 3.737081,3.2432 44.530982,43.55465 90.653116,89.581 l 83.85843,83.68427 87.28286,-87.03222 c 48.00558,-47.86771 89.50488,-88.71516 92.22067,-90.77209 5.93847,-4.49779 10.74675,-5.889664 17.56773,-5.08541 9.26295,1.09219 18.85198,7.68739 22.91292,15.75917 1.7652,3.50862 2.07383,5.29849 2.03144,11.78119 -0.0275,4.20422 -0.45103,8.61464 -0.9412,9.80094 -1.69705,4.1072 -23.81388,27.04183 -94.45478,97.94736 -79.45939,79.75704 -109.29049,108.85461 -115.07295,112.24335 -4.87782,2.8586 -16.09931,3.82401 -20.5981,1.77211 z"
   id="path928" /><path
   style="opacity:0.99;fill:#ffffff;fill-opacity:0.431373;stroke-width:1.13316"
   d="m 218.06108,350.02712 c -1.75508,-0.64818 -5.37746,-3.03807 -8.04972,-5.31086 C 195.96084,332.76613 36.56761,173.59485 14.08081,149.05854 5.2701863,139.4449 4.244606,137.29866 4.2549793,128.49597 c 0.010029,-8.51036 2.0471251,-13.59675 7.7200757,-19.27612 5.59089,-5.59722 11.314705,-7.91482 19.864832,-8.04336 6.85089,-0.103 7.130424,-0.0266 12.005582,3.2795 5.153091,3.49463 39.06274,36.7037 129.565331,126.88849 l 52.38036,52.19643 83.93814,-83.23295 c 46.16597,-45.77813 87.23874,-86.30529 91.2728,-90.06037 10.36955,-9.65242 16.1425,-11.367046 26.94824,-8.00392 8.50228,2.6462 16.04449,9.2848 18.75316,16.50639 1.40329,3.74131 1.12325,16.40985 -0.43535,19.69434 -2.23282,4.70532 -31.34043,34.7419 -108.65692,112.12469 -77.48642,77.55286 -96.31151,95.68026 -101.92037,98.14296 -4.82914,2.12035 -13.66472,2.77943 -17.62978,1.31507 z"
   id="path930" /><path
   style="opacity:0.99;fill:#ffffff;fill-opacity:0.431373;stroke-width:1.13316"
   d="M 214.74594,347.93711 C 212.56894,346.5358 201.6762,336.61584 190.53986,325.89274 157.37964,293.96305 14.304316,149.92235 9.9770208,144.11159 5.1658479,137.65107 3.8970394,133.47217 4.5163212,126.12646 c 0.5916907,-7.01844 2.2961663,-11.02655 6.7386398,-15.84606 5.398928,-5.85715 10.613248,-8.16054 19.496907,-8.61264 6.764562,-0.34425 7.710745,-0.19137 11.096795,1.79299 5.107235,2.99304 21.72949,19.02612 87.250477,84.15789 31.06448,30.87994 65.55488,65.11976 76.64532,76.08848 l 20.16445,19.94312 22.72704,-22.47918 c 12.49988,-12.36356 45.85023,-45.42529 74.1119,-73.47053 92.10058,-91.395247 86.85111,-86.70348 96.82435,-86.53776 7.2905,0.12115 14.0661,2.79681 19.53594,7.71468 6.7716,6.08825 8.07181,9.2307 8.04505,19.44395 -0.0267,10.16532 0.45642,9.24078 -12.00407,22.97522 -12.17983,13.42506 -158.68641,160.4457 -178.64952,179.27636 -19.28127,18.18749 -20.79958,19.16221 -30.51684,19.59088 -6.90465,0.3046 -7.482,0.19019 -11.23682,-2.22675 z"
   id="path932" /><path
   style="opacity:0.99;fill:#ffffff;fill-opacity:0.431373;stroke-width:1.13316"
   d="m 216.67656,348.94878 c -1.5823,-0.80882 -6.93312,-5.097 -11.89071,-9.5293 C 192.84254,328.74167 28.518755,164.33655 16.302553,150.84289 8.2527415,141.95131 6.5572829,139.58529 5.4117361,135.64475 1.7869999,123.1761 8.3242583,109.10299 20.176309,103.86026 c 5.523579,-2.44334 15.973663,-3.02358 20.004648,-1.11075 5.164853,2.45089 20.67767,17.23605 84.439953,80.47917 33.52751,33.25452 70.04001,69.45287 81.13889,80.44078 l 20.1798,19.978 18.46501,-18.24293 c 10.15576,-10.03362 40.2505,-39.85461 66.87719,-66.26888 96.35629,-95.58756 97.20991,-96.38646 104.40104,-97.70885 9.88184,-1.817182 23.62311,4.92559 29.1066,14.28245 2.07178,3.53522 2.29104,4.70635 2.25706,12.05525 -0.0263,5.68711 -0.44104,8.91974 -1.37648,10.72866 -2.66301,5.14971 -23.71969,26.85614 -105.08611,108.32877 -81.97731,82.08433 -99.06982,98.5795 -105.15481,101.47998 -4.56356,2.17526 -15.05459,2.53715 -18.75254,0.64687 z"
   id="path934" /><path
   style="opacity:0.99;fill:#ffffff;fill-opacity:0.431373;stroke-width:1.13316"
   d="M 216.86683,349.04093 C 211.03142,346.04695 193.35089,328.92987 111.24788,246.78792 24.366064,159.8649 9.2219624,144.21525 6.3111433,138.34812 3.7265383,133.13852 4.1026866,122.6533 7.0934788,116.54034 9.760643,111.08886 14.735797,106.26686 20.176309,103.86026 c 5.439917,-2.40633 15.975189,-3.02285 19.892248,-1.16408 5.139943,2.43906 22.486186,18.96373 85.006923,80.98072 33.2775,33.00936 69.58544,69.00657 80.68432,79.9938 l 20.1798,19.97676 18.46501,-18.24293 c 10.15576,-10.03362 40.2505,-39.85768 66.87719,-66.27568 94.18805,-93.44986 97.3421,-96.40435 104.27702,-97.67937 10.00371,-1.839239 23.71431,4.8469 29.22642,14.25261 2.07848,3.54666 2.28431,4.66851 2.22364,12.11986 -0.046,5.6588 -0.47785,9.00622 -1.38898,10.76815 -2.60785,5.04301 -25.16489,28.27842 -105.88217,109.06641 -81.45205,81.52339 -98.30342,97.78295 -104.30863,100.6454 -4.43636,2.11463 -15.05701,2.53747 -18.56227,0.73902 z"
   id="path936" /><path
   style="opacity:0.99;fill:#ffffff;fill-opacity:0.431373;stroke-width:1.13316"
   d="m 218.60312,349.8197 c -3.38306,-0.76457 -13.5054,-10.05611 -51.21161,-47.0084 C 129.40866,265.58789 27.283121,162.65331 14.644548,148.85427 6.1701423,139.60174 4.7813597,136.83188 4.7395075,129.09914 c -0.044852,-8.28691 2.0601324,-13.88326 7.2110955,-19.17156 5.99125,-6.15099 10.460578,-7.93645 19.964096,-7.97552 7.255875,-0.0298 7.904347,0.11639 11.041374,2.48966 7.080373,5.35654 27.280723,24.97081 103.550817,100.54648 43.44156,43.04603 79.17873,78.2655 79.41593,78.2655 0.23721,0 36.54798,-35.78506 80.69061,-79.52235 83.31234,-82.54735 99.17879,-97.78613 104.87417,-100.72546 9.27044,-4.784383 26.05809,1.2939 32.75971,11.86125 2.36521,3.72956 2.50348,4.44354 2.50048,12.91194 -0.003,7.198 -0.31012,9.46609 -1.56112,11.5121 -3.34821,5.47595 -29.13972,31.97386 -105.45209,108.34031 -78.60692,78.66259 -98.58337,97.94842 -104.23284,100.62927 -2.88524,1.36914 -13.43289,2.34219 -16.89862,1.55894 z"
   id="path938" /><path
   style="opacity:0.99;fill:#ffffff;fill-opacity:0.431373;stroke-width:1.13316"
   d="M 216.89889,349.06191 C 211.33819,346.19553 189.86518,325.41115 112.09624,247.62034 28.918013,164.4187 8.9973856,143.82683 6.3367489,138.29719 4.2415458,133.9427 4.2006944,124.62421 6.250724,118.67433 c 1.9054042,-5.53012 8.214679,-12.26882 13.905863,-14.85232 3.174651,-1.44113 5.715921,-1.84511 11.763008,-1.86995 l 7.713506,-0.0317 4.601872,3.55079 c 6.613454,5.10291 37.073413,34.76597 113.658517,110.68496 36.99183,36.6701 67.59021,66.67291 67.99638,66.67291 0.40617,0 38.51338,-37.31979 84.6827,-82.93287 87.45494,-86.4013 95.33759,-93.96831 100.91503,-96.87385 9.23884,-4.812945 26.05057,1.26562 32.75971,11.84483 2.36521,3.72956 2.50348,4.44354 2.50048,12.91194 -0.003,7.198 -0.31012,9.46609 -1.56112,11.5121 -3.34821,5.47595 -29.13972,31.97386 -105.45209,108.34031 -78.73474,78.79051 -98.58091,97.94726 -104.26822,100.64605 -4.32335,2.05157 -15.21643,2.51174 -18.56747,0.78437 z"
   id="path940" /><path
   style="opacity:0.99;fill:#ffffff;fill-opacity:0.431373;stroke-width:0.566581"
   d=""
   id="path942" /><path
   style="opacity:0.99;fill:#ffffff;fill-opacity:0.431373;stroke-width:0.566581"
   d=""
   id="path944" /><path
   style="opacity:0.99;fill:#ffffff;fill-opacity:0.431373;stroke-width:0.566581"
   d=""
   id="path946" /><path
   style="opacity:0.99;fill:#ffffff;fill-opacity:0.431373;stroke-width:0.566581"
   d=""
   id="path948" /><path
   style="opacity:0.99;fill:#ffffff;fill-opacity:0.431373;stroke-width:0.566581"
   d=""
   id="path950" /><path
   style="opacity:0.99;fill:#ffffff;fill-opacity:0.431373;stroke-width:0.566581"
   d=""
   id="path952" /><path
   style="opacity:0.99;fill:#ffffff;fill-opacity:0.431373;stroke-width:1.13316"
   d="M 212.9923,346.2301 C 205.03073,340.24527 138.67792,274.99751 76.502917,212.01381 14.848099,149.55706 8.565339,142.94229 6.3922854,138.19819 4.4150386,133.88157 4.2952994,124.26579 6.150977,118.81968 c 1.8263951,-5.36018 7.859992,-11.86726 13.61413,-14.6825 3.948781,-1.93196 5.874511,-2.30946 12.133087,-2.37845 l 7.439325,-0.082 4.8443,3.73681 c 6.739252,5.19855 28.228413,26.11451 110.340931,107.39768 l 71.16031,70.4416 2.28153,-2.03239 c 1.25485,-1.11781 36.11794,-35.50076 77.47356,-76.40657 80.41552,-79.54086 95.49342,-94.16606 102.73213,-99.64766 4.52354,-3.42549 4.73375,-3.48903 11.46605,-3.46548 5.68726,0.0199 7.65548,0.41369 11.52937,2.30671 6.3003,3.07873 10.57332,6.76264 13.37789,11.53355 2.13094,3.62498 2.33334,4.7135 2.31775,12.46518 -0.011,5.45692 -0.42047,9.21255 -1.14542,10.50501 -2.72494,4.8582 -19.69889,22.35019 -95.19373,98.09896 -83.8426,84.12462 -107.32827,106.99396 -113.73055,110.74595 -3.12397,1.83077 -5.1659,2.30703 -11.10937,2.5912 l -7.28189,0.34815 z"
   id="path954" /><path
   style="opacity:0.99;fill:#ffffff;fill-opacity:0.431373;stroke-width:1.13316"
   d="M 212.9923,346.2301 C 205.02631,340.24195 138.65493,274.97899 76.499029,212.0163 14.911005,149.62885 8.5697319,142.95188 6.3922854,138.19819 4.4150386,133.88157 4.2952994,124.26579 6.150977,118.81968 c 1.8221976,-5.34786 7.860708,-11.86761 13.585985,-14.66873 3.910701,-1.91333 5.87332,-2.29817 12.129589,-2.37845 l 7.46397,-0.0958 4.847799,3.73681 c 6.738168,5.19396 28.18481,26.06788 110.34673,107.39997 l 71.16262,70.44388 7.81592,-7.55536 c 4.29876,-4.15544 39.16082,-38.54048 77.47126,-76.41119 75.0115,-74.15052 90.04896,-88.7129 97.19543,-94.12464 4.51343,-3.41784 4.74879,-3.48947 11.46605,-3.48947 5.74593,0 7.61553,0.37382 11.52937,2.30526 6.31926,3.11848 10.58055,6.80039 13.37789,11.55899 2.13094,3.62498 2.33334,4.7135 2.31775,12.46518 -0.011,5.45692 -0.42047,9.21255 -1.14542,10.50501 -2.72494,4.8582 -19.69889,22.35019 -95.19373,98.09896 -83.8426,84.12462 -107.32827,106.99396 -113.73055,110.74595 -3.12397,1.83077 -5.1659,2.30703 -11.10937,2.5912 l -7.28189,0.34815 z"
   id="path956" /><path
   style="opacity:0.99;fill:#ffffff;fill-opacity:0.431373;stroke-width:1.13316"
   d="M 212.9923,346.2301 C 205.02631,340.24195 138.65493,274.97899 76.499029,212.0163 14.911005,149.62885 8.5697319,142.95188 6.3922854,138.19819 4.4150386,133.88157 4.2952994,124.26579 6.150977,118.81968 c 1.8163647,-5.33074 7.861686,-11.86809 13.547107,-14.64971 3.857834,-1.88746 5.872541,-2.28273 12.123099,-2.37845 l 7.49636,-0.1148 4.854288,3.73681 c 6.736077,5.18541 28.104244,25.9817 110.347429,107.39423 l 71.15683,70.43814 10.80414,-10.51726 c 5.94227,-5.78448 40.80694,-40.16779 77.47704,-76.40734 72.06854,-71.22236 87.1131,-85.77861 94.21301,-91.15511 4.51343,-3.41784 4.74879,-3.48947 11.46605,-3.48947 5.74593,0 7.61553,0.37382 11.52937,2.30526 6.31926,3.11848 10.58055,6.80039 13.37789,11.55899 2.13094,3.62498 2.33334,4.7135 2.31775,12.46518 -0.011,5.45692 -0.42047,9.21255 -1.14542,10.50501 -2.72494,4.8582 -19.69889,22.35019 -95.19373,98.09896 -83.8426,84.12462 -107.32827,106.99396 -113.73055,110.74595 -3.12397,1.83077 -5.1659,2.30703 -11.10937,2.5912 l -7.28189,0.34815 z"
   id="path958" /><path
   style="opacity:0.99;fill:#ffffff;fill-opacity:0.431373;stroke-width:1.13316"
   d="M 212.9923,346.2301 C 205.02631,340.24195 138.65493,274.97899 76.499029,212.0163 14.911005,149.62885 8.5697319,142.95188 6.3922854,138.19819 4.4150386,133.88157 4.2952994,124.26579 6.150977,118.81968 c 0.7436914,-2.18262 3.0550112,-5.86237 5.136266,-8.17722 5.242276,-5.83068 10.825009,-8.37883 19.840997,-9.05614 l 7.21936,-0.54234 5.194552,3.9125 c 6.96038,5.24251 26.742791,24.46773 110.981268,107.85541 l 71.16099,70.44225 12.49457,-12.22508 c 6.872,-6.72381 41.7348,-41.10925 77.47288,-76.41208 70.48063,-69.6223 85.46345,-84.10833 92.51842,-89.45079 4.51343,-3.41784 4.74879,-3.48947 11.46605,-3.48947 5.74593,0 7.61553,0.37382 11.52937,2.30526 6.31926,3.11848 10.58055,6.80039 13.37789,11.55899 2.13094,3.62498 2.33334,4.7135 2.31775,12.46518 -0.011,5.45692 -0.42047,9.21255 -1.14542,10.50501 -2.72494,4.8582 -19.69889,22.35019 -95.19373,98.09896 -83.8426,84.12462 -107.32827,106.99396 -113.73055,110.74595 -3.12397,1.83077 -5.1659,2.30703 -11.10937,2.5912 l -7.28189,0.34815 z"
   id="path960" /></svg>
