<?xml version="1.0" encoding="UTF-8" standalone="no"?>
<svg
   xmlns:dc="http://purl.org/dc/elements/1.1/"
   xmlns:cc="http://creativecommons.org/ns#"
   xmlns:rdf="http://www.w3.org/1999/02/22-rdf-syntax-ns#"
   xmlns:svg="http://www.w3.org/2000/svg"
   xmlns="http://www.w3.org/2000/svg"
   xmlns:sodipodi="http://sodipodi.sourceforge.net/DTD/sodipodi-0.dtd"
   xmlns:inkscape="http://www.inkscape.org/namespaces/inkscape"
   width="114"
   height="102"
   viewBox="0 0 30.162497 26.987501"
   version="1.1"
   id="svg8"
   inkscape:version="1.0.1 (3bc2e813f5, 2020-09-07)"
   sodipodi:docname="icon_pc.svg">
  <defs
     id="defs2" />
  <sodipodi:namedview
     id="base"
     pagecolor="#ffffff"
     bordercolor="#666666"
     borderopacity="1.0"
     inkscape:pageopacity="0.0"
     inkscape:pageshadow="2"
     inkscape:zoom="1.4"
     inkscape:cx="277.18728"
     inkscape:cy="116.67907"
     inkscape:document-units="mm"
     inkscape:current-layer="layer1"
     inkscape:document-rotation="0"
     showgrid="false"
     fit-margin-top="0"
     fit-margin-left="0"
     fit-margin-right="0"
     fit-margin-bottom="0"
     units="px"
     inkscape:window-width="1366"
     inkscape:window-height="704"
     inkscape:window-x="1920"
     inkscape:window-y="0"
     inkscape:window-maximized="1" />
  <metadata
     id="metadata5">
    <rdf:RDF>
      <cc:Work
         rdf:about="">
        <dc:format>image/svg+xml</dc:format>
        <dc:type
           rdf:resource="http://purl.org/dc/dcmitype/StillImage" />
        <dc:title></dc:title>
      </cc:Work>
    </rdf:RDF>
  </metadata>
  <g
     inkscape:label="Capa 1"
     inkscape:groupmode="layer"
     id="layer1"
     transform="translate(44.768181,30.327502)">
    <path
       d="m -21.49004,-19.048432 h 4.022528 v -1.381481 h -4.022528 z m 4.022205,-4.144441 h -4.022527 v 1.38148 h 4.022527 z m 0,-2.76296 h -4.044712 c 0.01543,0.08394 0.02315,0.169575 0.02251,0.255573 v 1.125907 h 4.022206 z m -3.064078,18.5805621 c 0.585808,0 1.061014,-0.5101109 1.061014,-1.1393751 0,-0.6296097 -0.475206,-1.1397215 -1.061014,-1.1397215 -0.585808,0 -1.061013,0.5101118 -1.061013,1.1397215 0,0.6292642 0.475205,1.1393751 1.061013,1.1393751 m 3.858232,-22.2414851 h -7.716462 c -0.851706,0 -1.542329,0.742546 -1.543294,1.657776 v 0.75947 h 1.157469 v -0.75947 c 3.14e-4,-0.228979 0.172978,-0.414098 0.385825,-0.414443 h 7.716462 c 0.212844,3.44e-4 0.3855,0.185464 0.385822,0.414443 v 22.1036827 c -2.4e-4,0.228635 -0.172978,0.414099 -0.385822,0.4144446 h -7.716462 c -0.212847,-3.368e-4 -0.385503,-0.1858096 -0.385825,-0.4144446 v -2.6628026 h -1.157469 v 2.6628026 c 9.77e-4,0.9148859 0.691588,1.65674 1.543294,1.6577768 h 7.716462 c 0.852025,0 1.542328,-0.7428909 1.543292,-1.6577768 V -27.95898 c 0,-0.91523 -0.691267,-1.65674 -1.543292,-1.657776 m -7.178561,5.042403 h -18.924302 v 13.204532 h 18.924302 z m 0.968416,14.8129208 h -20.945695 c -0.131179,0 -0.237602,-0.1143178 -0.237602,-0.2552288 V -25.70095 c 0,-0.140911 0.106423,-0.254883 0.237281,-0.254883 h 20.946337 c 0.130858,0 0.237281,0.113972 0.237281,0.254883 v 15.684289 c 0,0.140911 -0.106423,0.2552288 -0.237602,0.2552288 m -4.094548,4.1164655 v 1.1908362 c 0,0.1419464 -0.106745,0.25661 -0.238567,0.25661 h -12.279464 c -0.131823,0 -0.238889,-0.1146636 -0.238889,-0.25661 v -1.1908362 c 0,-0.1226063 0.08166,-0.2282895 0.193876,-0.2503934 l 4.518632,-0.9055599 v -1.7171799 h 3.330939 v 1.7168342 l 4.519918,0.9059056 c 0.112211,0.022106 0.193555,0.1277871 0.193555,0.2503934"
       style="fill:#0898fd;fill-opacity:1;fill-rule:nonzero;stroke:none;stroke-width:0.333231"
       id="path342" />
  </g>
</svg>
