<?xml version="1.0" encoding="UTF-8" standalone="no"?>
<svg
   xmlns:dc="http://purl.org/dc/elements/1.1/"
   xmlns:cc="http://creativecommons.org/ns#"
   xmlns:rdf="http://www.w3.org/1999/02/22-rdf-syntax-ns#"
   xmlns:svg="http://www.w3.org/2000/svg"
   xmlns="http://www.w3.org/2000/svg"
   xmlns:sodipodi="http://sodipodi.sourceforge.net/DTD/sodipodi-0.dtd"
   xmlns:inkscape="http://www.inkscape.org/namespaces/inkscape"
   width="22.792973mm"
   height="22.79262mm"
   viewBox="0 0 22.792972 22.79262"
   version="1.1"
   id="svg27980"
   inkscape:version="1.0.1 (1.0.1+r73)"
   sodipodi:docname="icon_right_black.svg">
  <defs
     id="defs27974" />
  <sodipodi:namedview
     id="base"
     pagecolor="#ffffff"
     bordercolor="#666666"
     borderopacity="1.0"
     inkscape:pageopacity="0.0"
     inkscape:pageshadow="2"
     inkscape:zoom="2.8"
     inkscape:cx="111.41311"
     inkscape:cy="192.66068"
     inkscape:document-units="mm"
     inkscape:current-layer="layer1"
     inkscape:document-rotation="0"
     showgrid="false"
     inkscape:window-width="1920"
     inkscape:window-height="970"
     inkscape:window-x="1920"
     inkscape:window-y="27"
     inkscape:window-maximized="1"
     fit-margin-top="0"
     fit-margin-left="0"
     fit-margin-right="0"
     fit-margin-bottom="0" />
  <metadata
     id="metadata27977">
    <rdf:RDF>
      <cc:Work
         rdf:about="">
        <dc:format>image/svg+xml</dc:format>
        <dc:type
           rdf:resource="http://purl.org/dc/dcmitype/StillImage" />
        <dc:title></dc:title>
      </cc:Work>
    </rdf:RDF>
  </metadata>
  <g
     inkscape:label="Capa 1"
     inkscape:groupmode="layer"
     id="layer1"
     transform="translate(-123.16303,-73.270358)">
    <g
       id="g20"
       transform="matrix(0.35277777,0,0,-0.35277777,134.55952,95.357421)">
      <path
         d="m 0,0 c -16.71,0 -30.305,13.595 -30.305,30.305 0,16.71 13.595,30.304 30.305,30.304 16.71,0 30.305,-13.594 30.305,-30.304 C 30.305,13.595 16.71,0 0,0 m 0,62.609 c -17.813,0 -32.305,-14.492 -32.305,-32.304 C -32.305,12.492 -17.813,-2 0,-2 17.813,-2 32.305,12.492 32.305,30.305 32.305,48.117 17.813,62.609 0,62.609"
         style="fill:#004ab5;fill-opacity:1;fill-rule:nonzero;stroke:none"
         id="path22" />
    </g>
    <g
       id="g24"
       transform="matrix(0.35277777,0,0,-0.35277777,133.41592,80.728997)">
      <path
         d="m 0,0 c -0.493,0.493 -1.292,0.493 -1.785,0 -0.493,-0.494 -0.493,-1.292 0,-1.786 l 9.375,-9.377 -9.375,-9.375 c -0.493,-0.493 -0.493,-1.292 0,-1.785 0.246,-0.246 0.569,-0.37 0.892,-0.37 0.324,0 0.647,0.123 0.893,0.37 l 10.269,10.267 c 0.493,0.493 0.493,1.292 0,1.786 z"
         style="fill:#004ab5;fill-opacity:1;fill-rule:nonzero;stroke:none"
         id="path26" />
    </g>
    <path
       style="fill:#2b0000;stroke-width:0.126269"
       d="m 505.57437,362.9168 c -1.98427,-0.1972 -3.21427,-0.3539 -4.41942,-0.56302 -11.93591,-2.07115 -22.61471,-9.30354 -29.12841,-19.72769 -0.4862,-0.77808 -1.41521,-2.49429 -2.06447,-3.8138 -2.11994,-4.30841 -3.36509,-8.39261 -4.0613,-13.32139 -0.31842,-2.25424 -0.31842,-8.73117 0,-10.98541 0.69621,-4.92878 1.94136,-9.01298 4.0613,-13.32139 0.64926,-1.31951 1.57827,-3.03572 2.06447,-3.8138 6.5137,-10.42415 17.1925,-17.65654 29.12841,-19.72769 2.7363,-0.47481 4.01241,-0.57415 7.38674,-0.57503 3.40007,-8.8e-4 4.71395,0.10111 7.44988,0.57834 17.30499,3.01849 31.22926,16.5792 34.71513,33.80874 0.63621,3.14457 0.81746,5.03891 0.81746,8.54353 0,3.50463 -0.18125,5.39897 -0.81746,8.54354 -2.21866,10.96611 -8.69146,20.65934 -18.05249,27.0342 -5.60104,3.8143 -11.7851,6.15853 -18.74608,7.10619 -1.43928,0.19594 -7.11525,0.35578 -8.33376,0.23468 z m 8.01808,-2.7606 c 7.3557,-0.94325 14.01567,-3.72269 19.94504,-8.32378 1.6243,-1.26043 4.61868,-4.14932 5.96998,-5.75966 5.16679,-6.15725 8.29788,-13.41404 9.26594,-21.47528 0.25991,-2.16439 0.29336,-6.70031 0.0642,-8.70303 -0.91478,-7.99343 -3.75448,-14.95944 -8.5961,-21.08693 -1.35576,-1.71583 -5.00369,-5.33383 -6.6985,-6.64355 -7.04526,-5.44441 -14.91087,-8.2919 -23.73859,-8.59379 -13.86642,-0.4742 -27.16259,6.38736 -34.90954,18.01526 -3.68412,5.52973 -5.87267,11.62034 -6.57902,18.30901 -0.24969,2.36432 -0.18213,7.20622 0.13191,9.45491 1.24578,8.92027 5.15101,16.82388 11.42958,23.13178 6.8408,6.87275 15.66648,11.00602 25.31825,11.85713 1.80082,0.1588 6.54005,0.056 8.39689,-0.18207 z"
       id="path28002"
       transform="scale(0.26458333)" />
    <path
       style="fill:#2b0000;stroke-width:0.126269"
       d="m 502.38856,335.15268 c -0.78166,-0.33981 -1.14504,-1.41832 -0.73672,-2.18661 0.0997,-0.18753 3.02595,-3.18181 6.50286,-6.65395 l 6.32165,-6.31299 -6.36343,-6.37706 c -3.49989,-3.50738 -6.42617,-6.50116 -6.50286,-6.65286 -0.37352,-0.73882 0.006,-1.73427 0.80495,-2.11359 1.01885,-0.48348 0.69015,-0.7562 8.55756,7.10017 5.02418,5.01714 7.20661,7.27908 7.30197,7.56803 0.30219,0.91563 0.42832,0.76786 -7.12479,8.34756 -4.07132,4.08564 -7.26363,7.19071 -7.49693,7.29203 -0.50191,0.218 -0.74283,0.21595 -1.26426,-0.0107 z"
       id="path28006"
       transform="scale(0.26458333)" />
    <path
       style="fill:#ffffff;stroke-width:0.357143"
       d="M 38.094682,82.99255 C 20.555954,80.71464 6.1565223,66.777472 3.3697816,49.382418 2.6633169,44.972611 3.0883998,36.824299 4.2401357,32.698805 8.527412,17.341872 21.303125,5.8665782 36.908746,3.3554803 40.249146,2.817977 47.05451,2.9148164 50.381,3.5471887 66.341367,6.5812839 79.14991,19.170864 82.462464,35.080212 86.680603,55.338854 74.176428,75.887479 54.089714,81.706315 48.91001,83.2068 43.249203,83.662011 38.094682,82.99255 Z m 7.495432,-31.659939 c 5.749446,-5.725732 7.430136,-7.603271 7.430136,-8.300378 0,-0.695111 -1.6512,-2.553568 -7.228875,-8.136224 -7.381529,-7.388123 -8.267952,-8.024222 -9.485411,-6.806762 -1.189645,1.189645 -0.545945,2.125247 5.906993,8.585664 l 6.335564,6.342907 -6.335564,6.342907 c -5.559836,5.566279 -6.335565,6.482411 -6.335565,7.482254 0,1.133879 0.678493,1.855382 1.766294,1.878264 0.283962,0.006 3.859853,-3.31891 7.946428,-7.388632 z"
       id="path28026"
       transform="matrix(0.26458333,0,0,0.26458333,123.16303,73.270358)" />
    <path
       style="fill:#ffffff;stroke-width:0.357143"
       d="M 38.144739,82.998029 C 20.880094,80.747693 6.7955888,67.48374 3.5602466,50.428404 2.8772528,46.827954 2.8604381,39.273054 3.5276569,35.785816 6.6409277,19.514219 19.179769,6.9379214 35.647797,3.5697254 39.272721,2.8283224 46.549885,2.8167329 50.381,3.5462616 59.390489,5.2618661 67.250721,9.8050857 73.443114,16.876182 87.27891,32.675282 86.3951,56.430761 71.414146,71.411715 62.59611,80.22975 50.152846,84.563208 38.144739,82.998029 Z m 7.455343,-31.686093 c 5.644621,-5.644621 7.420168,-7.630971 7.420168,-8.301136 0,-0.670285 -1.735633,-2.611064 -7.257711,-8.115544 -7.379229,-7.355711 -8.267543,-7.995041 -9.456575,-6.806009 -1.170868,1.170867 -0.527318,2.10566 5.897714,8.566766 l 6.326286,6.361805 -6.326286,6.361804 c -5.500733,5.531618 -6.326286,6.508021 -6.326286,7.482253 0,1.118197 0.686562,1.836883 1.776261,1.859368 0.289443,0.006 3.865336,-3.328214 7.946429,-7.409307 z"
       id="path28028"
       transform="matrix(0.26458333,0,0,0.26458333,123.16303,73.270358)" />
    <path
       style="fill:#ffffff;stroke-width:0.357143"
       d="M 38.083203,82.991293 C 20.844815,80.754175 6.7999477,67.506718 3.5602466,50.428404 2.8538707,46.704693 2.8619427,39.288393 3.5764711,35.521705 5.8487443,23.543254 14.058282,12.712083 25.062113,7.1748378 28.26602,5.5625979 32.304028,4.1918668 35.84596,3.5141834 39.408928,2.8324753 46.717257,2.8486044 50.381,3.5462616 73.647525,7.9767185 88.25151,31.510642 81.72026,54.048618 76.221067,73.025183 57.412978,85.499818 38.083203,82.991293 Z m 7.508475,-31.68776 c 5.569418,-5.569418 7.428572,-7.644647 7.428572,-8.291936 0,-0.647386 -1.817565,-2.675439 -7.265722,-8.107142 -7.3788,-7.35652 -8.266767,-7.997006 -9.448564,-6.815208 -1.135318,1.135317 -0.489614,2.071878 5.881732,8.531168 l 6.310304,6.397403 -6.310304,6.397404 c -4.808259,4.874625 -6.310304,6.611278 -6.310304,7.295918 0,1.022328 0.842053,2.020964 1.704082,2.020964 0.319898,0 3.92449,-3.342857 8.010204,-7.428571 z"
       id="path28030"
       transform="matrix(0.26458333,0,0,0.26458333,123.16303,73.270358)" />
    <path
       style="fill:#ffffff;stroke-width:0.357143"
       d="M 37.841678,82.972333 C 20.97282,80.86524 6.7777327,67.389611 3.5602466,50.428404 2.8538707,46.704693 2.8619427,39.288393 3.5764711,35.521705 5.8419024,23.579322 14.081857,12.685353 24.984535,7.2182989 30.968489,4.2176968 36.178549,2.9979826 43.02025,2.9960027 51.969128,2.9934131 59.829496,5.5254117 66.710007,10.626999 86.823039,25.539904 88.949632,54.08544 71.251585,71.589247 62.341092,80.401943 50.248375,84.52205 37.841678,82.972333 Z M 45.568875,51.3011 c 5.459496,-5.444571 7.451375,-7.654532 7.451375,-8.267196 0,-0.610543 -1.906,-2.742189 -7.063133,-7.899325 -7.235685,-7.235683 -8.487112,-8.148149 -9.620541,-7.01472 -1.082981,1.082981 -0.188651,2.369374 6.042134,8.69093 l 6.105954,6.194908 -6.303636,6.436053 c -4.247947,4.337186 -6.303636,6.688475 -6.303636,7.210083 0,0.913335 0.959858,2.080271 1.71112,2.080271 0.290941,0 3.882105,-3.343954 7.980363,-7.431004 z"
       id="path28032"
       transform="matrix(0.26458333,0,0,0.26458333,123.16303,73.270358)" />
    <path
       style="fill:#ffffff;stroke-width:0.357143"
       d="M 36.872186,82.821158 C 26.535502,81.211643 17.077708,75.404365 10.629431,66.707575 5.5106528,59.803879 3.0202495,52.050475 3.0202495,43.017818 c 0,-10.799852 3.6058157,-19.827054 11.0191035,-27.586455 3.346893,-3.503154 6.479494,-5.8839309 10.409468,-7.9111963 6.342791,-3.2719103 11.47479,-4.5221104 18.571429,-4.524164 11.236682,-0.00325 20.667703,3.9156833 28.571078,11.8723323 15.702847,15.80869 15.551932,41.003651 -0.339743,56.720912 -9.19211,9.091225 -21.759278,13.196978 -34.379399,11.231911 z m 8.675578,-31.524222 c 5.366811,-5.340011 7.472486,-7.664657 7.472486,-8.249561 0,-1.077792 -13.723861,-14.874932 -15.152622,-15.233528 -1.304917,-0.327513 -2.170659,0.507916 -1.85006,1.785283 0.132573,0.528212 2.862128,3.615014 6.340635,7.170498 l 6.10785,6.243019 -6.113061,6.26895 c -3.362185,3.447921 -6.213681,6.669846 -6.33666,7.159836 -0.243732,0.971103 0.649778,2.290671 1.551069,2.290671 0.279331,0 3.870495,-3.345825 7.980363,-7.435168 z"
       id="path28034"
       transform="matrix(0.26458333,0,0,0.26458333,123.16303,73.270358)" />
    <path
       style="fill:#ffffff;stroke-width:0.357143"
       d="M 37.647101,82.982297 C 23.678955,81.175758 10.894084,71.057665 5.5588049,57.587258 2.3800167,49.561515 2.1295261,38.547618 4.9382054,30.299924 6.8312641,24.740951 9.8379534,19.828918 14.039353,15.431363 c 3.346893,-3.503154 6.479494,-5.8839309 10.409468,-7.9111963 6.356832,-3.2791534 11.467145,-4.5209148 18.6271,-4.5262232 9.940968,-0.00737 18.835186,3.2600072 26.166396,9.6124815 15.571018,13.492246 18.541686,35.765808 7.076715,53.059983 -2.146057,3.237189 -7.393468,8.473264 -10.678947,10.655878 -8.391046,5.574354 -18.25036,7.920054 -27.992984,6.660011 z m 7.736863,-31.542379 c 3.559603,-3.551796 6.752453,-6.899778 7.095221,-7.439957 0.5939,-0.935946 0.59319,-1.028339 -0.01511,-1.964286 C 51.225082,40.12935 38.813692,28.051291 37.84354,27.807799 c -1.258872,-0.315957 -2.143207,0.527327 -1.836114,1.750881 0.122447,0.487867 2.971416,3.714418 6.331045,7.170113 l 6.108414,6.283082 -6.117471,6.3251 c -3.364607,3.478808 -6.216967,6.721547 -6.338579,7.206086 -0.313391,1.24865 1.040997,2.360889 2.1513,1.766675 0.423404,-0.2266 3.682232,-3.318018 7.24184,-6.869818 z"
       id="path28036"
       transform="matrix(0.26458333,0,0,0.26458333,123.16303,73.270358)" />
    <path
       style="fill:#ffffff;stroke-width:0.357143"
       d="M 37.484535,82.979068 C 23.680406,80.989854 11.195002,71.2703 5.8766542,58.373172 3.9338863,53.661911 3.2886418,50.480243 3.1014806,44.688933 2.9112728,38.803354 3.2946393,35.547722 4.7071143,31.053532 6.5317098,25.248065 9.6538256,20.021642 14.039353,15.431363 20.032811,9.158081 27.377606,5.1209137 35.659498,3.5475534 39.898382,2.7422673 46.769457,2.8221788 51.216785,3.7284869 73.9179,8.3546796 88.149203,31.724028 81.776382,53.910675 c -1.939911,6.753704 -5.32479,12.475933 -10.356068,17.507208 -1.771822,1.771821 -4.359986,3.976246 -5.751475,4.898717 -8.403847,5.571233 -18.763207,8.020075 -28.184304,6.662468 z m 5.6272,-29.251128 c 4.751793,-4.53309 9.908515,-10.108957 9.908515,-10.713897 0,-0.625014 -6.455504,-7.47236 -10.829365,-11.486697 -4.339384,-3.982694 -5.23528,-4.437326 -6.081954,-3.08635 -0.605953,0.966875 0.156086,1.968122 6.491401,8.529094 l 5.891014,6.100846 -3.917379,3.991297 c -6.311975,6.431078 -8.696575,9.137596 -8.696575,9.8706 0,0.922096 1.363244,1.86156 2.108788,1.453246 0.31338,-0.171629 2.61988,-2.267793 5.125555,-4.658139 z"
       id="path28038"
       transform="matrix(0.26458333,0,0,0.26458333,123.16303,73.270358)" />
    <path
       style="fill:#ffffff;stroke-width:0.357143"
       d="M 37.514355,83.00469 C 21.229035,80.436822 8.1998127,68.736633 4.0543011,52.957686 3.069722,49.210111 2.7143139,40.744697 3.3697816,36.653217 5.373462,24.146089 13.67984,12.889559 25.163107,7.1196235 30.957864,4.2079624 36.221554,2.9944442 43.02025,3.0027456 49.541835,3.0107084 53.559421,3.8091577 59.1025,6.1989082 74.841217,12.98424 84.884014,29.996044 83.104778,46.857104 81.261789,64.322311 69.145257,78.108493 51.948821,82.306322 48.452425,83.159825 40.835414,83.528354 37.514355,83.00469 Z m 7.573612,-31.326157 c 3.710172,-3.683036 7.031215,-7.138393 7.3801,-7.678572 0.595983,-0.922768 0.598129,-1.037396 0.0355,-1.896082 C 51.465732,40.51994 39.559817,28.904357 38.252478,28.200308 37.21059,27.639214 36.910283,27.605201 36.440503,27.995085 35.121596,29.08968 35.9124,30.163432 44.394814,38.795429 l 4.0982,4.170464 -5.832732,6.104493 c -7.017934,7.344922 -6.992124,7.311272 -6.476114,8.443789 0.844985,1.85454 1.76321,1.252725 8.903803,-5.835642 z"
       id="path28040"
       transform="matrix(0.26458333,0,0,0.26458333,123.16303,73.270358)" />
    <path
       style="fill:#ffffff;stroke-width:0.357143"
       d="M 36.413107,82.82465 C 20.704462,79.888504 8.2137816,68.42039 4.0825241,53.140847 3.1413748,49.65999 2.7290266,40.585783 3.3351779,36.694616 5.2678155,24.288121 13.680991,12.888981 25.163107,7.1196235 30.957864,4.2079624 36.221554,2.9944442 43.02025,3.0027456 49.541835,3.0107084 53.559421,3.8091577 59.1025,6.1989082 74.850578,12.988277 84.885075,29.986013 83.104778,46.857104 81.23586,64.568047 68.520028,78.742479 51.105432,82.527015 47.415635,83.328879 39.92286,83.480668 36.413107,82.82465 Z M 42.3003,54.422361 c 4.5287,-4.195221 10.71995,-10.795289 10.71995,-11.4278 0,-0.682564 -12.786725,-13.55043 -14.615718,-14.708466 -1.956267,-1.23862 -3.04283,0.177292 -1.687156,2.198552 0.473348,0.705744 3.30337,3.812998 6.288941,6.905008 l 5.428311,5.621838 -6.278618,6.628515 c -3.453239,3.645682 -6.278618,6.7916 -6.278618,6.990928 0,0.803279 0.780941,1.744025 1.447767,1.744025 0.406679,0 2.525476,-1.683321 4.975141,-3.9526 z"
       id="path28042"
       transform="matrix(0.26458333,0,0,0.26458333,123.16303,73.270358)" />
    <path
       style="fill:#ffffff;stroke-width:0.357143"
       d="M 36.526623,82.863886 C 19.694625,79.885029 6.0280048,66.246954 3.3970718,49.803533 2.9219408,46.833947 2.9179175,39.217379 3.3899433,36.308636 4.2221619,31.180294 6.7026316,25.087677 9.8380523,20.470566 12.015398,17.264281 16.885021,12.3266 19.979471,10.187409 27.913086,4.702905 36.670786,2.3737475 46.676378,3.0872233 68.909192,4.6725946 86.082875,26.014436 82.994385,48.219843 80.625257,65.253265 67.97721,78.860443 51.105432,82.527015 c -3.52594,0.766257 -11.156311,0.942571 -14.578809,0.336871 z m 5.354059,-28.0934 C 46.090089,50.910347 53.02025,43.546058 53.02025,42.933097 c 0,-0.509461 -12.669111,-13.259257 -14.294861,-14.385902 -2.051396,-1.421619 -3.475949,-0.338947 -2.201821,1.673401 0.362278,0.572179 3.201446,3.697736 6.30926,6.945682 l 5.650575,5.905358 -2.292343,2.383804 c -10.619894,11.043632 -10.594682,11.012828 -9.969342,12.181285 0.2173,0.406029 0.695074,0.738236 1.06172,0.738236 0.366646,0 2.435404,-1.622014 4.597244,-3.604475 z"
       id="path28044"
       transform="matrix(0.26458333,0,0,0.26458333,123.16303,73.270358)" />
    <path
       style="fill:#ffffff;stroke-width:0.357143"
       d="M 38.377392,83.14359 C 28.682188,81.687475 20.893736,77.794115 14.365831,71.140472 8.4619231,65.12285 4.4767086,57.288683 3.3561815,49.497611 2.6863559,44.840286 3.1003027,36.439186 4.1857867,32.660675 7.4284802,21.373036 15.061669,12.13179 25.382935,6.9979971 31.163615,4.1226897 36.206184,2.9923079 43.252089,2.9923079 c 8.556746,0 15.090221,1.965179 22.149507,6.6622656 C 76.980035,17.358601 84.052414,31.344885 83.265507,44.982104 82.155575,64.217315 67.917746,79.99649 49.091678,82.855497 45.986439,83.327072 40.56896,83.47274 38.377392,83.14359 Z m 3.481404,-28.429343 c 4.696529,-4.373239 11.161454,-11.201911 11.161454,-11.78945 0,-0.6622 -14.3721,-14.776116 -15.27414,-14.999754 -0.754295,-0.187008 -1.868718,0.481107 -1.868718,1.120328 0,0.577686 2.014667,2.915448 7.184322,8.336484 l 5.422353,5.68602 -1.939592,2.028543 c -1.066775,1.1157 -3.715429,3.876757 -5.885897,6.135686 -2.170468,2.258929 -4.139808,4.46875 -4.376311,4.910714 -0.531489,0.993218 0.01793,2.232143 0.989869,2.232143 0.360429,0 2.424424,-1.647321 4.58666,-3.660714 z"
       id="path28046"
       transform="matrix(0.26458333,0,0,0.26458333,123.16303,73.270358)" />
    <path
       style="fill:#ffffff;stroke-width:0.357143"
       d="M 38.377392,83.14359 C 28.735521,81.695486 20.959492,77.824325 14.415746,71.214704 8.5603848,65.300393 4.4762269,57.285879 3.3591427,49.517865 2.7316628,45.154472 3.0783427,36.792258 4.038072,33.141512 5.1065354,29.07715 6.9654548,24.901378 9.3178277,21.281367 11.596371,17.774972 17.485099,11.711414 20.552512,9.7131367 25.053002,6.7812778 30.30031,4.6061955 35.427991,3.5470439 38.861889,2.8377531 46.932035,2.8197793 50.551525,3.5133608 74.442467,8.0914417 89.032753,33.044012 81.197364,55.924429 76.345775,70.09174 63.790725,80.623236 49.091678,82.855497 45.986439,83.327072 40.56896,83.47274 38.377392,83.14359 Z M 39.327464,56.994704 C 41.775921,55.039543 53.02025,43.524265 53.02025,42.971975 c 0,-0.252485 -3.279533,-3.720457 -7.28785,-7.706609 -6.215565,-6.181195 -7.444808,-7.247548 -8.354645,-7.247548 -1.465134,0 -1.732991,0.904813 -0.698342,2.358972 0.455085,0.639605 3.297497,3.755586 6.316469,6.924404 l 5.489043,5.761489 -1.58155,1.673996 c -0.869854,0.920696 -3.4371,3.602568 -5.704993,5.959711 -4.985676,5.181882 -5.519407,5.92621 -4.976664,6.940335 0.560575,1.047447 1.140032,0.927661 3.105746,-0.642021 z"
       id="path28048"
       transform="matrix(0.26458333,0,0,0.26458333,123.16303,73.270358)" />
    <path
       style="fill:#ffffff;stroke-width:0.357143"
       d="M 36.298255,82.836761 C 23.76119,80.565408 12.573349,72.132125 6.8016195,60.602493 5.3553737,57.713468 3.8313385,52.801397 3.3561815,49.497611 2.7350522,45.178875 3.1005945,36.461396 4.0487794,32.980488 5.966377,25.940742 9.4602288,20.045593 14.939243,14.605092 20.98492,8.6019135 27.168056,5.25036 35.287597,3.5753193 38.986703,2.8122029 46.844392,2.8059573 50.823675,3.5629704 67.01046,6.642325 79.957557,20.004042 82.799592,36.562895 84.884417,48.709936 80.956296,61.392318 72.214842,70.736958 67.910639,75.338165 61.488135,79.387865 55.252292,81.432665 49.66496,83.264811 41.854542,83.8434 36.298255,82.836761 Z M 39.327464,56.994704 C 41.586807,55.190554 53.02025,43.544422 53.02025,43.0472 c 0,-0.505117 -9.501647,-10.263465 -12.598458,-12.938825 -2.364171,-2.042428 -3.904115,-2.633889 -4.280689,-1.644128 -0.355706,0.934912 0.56068,2.127009 6.3585,8.271564 l 5.972107,6.329264 -1.207875,1.313572 c -0.664328,0.722468 -3.229682,3.403796 -5.700785,5.958514 -5.35045,5.531497 -5.891704,6.271186 -5.341332,7.299564 0.560575,1.047447 1.140032,0.927661 3.105746,-0.642021 z"
       id="path28050"
       transform="matrix(0.26458333,0,0,0.26458333,123.16303,73.270358)" />
    <path
       style="fill:#ffffff;stroke-width:0.357143"
       d="M 36.111418,82.804675 C 19.96118,79.886768 6.5913106,66.764015 3.5764711,50.871075 2.8872778,47.237943 2.8622608,39.209783 3.5286281,35.517818 4.4039284,30.668272 6.5395006,25.429975 9.498292,20.874961 11.439804,17.886033 17.888464,11.437373 20.877392,9.4958607 25.267968,6.6438832 30.164033,4.6322975 35.287597,3.5753193 38.986703,2.8122029 46.844392,2.8059573 50.823675,3.5629704 64.890875,6.2390971 76.824625,16.845282 81.353357,30.69639 84.636232,40.737058 83.878753,51.05699 79.149825,60.717393 74.371867,70.47795 65.870142,77.887743 55.426903,81.393425 49.83915,83.269172 41.894946,83.8496 36.111418,82.804675 Z M 39.698135,56.640854 C 42.298407,54.46474 53.02025,43.511468 53.02025,43.031183 c 0,-0.488804 -8.831779,-9.560013 -12.234411,-12.566085 -3.009477,-2.658738 -4.551304,-3.202351 -4.551304,-1.604684 0,1.077647 1.186423,2.535605 7.2876,8.955513 l 4.966172,5.225609 -1.0376,1.139393 c -0.570679,0.626664 -3.327779,3.521796 -6.126886,6.433629 -4.135064,4.301585 -5.089286,5.486371 -5.089286,6.318985 0,0.907557 0.334896,1.321925 1.142173,1.413222 0.137124,0.0155 1.181767,-0.752154 2.321427,-1.705911 z"
       id="path28052"
       transform="matrix(0.26458333,0,0,0.26458333,123.16303,73.270358)" />
  </g>
</svg>
