<?xml version="1.0" encoding="UTF-8" standalone="no"?>
<svg
   xmlns:dc="http://purl.org/dc/elements/1.1/"
   xmlns:cc="http://creativecommons.org/ns#"
   xmlns:rdf="http://www.w3.org/1999/02/22-rdf-syntax-ns#"
   xmlns:svg="http://www.w3.org/2000/svg"
   xmlns="http://www.w3.org/2000/svg"
   xmlns:sodipodi="http://sodipodi.sourceforge.net/DTD/sodipodi-0.dtd"
   xmlns:inkscape="http://www.inkscape.org/namespaces/inkscape"
   width="114"
   height="102"
   viewBox="0 0 30.162495 26.987503"
   version="1.1"
   id="svg8"
   inkscape:version="1.0.1 (3bc2e813f5, 2020-09-07)"
   sodipodi:docname="icon_gray_arreglar.svg">
  <defs
     id="defs2" />
  <sodipodi:namedview
     id="base"
     pagecolor="#ffffff"
     bordercolor="#666666"
     borderopacity="1.0"
     inkscape:pageopacity="0.0"
     inkscape:pageshadow="2"
     inkscape:zoom="1.4"
     inkscape:cx="211.91237"
     inkscape:cy="12.377646"
     inkscape:document-units="mm"
     inkscape:current-layer="layer1"
     inkscape:document-rotation="0"
     showgrid="false"
     fit-margin-top="0"
     fit-margin-left="0"
     fit-margin-right="0"
     fit-margin-bottom="0"
     units="px"
     inkscape:window-width="1366"
     inkscape:window-height="704"
     inkscape:window-x="1920"
     inkscape:window-y="0"
     inkscape:window-maximized="1" />
  <metadata
     id="metadata5">
    <rdf:RDF>
      <cc:Work
         rdf:about="">
        <dc:format>image/svg+xml</dc:format>
        <dc:type
           rdf:resource="http://purl.org/dc/dcmitype/StillImage" />
        <dc:title></dc:title>
      </cc:Work>
    </rdf:RDF>
  </metadata>
  <g
     inkscape:label="Capa 1"
     inkscape:groupmode="layer"
     id="layer1"
     transform="translate(44.447903,29.715773)">
    <g
       id="g184"
       transform="matrix(0.41528998,0,0,-0.37614133,-41.549103,-8.3836217)">
      <path
         d="m 0,0 28.243,28.207 c 0.52,0.52 0.678,1.299 0.403,1.98 -1.803,4.619 -1.227,9.827 1.541,13.939 1.402,2.246 3.312,4.131 5.576,5.502 2.474,1.632 5.363,2.523 8.327,2.568 0.91,0.004 1.819,-0.082 2.714,-0.257 l -7.63,-7.629 c -0.356,-0.331 -0.556,-0.797 -0.55,-1.284 V 32.021 c 0,-1.012 0.821,-1.834 1.834,-1.834 h 11.004 c 0.486,-0.005 0.953,0.195 1.284,0.551 l 7.629,7.629 C 61.068,34.538 60.239,30.59 58.064,27.363 56.673,25.091 54.762,23.18 52.489,21.788 48.377,19.02 43.168,18.443 38.551,20.247 37.89,20.49 37.149,20.333 36.644,19.844 L 8.437,-8.4 C 6.263,-10.886 2.485,-11.14 0,-8.966 c -2.486,2.173 -2.739,5.95 -0.566,8.437 0.175,0.201 0.365,0.389 0.566,0.565 z m 5.979,41.559 c -0.713,0.718 -1.875,0.723 -2.594,0.01 l -0.011,-0.01 -0.623,-0.623 -2.385,7.115 2.055,2.054 7.115,-2.384 -0.66,-0.66 c -0.699,-0.713 -0.699,-1.855 0,-2.568 L 23.952,29.271 21.201,26.52 Z M 58.871,-8.437 c -2.351,-2.24 -6.048,-2.24 -8.399,0 l -18.34,18.34 6.492,6.493 c 1.583,-0.491 3.223,-0.774 4.879,-0.843 L 59.092,0 c 2.262,-2.393 2.164,-6.165 -0.221,-8.437 m -61.439,-2.567 c 3.73,-3.748 9.792,-3.763 13.539,-0.033 0.01,0.011 0.022,0.021 0.033,0.033 l 18.34,18.34 18.34,-18.34 c 1.787,-1.821 4.235,-2.84 6.786,-2.825 5.307,0.011 9.601,4.322 9.591,9.63 -0.005,2.537 -1.013,4.97 -2.805,6.766 L 47.867,15.956 c 2.249,0.536 4.393,1.441 6.346,2.678 2.75,1.686 5.063,3.999 6.749,6.749 3.367,5.067 4.064,11.454 1.871,17.13 -0.222,0.583 -0.715,1.021 -1.32,1.174 -0.623,0.108 -1.262,-0.083 -1.724,-0.514 l -9.098,-9.318 h -8.399 v 8.401 l 9.316,9.316 c 0.433,0.463 0.623,1.101 0.514,1.725 -0.151,0.605 -0.59,1.099 -1.174,1.32 -5.675,2.194 -12.061,1.496 -17.129,-1.871 -2.751,-1.686 -5.063,-3.999 -6.75,-6.749 -2.216,-3.392 -3.308,-7.396 -3.117,-11.444 l -11.005,11.224 1.431,1.467 c 0.447,0.453 0.628,1.106 0.477,1.724 -0.13,0.608 -0.58,1.099 -1.173,1.284 L 2.677,53.92 C 2.01,54.153 1.268,53.981 0.77,53.479 l -3.668,-3.667 c -0.488,-0.491 -0.659,-1.214 -0.44,-1.871 L 0.33,36.937 c 0.211,-0.598 0.706,-1.051 1.32,-1.21 0.625,-0.15 1.283,0.045 1.724,0.513 L 4.694,37.523 18.597,23.622 -2.568,2.567 c -3.747,-3.701 -3.786,-9.739 -0.085,-13.487 0.028,-0.028 0.056,-0.057 0.085,-0.084"
         style="fill:#cccccc;fill-opacity:1;fill-rule:nonzero;stroke:none"
         id="path186" />
    </g>
  </g>
</svg>
