<?xml version="1.0" encoding="UTF-8" standalone="no"?>
<svg
   xmlns:dc="http://purl.org/dc/elements/1.1/"
   xmlns:cc="http://creativecommons.org/ns#"
   xmlns:rdf="http://www.w3.org/1999/02/22-rdf-syntax-ns#"
   xmlns:svg="http://www.w3.org/2000/svg"
   xmlns="http://www.w3.org/2000/svg"
   xmlns:sodipodi="http://sodipodi.sourceforge.net/DTD/sodipodi-0.dtd"
   xmlns:inkscape="http://www.inkscape.org/namespaces/inkscape"
   width="114"
   height="102"
   viewBox="0 0 30.162497 26.987501"
   version="1.1"
   id="svg8"
   inkscape:version="1.0.1 (3bc2e813f5, 2020-09-07)"
   sodipodi:docname="icon_cart.svg">
  <defs
     id="defs2" />
  <sodipodi:namedview
     id="base"
     pagecolor="#ffffff"
     bordercolor="#666666"
     borderopacity="1.0"
     inkscape:pageopacity="0.0"
     inkscape:pageshadow="2"
     inkscape:zoom="1.4"
     inkscape:cx="84.964828"
     inkscape:cy="33.621768"
     inkscape:document-units="mm"
     inkscape:current-layer="layer1"
     inkscape:document-rotation="0"
     showgrid="false"
     fit-margin-top="0"
     fit-margin-left="0"
     fit-margin-right="0"
     fit-margin-bottom="0"
     units="px"
     inkscape:window-width="1366"
     inkscape:window-height="704"
     inkscape:window-x="1920"
     inkscape:window-y="0"
     inkscape:window-maximized="1" />
  <metadata
     id="metadata5">
    <rdf:RDF>
      <cc:Work
         rdf:about="">
        <dc:format>image/svg+xml</dc:format>
        <dc:type
           rdf:resource="http://purl.org/dc/dcmitype/StillImage" />
        <dc:title></dc:title>
      </cc:Work>
    </rdf:RDF>
  </metadata>
  <g
     inkscape:label="Capa 1"
     inkscape:groupmode="layer"
     id="layer1"
     transform="translate(-6.0906763,-29.706117)">
    <g
       id="g230"
       transform="matrix(0.32257736,0,0,-0.33649665,30.675072,49.483872)">
      <path
         d="m 0,0 h -47.247 c -0.451,1.503 2.428,-8.097 -9.683,32.288 H 9.692 Z m -11.487,-10.423 c 1.417,-0.267 2.59,-1.44 2.854,-2.854 0.496,-2.63 -1.771,-4.783 -4.302,-4.311 -1.42,0.278 -2.597,1.457 -2.86,2.869 -0.49,2.595 1.724,4.788 4.308,4.296 m -43.533,-7.224 c -2.012,0 -3.649,1.636 -3.649,3.649 0,2.013 1.637,3.649 3.649,3.649 1.946,0 3.649,-1.578 3.649,-3.649 0,-2.013 -1.636,-3.649 -3.649,-3.649 m 66.471,52.551 h -69.135 l -2.315,8.03 c -0.162,0.56 -0.674,0.946 -1.257,0.946 h -9.699 c -0.723,0 -1.308,-0.586 -1.308,-1.309 0,-0.721 0.585,-1.307 1.308,-1.307 h 8.715 c 17.496,-58.857 11.462,-38.557 12.767,-42.949 0.012,-0.038 0.037,-0.068 0.052,-0.105 l -3.331,-4.471 c 0,0 -1.482,-2.126 -2.268,-2.126 -3.094,0 -5.611,-2.516 -5.611,-5.611 0,-3.095 2.517,-5.611 5.611,-5.611 2.758,0 5.045,2.004 5.513,4.63 h 31.775 c 0.006,-0.035 0.002,-0.068 0.008,-0.102 0.414,-2.216 2.187,-3.997 4.419,-4.434 3.978,-0.742 7.338,2.691 6.6,6.6 -0.415,2.224 -2.191,4 -4.415,4.419 -2.894,0.559 -5.994,-1.185 -6.588,-4.522 h -31.796 c -0.206,1.164 -0.821,2.669 -2.561,3.805 l 4.475,6.597 H 0.973 c 0.577,0 1.087,0.379 1.253,0.931 L 12.704,33.22 c 0.119,0.396 0.044,0.825 -0.204,1.157 -0.246,0.332 -0.636,0.527 -1.049,0.527"
         style="fill:#0898fd;fill-opacity:1;fill-rule:nonzero;stroke:none"
         id="path232" />
    </g>
    <g
       id="g234"
       transform="matrix(0.32257736,0,0,-0.33649665,30.675072,49.483872)">
      <path
         d="m 0,0 h -47.247 c -0.451,1.503 2.428,-8.097 -9.683,32.288 H 9.692 Z m -11.487,-10.423 c 1.417,-0.267 2.59,-1.44 2.854,-2.854 0.496,-2.63 -1.771,-4.783 -4.302,-4.311 -1.42,0.278 -2.597,1.457 -2.86,2.869 -0.49,2.595 1.724,4.788 4.308,4.296 z m -43.533,-7.224 c -2.012,0 -3.649,1.636 -3.649,3.649 0,2.013 1.637,3.649 3.649,3.649 1.946,0 3.649,-1.578 3.649,-3.649 0,-2.013 -1.636,-3.649 -3.649,-3.649 z m 66.471,52.551 h -69.135 l -2.315,8.03 c -0.162,0.56 -0.674,0.946 -1.257,0.946 h -9.699 c -0.723,0 -1.308,-0.586 -1.308,-1.309 0,-0.721 0.585,-1.307 1.308,-1.307 h 8.715 c 17.496,-58.857 11.462,-38.557 12.767,-42.949 0.012,-0.038 0.037,-0.068 0.052,-0.105 l -3.331,-4.471 c 0,0 -1.482,-2.126 -2.268,-2.126 -3.094,0 -5.611,-2.516 -5.611,-5.611 0,-3.095 2.517,-5.611 5.611,-5.611 2.758,0 5.045,2.004 5.513,4.63 h 31.775 c 0.006,-0.035 0.002,-0.068 0.008,-0.102 0.414,-2.216 2.187,-3.997 4.419,-4.434 3.978,-0.742 7.338,2.691 6.6,6.6 -0.415,2.224 -2.191,4 -4.415,4.419 -2.894,0.559 -5.994,-1.185 -6.588,-4.522 h -31.796 c -0.206,1.164 -0.821,2.669 -2.561,3.805 l 4.475,6.597 H 0.973 c 0.577,0 1.087,0.379 1.253,0.931 L 12.704,33.22 c 0.119,0.396 0.044,0.825 -0.204,1.157 -0.246,0.332 -0.636,0.527 -1.049,0.527 z"
         style="fill:none;stroke:#0898fd;stroke-width:0.75;stroke-linecap:butt;stroke-linejoin:miter;stroke-miterlimit:10;stroke-dasharray:none;stroke-opacity:1"
         id="path236" />
    </g>
    <g
       id="g238"
       transform="matrix(0.32257736,0,0,-0.33649665,15.723741,41.805893)">
      <path
         d="m 0,0 h 45.452 c 0.542,0 0.981,0.439 0.981,0.98 0,0.542 -0.439,0.982 -0.981,0.982 H 0 C -0.542,1.962 -0.981,1.522 -0.981,0.98 -0.981,0.439 -0.542,0 0,0"
         style="fill:#0898fd;fill-opacity:1;fill-rule:nonzero;stroke:none"
         id="path240" />
    </g>
    <g
       id="g242"
       transform="matrix(0.32257736,0,0,-0.33649665,15.723741,41.805893)">
      <path
         d="m 0,0 h 45.452 c 0.542,0 0.981,0.439 0.981,0.98 0,0.542 -0.439,0.982 -0.981,0.982 H 0 C -0.542,1.962 -0.981,1.522 -0.981,0.98 -0.981,0.439 -0.542,0 0,0 Z"
         style="fill:none;stroke:#0898fd;stroke-width:0.75;stroke-linecap:butt;stroke-linejoin:miter;stroke-miterlimit:10;stroke-dasharray:none;stroke-opacity:1"
         id="path244" />
    </g>
    <g
       id="g246"
       transform="matrix(0.32257736,0,0,-0.33649665,29.690016,43.721369)">
      <path
         d="m 0,0 h -41.14 c -0.542,0 -0.981,-0.439 -0.981,-0.98 0,-0.542 0.439,-0.982 0.981,-0.982 H 0 c 0.542,0 0.981,0.44 0.981,0.982 C 0.981,-0.439 0.542,0 0,0"
         style="fill:#0898fd;fill-opacity:1;fill-rule:nonzero;stroke:none"
         id="path248" />
    </g>
    <g
       id="g250"
       transform="matrix(0.32257736,0,0,-0.33649665,29.690016,43.721369)">
      <path
         d="m 0,0 h -41.14 c -0.542,0 -0.981,-0.439 -0.981,-0.98 0,-0.542 0.439,-0.982 0.981,-0.982 H 0 c 0.542,0 0.981,0.44 0.981,0.982 C 0.981,-0.439 0.542,0 0,0 Z"
         style="fill:none;stroke:#0898fd;stroke-width:0.75;stroke-linecap:butt;stroke-linejoin:miter;stroke-miterlimit:10;stroke-dasharray:none;stroke-opacity:1"
         id="path252" />
    </g>
    <g
       id="g254"
       transform="matrix(0.32257736,0,0,-0.33649665,29.115121,46.297014)">
      <path
         d="m 0,0 h -37.576 c -0.541,0 -0.981,-0.439 -0.981,-0.981 0,-0.541 0.44,-0.981 0.981,-0.981 H 0 c 0.542,0 0.981,0.44 0.981,0.981 C 0.981,-0.439 0.542,0 0,0"
         style="fill:#0898fd;fill-opacity:1;fill-rule:nonzero;stroke:none"
         id="path256" />
    </g>
    <g
       id="g258"
       transform="matrix(0.32257736,0,0,-0.33649665,29.115121,46.297014)">
      <path
         d="m 0,0 h -37.576 c -0.541,0 -0.981,-0.439 -0.981,-0.981 0,-0.541 0.44,-0.981 0.981,-0.981 H 0 c 0.542,0 0.981,0.44 0.981,0.981 C 0.981,-0.439 0.542,0 0,0 Z"
         style="fill:none;stroke:#0898fd;stroke-width:0.75;stroke-linecap:butt;stroke-linejoin:miter;stroke-miterlimit:10;stroke-dasharray:none;stroke-opacity:1"
         id="path260" />
    </g>
    <g
       id="g262"
       transform="matrix(0.32257736,0,0,-0.33649665,27.662877,33.175933)">
      <path
         d="m 0,0 c 0.511,0.512 0.511,1.339 0,1.85 -3.625,3.626 -8.445,5.623 -13.57,5.623 h -0.003 c -5.129,0 -9.95,-1.997 -13.575,-5.622 -0.511,-0.511 -0.511,-1.339 0,-1.85 0.511,-0.511 1.338,-0.511 1.85,0 3.131,3.132 7.295,4.855 11.725,4.855 h 0.003 C -9.144,4.856 -4.981,3.132 -1.85,0 -1.339,-0.511 -0.511,-0.511 0,0"
         style="fill:#0898fd;fill-opacity:1;fill-rule:nonzero;stroke:none"
         id="path264" />
    </g>
    <g
       id="g266"
       transform="matrix(0.32257736,0,0,-0.33649665,27.662877,33.175933)">
      <path
         d="m 0,0 c 0.511,0.512 0.511,1.339 0,1.85 -3.625,3.626 -8.445,5.623 -13.57,5.623 h -0.003 c -5.129,0 -9.95,-1.997 -13.575,-5.622 -0.511,-0.511 -0.511,-1.339 0,-1.85 0.511,-0.511 1.338,-0.511 1.85,0 3.131,3.132 7.295,4.855 11.725,4.855 h 0.003 C -9.144,4.856 -4.981,3.132 -1.85,0 -1.339,-0.511 -0.511,-0.511 0,0 Z"
         style="fill:none;stroke:#0898fd;stroke-width:0.75;stroke-linecap:butt;stroke-linejoin:miter;stroke-miterlimit:10;stroke-dasharray:none;stroke-opacity:1"
         id="path268" />
    </g>
    <g
       id="g270"
       transform="matrix(0.32257736,0,0,-0.33649665,26.115829,34.789736)">
      <path
         d="m 0,0 c 0.511,0.512 0.511,1.34 0,1.85 -2.345,2.344 -5.462,3.636 -8.776,3.636 h -0.003 c -3.315,0 -6.432,-1.291 -8.777,-3.635 -0.511,-0.511 -0.511,-1.339 0,-1.85 0.511,-0.511 1.339,-0.511 1.849,0 1.852,1.851 4.311,2.869 6.929,2.869 h 0.002 C -6.161,2.87 -3.701,1.851 -1.85,0 -1.339,-0.511 -0.511,-0.511 0,0"
         style="fill:#0898fd;fill-opacity:1;fill-rule:nonzero;stroke:none"
         id="path272" />
    </g>
    <g
       id="g274"
       transform="matrix(0.32257736,0,0,-0.33649665,26.115829,34.789736)">
      <path
         d="m 0,0 c 0.511,0.512 0.511,1.34 0,1.85 -2.345,2.344 -5.462,3.636 -8.776,3.636 h -0.003 c -3.315,0 -6.432,-1.291 -8.777,-3.635 -0.511,-0.511 -0.511,-1.339 0,-1.85 0.511,-0.511 1.339,-0.511 1.849,0 1.852,1.851 4.311,2.869 6.929,2.869 h 0.002 C -6.161,2.87 -3.701,1.851 -1.85,0 -1.339,-0.511 -0.511,-0.511 0,0 Z"
         style="fill:none;stroke:#0898fd;stroke-width:0.75;stroke-linecap:butt;stroke-linejoin:miter;stroke-miterlimit:10;stroke-dasharray:none;stroke-opacity:1"
         id="path276" />
    </g>
    <g
       id="g278"
       transform="matrix(0.32257736,0,0,-0.33649665,21.999677,35.78082)">
      <path
         d="m 0,0 c -0.511,-0.511 -0.511,-1.339 0,-1.85 0.511,-0.51 1.339,-0.51 1.85,0 1.176,1.175 3.089,1.175 4.264,0 0.511,-0.51 1.339,-0.51 1.85,0 0.511,0.511 0.511,1.339 0,1.85 C 5.768,2.196 2.196,2.196 0,0"
         style="fill:#0898fd;fill-opacity:1;fill-rule:nonzero;stroke:none"
         id="path280" />
    </g>
    <g
       id="g282"
       transform="matrix(0.32257736,0,0,-0.33649665,21.999677,35.78082)">
      <path
         d="m 0,0 c -0.511,-0.511 -0.511,-1.339 0,-1.85 0.511,-0.51 1.339,-0.51 1.85,0 1.176,1.175 3.089,1.175 4.264,0 0.511,-0.51 1.339,-0.51 1.85,0 0.511,0.511 0.511,1.339 0,1.85 C 5.768,2.196 2.196,2.196 0,0 Z"
         style="fill:none;stroke:#0898fd;stroke-width:0.75;stroke-linecap:butt;stroke-linejoin:miter;stroke-miterlimit:10;stroke-dasharray:none;stroke-opacity:1"
         id="path284" />
    </g>
  </g>
</svg>
