<?xml version="1.0" encoding="UTF-8" standalone="no"?>
<svg
   xmlns:dc="http://purl.org/dc/elements/1.1/"
   xmlns:cc="http://creativecommons.org/ns#"
   xmlns:rdf="http://www.w3.org/1999/02/22-rdf-syntax-ns#"
   xmlns:svg="http://www.w3.org/2000/svg"
   xmlns="http://www.w3.org/2000/svg"
   xmlns:sodipodi="http://sodipodi.sourceforge.net/DTD/sodipodi-0.dtd"
   xmlns:inkscape="http://www.inkscape.org/namespaces/inkscape"
   width="114"
   height="102"
   viewBox="0 0 30.162497 26.987501"
   version="1.1"
   id="svg8"
   inkscape:version="1.0.1 (3bc2e813f5, 2020-09-07)"
   sodipodi:docname="icon_mobile.svg">
  <defs
     id="defs2" />
  <sodipodi:namedview
     id="base"
     pagecolor="#ffffff"
     bordercolor="#666666"
     borderopacity="1.0"
     inkscape:pageopacity="0.0"
     inkscape:pageshadow="2"
     inkscape:zoom="1.4"
     inkscape:cx="327.13843"
     inkscape:cy="104.722"
     inkscape:document-units="mm"
     inkscape:current-layer="layer1"
     inkscape:document-rotation="0"
     showgrid="false"
     fit-margin-top="0"
     fit-margin-left="0"
     fit-margin-right="0"
     fit-margin-bottom="0"
     units="px"
     inkscape:window-width="1366"
     inkscape:window-height="704"
     inkscape:window-x="1920"
     inkscape:window-y="0"
     inkscape:window-maximized="1" />
  <metadata
     id="metadata5">
    <rdf:RDF>
      <cc:Work
         rdf:about="">
        <dc:format>image/svg+xml</dc:format>
        <dc:type
           rdf:resource="http://purl.org/dc/dcmitype/StillImage" />
        <dc:title></dc:title>
      </cc:Work>
    </rdf:RDF>
  </metadata>
  <g
     inkscape:label="Capa 1"
     inkscape:groupmode="layer"
     id="layer1"
     transform="translate(-38.606852,-59.040057)">
    <g
       id="g344"
       transform="matrix(0.35277777,0,0,-0.32219735,46.972765,61.740168)">
      <path
         d="m 0,0 h 6.567 c 0.553,0 1,0.446 1,1 0,0.553 -0.447,1 -1,1 H 0 C -0.553,2 -1,1.553 -1,1 -1,0.446 -0.553,0 0,0"
         style="fill:#0898fd;fill-opacity:1;fill-rule:nonzero;stroke:none"
         id="path346" />
    </g>
    <g
       id="g348"
       transform="matrix(0.35277777,0,0,-0.32219735,46.972765,61.740168)">
      <path
         d="m 0,0 h 6.567 c 0.553,0 1,0.446 1,1 0,0.553 -0.447,1 -1,1 H 0 C -0.553,2 -1,1.553 -1,1 -1,0.446 -0.553,0 0,0 Z"
         style="fill:none;stroke:#0898fd;stroke-width:1;stroke-linecap:butt;stroke-linejoin:miter;stroke-miterlimit:10;stroke-dasharray:none;stroke-opacity:1"
         id="path350" />
    </g>
    <g
       id="g352"
       transform="matrix(0.35277777,0,0,-0.32219735,48.13118,83.563045)">
      <path
         d="m 0,0 c -0.886,0 -1.605,0.72 -1.605,1.604 0,0.886 0.72,1.605 1.605,1.605 0.885,0 1.604,-0.72 1.604,-1.605 C 1.605,0.72 0.885,0 0,0 m 0,5.21 c -1.988,0 -3.605,-1.617 -3.605,-3.605 0,-1.987 1.617,-3.604 3.605,-3.604 1.987,0 3.604,1.617 3.604,3.604 C 3.605,3.593 1.987,5.21 0,5.21"
         style="fill:#0898fd;fill-opacity:1;fill-rule:nonzero;stroke:none"
         id="path354" />
    </g>
    <g
       id="g356"
       transform="matrix(0.35277777,0,0,-0.32219735,48.13118,83.563045)">
      <path
         d="m 0,0 c -0.886,0 -1.605,0.72 -1.605,1.604 0,0.886 0.72,1.605 1.605,1.605 0.885,0 1.604,-0.72 1.604,-1.605 C 1.605,0.72 0.885,0 0,0 Z m 0,5.21 c -1.988,0 -3.605,-1.617 -3.605,-3.605 0,-1.987 1.617,-3.604 3.605,-3.604 1.987,0 3.604,1.617 3.604,3.604 C 3.605,3.593 1.987,5.21 0,5.21 Z"
         style="fill:none;stroke:#0898fd;stroke-width:1;stroke-linecap:butt;stroke-linejoin:miter;stroke-miterlimit:10;stroke-dasharray:none;stroke-opacity:1"
         id="path358" />
    </g>
    <g
       id="g360"
       transform="matrix(0.35277777,0,0,-0.32219735,58.493004,83.25406)">
      <path
         d="m 0,0 c -10.208,5.137 -26.498,18.204 -24.825,48.892 9.68,0.379 11.721,6.503 12.149,8.943 H 12.51 C 12.939,55.395 14.981,49.27 24.661,48.892 26.449,18.193 10.195,5.131 0,0 m -13.897,7.898 h -32.724 v 54.351 h 34.498 v -2.414 h -1.439 c -0.546,0 -0.99,-0.441 -1,-0.986 -0.006,-0.327 -0.262,-7.977 -11.219,-7.977 -0.27,0 -0.527,-0.108 -0.716,-0.302 -0.188,-0.192 -0.291,-0.453 -0.284,-0.723 0.003,-0.109 -0.013,-0.344 -0.032,-0.69 -0.495,-8.777 0.206,-27.511 12.916,-41.259 m 6.483,-9.207 c 0,-1.852 -1.506,-3.357 -3.357,-3.357 h -37.202 c -1.852,0 -3.357,1.506 -3.357,3.357 v 69.287 c 0,1.851 1.506,3.356 3.357,3.356 h 37.201 c 1.852,0 3.357,-1.506 3.357,-3.356 v -8.143 h -2.709 v 3.414 c 0,0.553 -0.447,1 -1,1 h -36.497 c -0.553,0 -1,-0.447 -1,-1 V 6.898 c 0,-0.553 0.447,-1 1,-1 h 35.376 c 0.098,0 0.186,0.03 0.275,0.056 1.39,-1.324 2.904,-2.592 4.556,-3.787 z m 34.029,51.158 c 0.006,0.269 -0.096,0.529 -0.284,0.722 -0.188,0.193 -0.446,0.302 -0.716,0.302 -10.957,0 -11.213,7.649 -11.219,7.971 -0.005,0.551 -0.451,0.992 -1,0.992 h -18.81 v 8.143 c 0,2.954 -2.403,5.356 -5.357,5.356 h -37.202 c -2.954,0 -5.357,-2.402 -5.357,-5.356 V -1.307 c 0,-2.954 2.403,-5.357 5.357,-5.357 h 37.201 c 2.954,0 5.357,2.403 5.357,5.357 v 2.11 c 1.55,-1.001 3.199,-1.947 4.975,-2.816 0.139,-0.067 0.289,-0.102 0.439,-0.102 0.15,0 0.301,0.034 0.439,0.102 10.621,5.2 28.149,18.759 26.211,51.154 -0.02,0.355 -0.037,0.595 -0.034,0.708"
         style="fill:#0898fd;fill-opacity:1;fill-rule:nonzero;stroke:none"
         id="path362" />
    </g>
    <g
       id="g364"
       transform="matrix(0.35277777,0,0,-0.32219735,58.493004,83.25406)">
      <path
         d="m 0,0 c -10.208,5.137 -26.498,18.204 -24.825,48.892 9.68,0.379 11.721,6.503 12.149,8.943 H 12.51 C 12.939,55.395 14.981,49.27 24.661,48.892 26.449,18.193 10.195,5.131 0,0 Z m -13.897,7.898 h -32.724 v 54.351 h 34.498 v -2.414 h -1.439 c -0.546,0 -0.99,-0.441 -1,-0.986 -0.006,-0.327 -0.262,-7.977 -11.219,-7.977 -0.27,0 -0.527,-0.108 -0.716,-0.302 -0.188,-0.192 -0.291,-0.453 -0.284,-0.723 0.003,-0.109 -0.013,-0.344 -0.032,-0.69 -0.495,-8.777 0.206,-27.511 12.916,-41.259 z m 6.483,-9.207 c 0,-1.852 -1.506,-3.357 -3.357,-3.357 h -37.202 c -1.852,0 -3.357,1.506 -3.357,3.357 v 69.287 c 0,1.851 1.506,3.356 3.357,3.356 h 37.201 c 1.852,0 3.357,-1.506 3.357,-3.356 v -8.143 h -2.709 v 3.414 c 0,0.553 -0.447,1 -1,1 h -36.497 c -0.553,0 -1,-0.447 -1,-1 V 6.898 c 0,-0.553 0.447,-1 1,-1 h 35.376 c 0.098,0 0.186,0.03 0.275,0.056 1.39,-1.324 2.904,-2.592 4.556,-3.787 z m 34.029,51.158 c 0.006,0.269 -0.096,0.529 -0.284,0.722 -0.188,0.193 -0.446,0.302 -0.716,0.302 -10.957,0 -11.213,7.649 -11.219,7.971 -0.005,0.551 -0.451,0.992 -1,0.992 h -18.81 v 8.143 c 0,2.954 -2.403,5.356 -5.357,5.356 h -37.202 c -2.954,0 -5.357,-2.402 -5.357,-5.356 V -1.307 c 0,-2.954 2.403,-5.357 5.357,-5.357 h 37.201 c 2.954,0 5.357,2.403 5.357,5.357 v 2.11 c 1.55,-1.001 3.199,-1.947 4.975,-2.816 0.139,-0.067 0.289,-0.102 0.439,-0.102 0.15,0 0.301,0.034 0.439,0.102 10.621,5.2 28.149,18.759 26.211,51.154 -0.02,0.355 -0.037,0.595 -0.034,0.708 z"
         style="fill:none;stroke:#0898fd;stroke-width:1;stroke-linecap:butt;stroke-linejoin:miter;stroke-miterlimit:10;stroke-dasharray:none;stroke-opacity:1"
         id="path366" />
    </g>
    <g
       id="g368"
       transform="matrix(0.35277777,0,0,-0.32219735,58.463726,76.147481)">
      <path
         d="m 0,0 c -7.833,0 -14.581,7.45 -16.394,9.64 1.81,2.188 8.547,9.637 16.394,9.637 7.833,0 14.581,-7.451 16.394,-9.639 C 14.584,7.447 7.847,0 0,0 m 0,21.276 c -10.146,0 -18.14,-10.59 -18.476,-11.042 -0.263,-0.353 -0.263,-0.838 0,-1.192 C -18.14,8.591 -10.147,-2 0,-2 10.147,-2 18.14,8.591 18.476,9.042 c 0.263,0.354 0.263,0.839 0,1.192 C 18.14,10.686 10.147,21.276 0,21.276"
         style="fill:#0898fd;fill-opacity:1;fill-rule:nonzero;stroke:none"
         id="path370" />
    </g>
    <g
       id="g372"
       transform="matrix(0.35277777,0,0,-0.32219735,58.463726,76.147481)">
      <path
         d="m 0,0 c -7.833,0 -14.581,7.45 -16.394,9.64 1.81,2.188 8.547,9.637 16.394,9.637 7.833,0 14.581,-7.451 16.394,-9.639 C 14.584,7.447 7.847,0 0,0 Z m 0,21.276 c -10.146,0 -18.14,-10.59 -18.476,-11.042 -0.263,-0.353 -0.263,-0.838 0,-1.192 C -18.14,8.591 -10.147,-2 0,-2 10.147,-2 18.14,8.591 18.476,9.042 c 0.263,0.354 0.263,0.839 0,1.192 C 18.14,10.686 10.147,21.276 0,21.276 Z"
         style="fill:none;stroke:#0898fd;stroke-width:1;stroke-linecap:butt;stroke-linejoin:miter;stroke-miterlimit:10;stroke-dasharray:none;stroke-opacity:1"
         id="path374" />
    </g>
    <g
       id="g376"
       transform="matrix(0.35277777,0,0,-0.32219735,58.463726,74.80582)">
      <path
         d="m 0,0 c -3.019,0 -5.474,2.455 -5.474,5.475 0,3.018 2.455,5.473 5.474,5.473 3.019,0 5.474,-2.455 5.474,-5.473 C 5.474,2.455 3.019,0 0,0 m 0,12.947 c -4.121,0 -7.474,-3.352 -7.474,-7.473 0,-4.121 3.353,-7.475 7.474,-7.475 4.121,0 7.474,3.354 7.474,7.475 0,4.121 -3.353,7.473 -7.474,7.473"
         style="fill:#0898fd;fill-opacity:1;fill-rule:nonzero;stroke:none"
         id="path378" />
    </g>
    <g
       id="g380"
       transform="matrix(0.35277777,0,0,-0.32219735,58.463726,74.80582)">
      <path
         d="m 0,0 c -3.019,0 -5.474,2.455 -5.474,5.475 0,3.018 2.455,5.473 5.474,5.473 3.019,0 5.474,-2.455 5.474,-5.473 C 5.474,2.455 3.019,0 0,0 Z m 0,12.947 c -4.121,0 -7.474,-3.352 -7.474,-7.473 0,-4.121 3.353,-7.475 7.474,-7.475 4.121,0 7.474,3.354 7.474,7.475 0,4.121 -3.353,7.473 -7.474,7.473 z"
         style="fill:none;stroke:#0898fd;stroke-width:1;stroke-linecap:butt;stroke-linejoin:miter;stroke-miterlimit:10;stroke-dasharray:none;stroke-opacity:1"
         id="path382" />
    </g>
  </g>
</svg>
