<?xml version="1.0" encoding="UTF-8" standalone="no"?>
<svg
   xmlns:dc="http://purl.org/dc/elements/1.1/"
   xmlns:cc="http://creativecommons.org/ns#"
   xmlns:rdf="http://www.w3.org/1999/02/22-rdf-syntax-ns#"
   xmlns:svg="http://www.w3.org/2000/svg"
   xmlns="http://www.w3.org/2000/svg"
   xmlns:sodipodi="http://sodipodi.sourceforge.net/DTD/sodipodi-0.dtd"
   xmlns:inkscape="http://www.inkscape.org/namespaces/inkscape"
   width="114"
   height="102"
   viewBox="0 0 30.162495 26.987503"
   version="1.1"
   id="svg8"
   inkscape:version="1.0.1 (3bc2e813f5, 2020-09-07)"
   sodipodi:docname="icon_gray_cart.svg">
  <defs
     id="defs2" />
  <sodipodi:namedview
     id="base"
     pagecolor="#ffffff"
     bordercolor="#666666"
     borderopacity="1.0"
     inkscape:pageopacity="0.0"
     inkscape:pageshadow="2"
     inkscape:zoom="1.4"
     inkscape:cx="211.91237"
     inkscape:cy="69.520503"
     inkscape:document-units="mm"
     inkscape:current-layer="layer1"
     inkscape:document-rotation="0"
     showgrid="false"
     fit-margin-top="0"
     fit-margin-left="0"
     fit-margin-right="0"
     fit-margin-bottom="0"
     units="px"
     inkscape:window-width="1366"
     inkscape:window-height="704"
     inkscape:window-x="1920"
     inkscape:window-y="0"
     inkscape:window-maximized="1" />
  <metadata
     id="metadata5">
    <rdf:RDF>
      <cc:Work
         rdf:about="">
        <dc:format>image/svg+xml</dc:format>
        <dc:type
           rdf:resource="http://purl.org/dc/dcmitype/StillImage" />
        <dc:title></dc:title>
      </cc:Work>
    </rdf:RDF>
  </metadata>
  <g
     inkscape:label="Capa 1"
     inkscape:groupmode="layer"
     id="layer1"
     transform="translate(44.447903,29.715773)">
    <g
       id="g116"
       transform="matrix(0.32847704,0,0,-0.33460819,-19.529526,-10.178695)">
      <path
         d="m 0,0 h -47.247 c -0.451,1.503 2.428,-8.097 -9.683,32.288 H 9.692 Z m -11.487,-10.423 c 1.417,-0.267 2.59,-1.44 2.854,-2.854 0.496,-2.63 -1.771,-4.783 -4.302,-4.311 -1.42,0.278 -2.597,1.457 -2.86,2.869 -0.49,2.595 1.724,4.787 4.308,4.296 m -43.533,-7.224 c -2.012,0 -3.649,1.636 -3.649,3.649 0,2.012 1.637,3.649 3.649,3.649 1.946,0 3.649,-1.578 3.649,-3.649 0,-2.013 -1.636,-3.649 -3.649,-3.649 M 11.451,34.904 H -57.685 L -60,42.934 c -0.161,0.56 -0.673,0.946 -1.256,0.946 h -9.7 c -0.722,0 -1.307,-0.586 -1.307,-1.309 0,-0.722 0.585,-1.307 1.307,-1.307 h 8.716 c 17.496,-58.857 11.462,-38.557 12.767,-42.949 0.012,-0.038 0.036,-0.068 0.052,-0.105 l -3.331,-4.471 c 0,0 -1.482,-2.126 -2.268,-2.126 -3.094,0 -5.611,-2.517 -5.611,-5.611 0,-3.095 2.517,-5.612 5.611,-5.612 2.758,0 5.045,2.005 5.513,4.631 h 31.775 c 0.006,-0.035 0.002,-0.068 0.008,-0.102 0.414,-2.216 2.187,-3.997 4.419,-4.434 3.978,-0.742 7.338,2.691 6.6,6.6 -0.415,2.224 -2.191,4 -4.415,4.419 -2.894,0.559 -5.994,-1.186 -6.588,-4.522 h -31.797 c -0.205,1.164 -0.82,2.669 -2.56,3.805 l 4.475,6.597 H 0.973 c 0.577,0 1.087,0.379 1.253,0.931 L 12.704,33.22 c 0.119,0.396 0.044,0.825 -0.204,1.156 -0.247,0.333 -0.636,0.528 -1.049,0.528"
         style="fill:#cccccc;fill-opacity:1;fill-rule:nonzero;stroke:none"
         id="path118" />
    </g>
    <g
       id="g120"
       transform="matrix(0.32847704,0,0,-0.33460819,-19.529526,-10.178695)">
      <path
         d="m 0,0 h -47.247 c -0.451,1.503 2.428,-8.097 -9.683,32.288 H 9.692 Z m -11.487,-10.423 c 1.417,-0.267 2.59,-1.44 2.854,-2.854 0.496,-2.63 -1.771,-4.783 -4.302,-4.311 -1.42,0.278 -2.597,1.457 -2.86,2.869 -0.49,2.595 1.724,4.787 4.308,4.296 z m -43.533,-7.224 c -2.012,0 -3.649,1.636 -3.649,3.649 0,2.012 1.637,3.649 3.649,3.649 1.946,0 3.649,-1.578 3.649,-3.649 0,-2.013 -1.636,-3.649 -3.649,-3.649 z M 11.451,34.904 H -57.685 L -60,42.934 c -0.161,0.56 -0.673,0.946 -1.256,0.946 h -9.7 c -0.722,0 -1.307,-0.586 -1.307,-1.309 0,-0.722 0.585,-1.307 1.307,-1.307 h 8.716 c 17.496,-58.857 11.462,-38.557 12.767,-42.949 0.012,-0.038 0.036,-0.068 0.052,-0.105 l -3.331,-4.471 c 0,0 -1.482,-2.126 -2.268,-2.126 -3.094,0 -5.611,-2.517 -5.611,-5.611 0,-3.095 2.517,-5.612 5.611,-5.612 2.758,0 5.045,2.005 5.513,4.631 h 31.775 c 0.006,-0.035 0.002,-0.068 0.008,-0.102 0.414,-2.216 2.187,-3.997 4.419,-4.434 3.978,-0.742 7.338,2.691 6.6,6.6 -0.415,2.224 -2.191,4 -4.415,4.419 -2.894,0.559 -5.994,-1.186 -6.588,-4.522 h -31.797 c -0.205,1.164 -0.82,2.669 -2.56,3.805 l 4.475,6.597 H 0.973 c 0.577,0 1.087,0.379 1.253,0.931 L 12.704,33.22 c 0.119,0.396 0.044,0.825 -0.204,1.156 -0.247,0.333 -0.636,0.528 -1.049,0.528 z"
         style="fill:none;stroke:#cccccc;stroke-width:0.75;stroke-linecap:butt;stroke-linejoin:miter;stroke-miterlimit:10;stroke-dasharray:none;stroke-opacity:1"
         id="path122" />
    </g>
    <g
       id="g124"
       transform="matrix(0.32847704,0,0,-0.33460819,-34.75447,-17.813283)">
      <path
         d="m 0,0 h 45.453 c 0.541,0 0.981,0.439 0.981,0.981 0,0.542 -0.44,0.982 -0.981,0.982 H 0 c -0.542,0 -0.981,-0.44 -0.981,-0.982 C -0.981,0.439 -0.542,0 0,0"
         style="fill:#cccccc;fill-opacity:1;fill-rule:nonzero;stroke:none"
         id="path126" />
    </g>
    <g
       id="g128"
       transform="matrix(0.32847704,0,0,-0.33460819,-34.75447,-17.813283)">
      <path
         d="m 0,0 h 45.453 c 0.541,0 0.981,0.439 0.981,0.981 0,0.542 -0.44,0.982 -0.981,0.982 H 0 c -0.542,0 -0.981,-0.44 -0.981,-0.982 C -0.981,0.439 -0.542,0 0,0 Z"
         style="fill:none;stroke:#cccccc;stroke-width:0.75;stroke-linecap:butt;stroke-linejoin:miter;stroke-miterlimit:10;stroke-dasharray:none;stroke-opacity:1"
         id="path130" />
    </g>
    <g
       id="g132"
       transform="matrix(0.32847704,0,0,-0.33460819,-20.532596,-15.908859)">
      <path
         d="m 0,0 h -41.14 c -0.542,0 -0.981,-0.439 -0.981,-0.981 0,-0.541 0.439,-0.981 0.981,-0.981 H 0 c 0.542,0 0.981,0.44 0.981,0.981 C 0.981,-0.439 0.542,0 0,0"
         style="fill:#cccccc;fill-opacity:1;fill-rule:nonzero;stroke:none"
         id="path134" />
    </g>
    <g
       id="g136"
       transform="matrix(0.32847704,0,0,-0.33460819,-20.532596,-15.908859)">
      <path
         d="m 0,0 h -41.14 c -0.542,0 -0.981,-0.439 -0.981,-0.981 0,-0.541 0.439,-0.981 0.981,-0.981 H 0 c 0.542,0 0.981,0.44 0.981,0.981 C 0.981,-0.439 0.542,0 0,0 Z"
         style="fill:none;stroke:#cccccc;stroke-width:0.75;stroke-linecap:butt;stroke-linejoin:miter;stroke-miterlimit:10;stroke-dasharray:none;stroke-opacity:1"
         id="path138" />
    </g>
    <g
       id="g140"
       transform="matrix(0.32847704,0,0,-0.33460819,-21.118009,-13.347368)">
      <path
         d="m 0,0 h -37.576 c -0.541,0 -0.981,-0.439 -0.981,-0.98 0,-0.542 0.44,-0.982 0.981,-0.982 H 0 c 0.542,0 0.981,0.44 0.981,0.982 C 0.981,-0.439 0.542,0 0,0"
         style="fill:#cccccc;fill-opacity:1;fill-rule:nonzero;stroke:none"
         id="path142" />
    </g>
    <g
       id="g144"
       transform="matrix(0.32847704,0,0,-0.33460819,-21.118009,-13.347368)">
      <path
         d="m 0,0 h -37.576 c -0.541,0 -0.981,-0.439 -0.981,-0.98 0,-0.542 0.44,-0.982 0.981,-0.982 H 0 c 0.542,0 0.981,0.44 0.981,0.982 C 0.981,-0.439 0.542,0 0,0 Z"
         style="fill:none;stroke:#cccccc;stroke-width:0.75;stroke-linecap:butt;stroke-linejoin:miter;stroke-miterlimit:10;stroke-dasharray:none;stroke-opacity:1"
         id="path146" />
    </g>
    <g
       id="g148"
       transform="matrix(0.32847704,0,0,-0.33460819,-22.596814,-26.395112)">
      <path
         d="m 0,0 c 0.511,0.511 0.511,1.339 0,1.85 -3.625,3.626 -8.445,5.622 -13.57,5.622 h -0.003 c -5.129,0 -9.95,-1.996 -13.575,-5.621 -0.511,-0.511 -0.511,-1.339 0,-1.85 0.511,-0.511 1.338,-0.511 1.85,0 3.131,3.131 7.295,4.855 11.725,4.855 h 0.003 C -9.144,4.856 -4.981,3.132 -1.85,0 -1.339,-0.511 -0.511,-0.511 0,0"
         style="fill:#cccccc;fill-opacity:1;fill-rule:nonzero;stroke:none"
         id="path150" />
    </g>
    <g
       id="g152"
       transform="matrix(0.32847704,0,0,-0.33460819,-22.596814,-26.395112)">
      <path
         d="m 0,0 c 0.511,0.511 0.511,1.339 0,1.85 -3.625,3.626 -8.445,5.622 -13.57,5.622 h -0.003 c -5.129,0 -9.95,-1.996 -13.575,-5.621 -0.511,-0.511 -0.511,-1.339 0,-1.85 0.511,-0.511 1.338,-0.511 1.85,0 3.131,3.131 7.295,4.855 11.725,4.855 h 0.003 C -9.144,4.856 -4.981,3.132 -1.85,0 -1.339,-0.511 -0.511,-0.511 0,0 Z"
         style="fill:none;stroke:#cccccc;stroke-width:0.75;stroke-linecap:butt;stroke-linejoin:miter;stroke-miterlimit:10;stroke-dasharray:none;stroke-opacity:1"
         id="path154" />
    </g>
    <g
       id="g156"
       transform="matrix(0.32847704,0,0,-0.33460819,-24.172156,-24.790366)">
      <path
         d="m 0,0 c 0.511,0.511 0.511,1.34 0,1.85 -2.345,2.344 -5.462,3.636 -8.776,3.636 h -0.003 c -3.315,0 -6.432,-1.291 -8.777,-3.635 -0.511,-0.511 -0.511,-1.339 0,-1.85 0.511,-0.511 1.338,-0.511 1.849,0 1.852,1.85 4.311,2.869 6.929,2.869 h 0.002 C -6.161,2.87 -3.701,1.851 -1.85,0 -1.339,-0.511 -0.511,-0.511 0,0"
         style="fill:#cccccc;fill-opacity:1;fill-rule:nonzero;stroke:none"
         id="path158" />
    </g>
    <g
       id="g160"
       transform="matrix(0.32847704,0,0,-0.33460819,-24.172156,-24.790366)">
      <path
         d="m 0,0 c 0.511,0.511 0.511,1.34 0,1.85 -2.345,2.344 -5.462,3.636 -8.776,3.636 h -0.003 c -3.315,0 -6.432,-1.291 -8.777,-3.635 -0.511,-0.511 -0.511,-1.339 0,-1.85 0.511,-0.511 1.338,-0.511 1.849,0 1.852,1.85 4.311,2.869 6.929,2.869 h 0.002 C -6.161,2.87 -3.701,1.851 -1.85,0 -1.339,-0.511 -0.511,-0.511 0,0 Z"
         style="fill:none;stroke:#cccccc;stroke-width:0.75;stroke-linecap:butt;stroke-linejoin:miter;stroke-miterlimit:10;stroke-dasharray:none;stroke-opacity:1"
         id="path162" />
    </g>
    <g
       id="g164"
       transform="matrix(0.32847704,0,0,-0.33460819,-28.363589,-23.804844)">
      <path
         d="m 0,0 c -0.511,-0.511 -0.511,-1.339 0,-1.85 0.511,-0.51 1.339,-0.51 1.85,0 1.176,1.175 3.089,1.175 4.264,0 0.511,-0.51 1.339,-0.51 1.85,0 0.511,0.511 0.511,1.339 0,1.85 C 5.768,2.195 2.196,2.195 0,0"
         style="fill:#cccccc;fill-opacity:1;fill-rule:nonzero;stroke:none"
         id="path166" />
    </g>
    <g
       id="g168"
       transform="matrix(0.32847704,0,0,-0.33460819,-28.363589,-23.804844)">
      <path
         d="m 0,0 c -0.511,-0.511 -0.511,-1.339 0,-1.85 0.511,-0.51 1.339,-0.51 1.85,0 1.176,1.175 3.089,1.175 4.264,0 0.511,-0.51 1.339,-0.51 1.85,0 0.511,0.511 0.511,1.339 0,1.85 C 5.768,2.195 2.196,2.195 0,0 Z"
         style="fill:none;stroke:#cccccc;stroke-width:0.75;stroke-linecap:butt;stroke-linejoin:miter;stroke-miterlimit:10;stroke-dasharray:none;stroke-opacity:1"
         id="path170" />
    </g>
  </g>
</svg>
