<?xml version="1.0" encoding="UTF-8" standalone="no"?>
<svg
   xmlns:dc="http://purl.org/dc/elements/1.1/"
   xmlns:cc="http://creativecommons.org/ns#"
   xmlns:rdf="http://www.w3.org/1999/02/22-rdf-syntax-ns#"
   xmlns:svg="http://www.w3.org/2000/svg"
   xmlns="http://www.w3.org/2000/svg"
   xmlns:sodipodi="http://sodipodi.sourceforge.net/DTD/sodipodi-0.dtd"
   xmlns:inkscape="http://www.inkscape.org/namespaces/inkscape"
   width="114"
   height="102"
   viewBox="0 0 30.162495 26.987503"
   version="1.1"
   id="svg8"
   inkscape:version="1.0.1 (3bc2e813f5, 2020-09-07)"
   sodipodi:docname="icon_gray_camera.svg">
  <defs
     id="defs2" />
  <sodipodi:namedview
     id="base"
     pagecolor="#ffffff"
     bordercolor="#666666"
     borderopacity="1.0"
     inkscape:pageopacity="0.0"
     inkscape:pageshadow="2"
     inkscape:zoom="1.4"
     inkscape:cx="211.91237"
     inkscape:cy="12.377646"
     inkscape:document-units="mm"
     inkscape:current-layer="layer1"
     inkscape:document-rotation="0"
     showgrid="false"
     fit-margin-top="0"
     fit-margin-left="0"
     fit-margin-right="0"
     fit-margin-bottom="0"
     units="px"
     inkscape:window-width="1366"
     inkscape:window-height="704"
     inkscape:window-x="1920"
     inkscape:window-y="0"
     inkscape:window-maximized="1" />
  <metadata
     id="metadata5">
    <rdf:RDF>
      <cc:Work
         rdf:about="">
        <dc:format>image/svg+xml</dc:format>
        <dc:type
           rdf:resource="http://purl.org/dc/dcmitype/StillImage" />
        <dc:title></dc:title>
      </cc:Work>
    </rdf:RDF>
  </metadata>
  <g
     inkscape:label="Capa 1"
     inkscape:groupmode="layer"
     id="layer1"
     transform="translate(44.447903,29.715773)">
    <g
       id="g172"
       transform="matrix(0.29477751,0,0,-0.38418063,-38.42897,-18.099655)">
      <path
         d="m 0,0 1.642,-13.543 18.685,-0.845 -1.652,14.033 z"
         style="fill:none;stroke:#cccccc;stroke-width:2;stroke-linecap:butt;stroke-linejoin:miter;stroke-miterlimit:10;stroke-dasharray:none;stroke-opacity:1"
         id="path174" />
    </g>
    <g
       id="g176"
       transform="matrix(0.29477751,0,0,-0.38418063,-15.686208,-4.1569726)">
      <path
         d="m 0,0 -8.138,2.699 c -0.477,0.616 -1.594,2.251 -1.91,4.439 l 5.424,0.316 0.327,0.816 c 3.723,9.312 -2.896,12.517 -2.963,12.549 l -0.354,0.163 -3.058,-0.352 c 0.518,3.507 1.66,7.133 2.823,7.847 l 8.059,-1.35 z m -38.392,8.262 -0.353,-0.299 c -0.202,-0.174 -4.885,-4.068 -9.234,0.054 l -0.82,6.884 0.515,-0.015 6.195,5.48 2.323,0.332 v -6.199 l 31.639,3.644 c 0.9,-0.581 3.371,-2.732 1.564,-8.03 z m -43.468,16.761 -0.436,15.265 24.825,0.162 0.136,0.101 c 0.688,-0.267 4.133,-2.572 8.825,-22.173 l -0.783,-0.695 -30.004,0.903 c -0.74,0.946 -2.402,3.393 -2.563,6.437 m -11.111,14.648 0.275,0.548 7.634,0.05 0.419,-14.671 -1.789,-1.452 z m 47.595,21.902 c 1.399,0.151 9.499,0.982 16.595,0.982 4.369,0 6.906,-0.316 8.382,-0.659 L -55.315,42.52 c -0.363,0.279 -0.725,0.501 -1.086,0.634 -0.713,0.26 -1.349,0.223 -1.826,0.058 l -28.735,-0.19 z m 26.765,-14.539 -5.475,-8.543 -9.058,-8.817 -0.461,-1.618 -4.787,-4.37 -4.91,-0.703 -2.87,-2.539 c -2.413,9.775 -4.839,16.453 -7.248,19.964 l 35.233,19.552 0.93,-2.925 -2.527,-3.902 z M -8.084,31.296 -8.387,31.211 c -3.525,-1.009 -4.744,-7.805 -5.12,-10.905 l -23.492,-2.704 v 3.609 l 5.84,5.332 0.476,1.665 8.642,8.414 6.357,9.85 -1.172,6.09 2.633,4.066 -1.926,6.053 -0.189,0.216 c -0.987,1.128 -3.291,2.423 -12.44,2.423 -7.917,0 -17.024,-1.011 -17.115,-1.021 l -48.677,-21.642 -1.444,-2.886 8.462,-20.098 3.324,2.699 c 0.935,-3.56 3.141,-5.97 3.253,-6.093 l 0.394,-0.424 28.986,-0.871 0.98,-8.229 0.32,-0.334 c 2.171,-2.269 4.523,-3.06 6.687,-3.06 2.557,0 4.853,1.109 6.279,2.193 L -12.8,6.978 c 0.486,-3.538 2.73,-6.291 2.836,-6.407 l 0.249,-0.494 12.45,-3.962 0.259,33.288 z"
         style="fill:#cccccc;fill-opacity:1;fill-rule:nonzero;stroke:none"
         id="path178" />
    </g>
    <g
       id="g180"
       transform="matrix(0.29477751,0,0,-0.38418063,-15.686208,-4.1569726)">
      <path
         d="m 0,0 -8.138,2.699 c -0.477,0.616 -1.594,2.251 -1.91,4.439 l 5.424,0.316 0.327,0.816 c 3.723,9.312 -2.896,12.517 -2.963,12.549 l -0.354,0.163 -3.058,-0.352 c 0.518,3.507 1.66,7.133 2.823,7.847 l 8.059,-1.35 z m -38.392,8.262 -0.353,-0.299 c -0.202,-0.174 -4.885,-4.068 -9.234,0.054 l -0.82,6.884 0.515,-0.015 6.195,5.48 2.323,0.332 v -6.199 l 31.639,3.644 c 0.9,-0.581 3.371,-2.732 1.564,-8.03 z m -43.468,16.761 -0.436,15.265 24.825,0.162 0.136,0.101 c 0.688,-0.267 4.133,-2.572 8.825,-22.173 l -0.783,-0.695 -30.004,0.903 c -0.74,0.946 -2.402,3.393 -2.563,6.437 z m -11.111,14.648 0.275,0.548 7.634,0.05 0.419,-14.671 -1.789,-1.452 z m 47.595,21.902 c 1.399,0.151 9.499,0.982 16.595,0.982 4.369,0 6.906,-0.316 8.382,-0.659 L -55.315,42.52 c -0.363,0.279 -0.725,0.501 -1.086,0.634 -0.713,0.26 -1.349,0.223 -1.826,0.058 l -28.735,-0.19 z m 26.765,-14.539 -5.475,-8.543 -9.058,-8.817 -0.461,-1.618 -4.787,-4.37 -4.91,-0.703 -2.87,-2.539 c -2.413,9.775 -4.839,16.453 -7.248,19.964 l 35.233,19.552 0.93,-2.925 -2.527,-3.902 z M -8.084,31.296 -8.387,31.211 c -3.525,-1.009 -4.744,-7.805 -5.12,-10.905 l -23.492,-2.704 v 3.609 l 5.84,5.332 0.476,1.665 8.642,8.414 6.357,9.85 -1.172,6.09 2.633,4.066 -1.926,6.053 -0.189,0.216 c -0.987,1.128 -3.291,2.423 -12.44,2.423 -7.917,0 -17.024,-1.011 -17.115,-1.021 l -48.677,-21.642 -1.444,-2.886 8.462,-20.098 3.324,2.699 c 0.935,-3.56 3.141,-5.97 3.253,-6.093 l 0.394,-0.424 28.986,-0.871 0.98,-8.229 0.32,-0.334 c 2.171,-2.269 4.523,-3.06 6.687,-3.06 2.557,0 4.853,1.109 6.279,2.193 L -12.8,6.978 c 0.486,-3.538 2.73,-6.291 2.836,-6.407 l 0.249,-0.494 12.45,-3.962 0.259,33.288 z"
         style="fill:none;stroke:#cccccc;stroke-width:0.25;stroke-linecap:butt;stroke-linejoin:miter;stroke-miterlimit:10;stroke-dasharray:none;stroke-opacity:1"
         id="path182" />
    </g>
  </g>
</svg>
