<?xml version="1.0" encoding="UTF-8" standalone="no"?>
<svg
   xmlns:dc="http://purl.org/dc/elements/1.1/"
   xmlns:cc="http://creativecommons.org/ns#"
   xmlns:rdf="http://www.w3.org/1999/02/22-rdf-syntax-ns#"
   xmlns:svg="http://www.w3.org/2000/svg"
   xmlns="http://www.w3.org/2000/svg"
   xmlns:sodipodi="http://sodipodi.sourceforge.net/DTD/sodipodi-0.dtd"
   xmlns:inkscape="http://www.inkscape.org/namespaces/inkscape"
   width="114"
   height="102"
   viewBox="0 0 30.162497 26.987501"
   version="1.1"
   id="svg8"
   inkscape:version="1.0.1 (3bc2e813f5, 2020-09-07)"
   sodipodi:docname="icon_arreglar.svg">
  <defs
     id="defs2" />
  <sodipodi:namedview
     id="base"
     pagecolor="#ffffff"
     bordercolor="#666666"
     borderopacity="1.0"
     inkscape:pageopacity="0.0"
     inkscape:pageshadow="2"
     inkscape:zoom="1.4"
     inkscape:cx="46.331868"
     inkscape:cy="46.470654"
     inkscape:document-units="mm"
     inkscape:current-layer="layer1"
     inkscape:document-rotation="0"
     showgrid="false"
     fit-margin-top="0"
     fit-margin-left="0"
     fit-margin-right="0"
     fit-margin-bottom="0"
     units="px"
     inkscape:window-width="1366"
     inkscape:window-height="704"
     inkscape:window-x="1920"
     inkscape:window-y="0"
     inkscape:window-maximized="1" />
  <metadata
     id="metadata5">
    <rdf:RDF>
      <cc:Work
         rdf:about="">
        <dc:format>image/svg+xml</dc:format>
        <dc:type
           rdf:resource="http://purl.org/dc/dcmitype/StillImage" />
        <dc:title></dc:title>
      </cc:Work>
    </rdf:RDF>
  </metadata>
  <g
     inkscape:label="Capa 1"
     inkscape:groupmode="layer"
     id="layer1"
     transform="translate(-16.312313,-26.306516)">
    <g
       id="g298"
       transform="matrix(0.42184389,0,0,-0.37851456,19.192802,47.955706)">
      <path
         d="m 0,0 28.244,28.207 c 0.519,0.521 0.678,1.3 0.403,1.98 -1.803,4.619 -1.228,9.828 1.541,13.94 1.401,2.245 3.311,4.13 5.576,5.502 2.473,1.632 5.362,2.522 8.326,2.567 0.911,0.004 1.82,-0.082 2.715,-0.257 l -7.63,-7.629 c -0.357,-0.331 -0.557,-0.797 -0.55,-1.284 V 32.022 c 0,-1.013 0.82,-1.835 1.834,-1.835 h 11.004 c 0.486,-0.005 0.952,0.195 1.283,0.551 l 7.63,7.63 C 61.069,34.539 60.24,30.59 58.065,27.363 56.673,25.091 54.763,23.181 52.489,21.788 48.377,19.02 43.169,18.443 38.551,20.248 37.891,20.49 37.149,20.333 36.644,19.844 L 8.437,-8.399 C 6.263,-10.886 2.486,-11.139 0,-8.966 c -2.486,2.174 -2.739,5.951 -0.565,8.437 0.175,0.201 0.364,0.39 0.565,0.566 z M 5.979,41.559 C 5.266,42.278 4.104,42.283 3.386,41.569 3.382,41.566 3.378,41.563 3.375,41.559 l -0.624,-0.623 -2.384,7.116 2.054,2.053 7.116,-2.384 -0.66,-0.66 c -0.699,-0.713 -0.699,-1.855 0,-2.568 L 23.952,29.271 21.201,26.52 Z M 58.872,-8.437 c -2.351,-2.24 -6.048,-2.24 -8.399,0 l -18.341,18.34 6.493,6.493 c 1.582,-0.491 3.223,-0.774 4.878,-0.843 L 59.092,0 c 2.262,-2.393 2.164,-6.165 -0.22,-8.437 m -61.439,-2.567 c 3.729,-3.748 9.791,-3.763 13.539,-0.033 0.01,0.011 0.021,0.022 0.032,0.033 l 18.341,18.34 18.34,-18.34 c 1.787,-1.821 4.235,-2.84 6.786,-2.824 5.307,0.011 9.601,4.321 9.591,9.629 -0.005,2.538 -1.014,4.97 -2.806,6.766 L 47.868,15.956 c 2.248,0.537 4.393,1.441 6.346,2.678 2.75,1.686 5.062,3.999 6.749,6.749 3.367,5.068 4.064,11.455 1.871,17.13 -0.222,0.584 -0.715,1.022 -1.321,1.174 -0.623,0.108 -1.262,-0.083 -1.724,-0.514 l -9.097,-9.317 h -8.399 v 8.4 l 9.316,9.316 c 0.432,0.463 0.622,1.101 0.514,1.725 -0.151,0.605 -0.59,1.099 -1.174,1.32 -5.675,2.194 -12.061,1.496 -17.13,-1.871 -2.75,-1.686 -5.062,-3.999 -6.749,-6.749 -2.217,-3.392 -3.308,-7.396 -3.118,-11.444 l -11.004,11.224 1.431,1.467 c 0.447,0.453 0.628,1.106 0.476,1.725 -0.13,0.608 -0.579,1.098 -1.173,1.283 L 2.678,53.92 C 2.011,54.153 1.269,53.982 0.771,53.48 L -2.897,49.812 C -3.386,49.321 -3.556,48.598 -3.338,47.941 L 0.33,36.938 c 0.212,-0.599 0.707,-1.052 1.32,-1.211 0.625,-0.15 1.284,0.046 1.725,0.513 L 4.695,37.524 18.597,23.622 -2.567,2.567 c -3.748,-3.7 -3.787,-9.739 -0.085,-13.486 z"
         style="fill:#0898fd;fill-opacity:1;fill-rule:nonzero;stroke:none"
         id="path300" />
    </g>
  </g>
</svg>
