<?xml version="1.0" encoding="UTF-8" standalone="no"?>
<svg
   xmlns:dc="http://purl.org/dc/elements/1.1/"
   xmlns:cc="http://creativecommons.org/ns#"
   xmlns:rdf="http://www.w3.org/1999/02/22-rdf-syntax-ns#"
   xmlns:svg="http://www.w3.org/2000/svg"
   xmlns="http://www.w3.org/2000/svg"
   xmlns:sodipodi="http://sodipodi.sourceforge.net/DTD/sodipodi-0.dtd"
   xmlns:inkscape="http://www.inkscape.org/namespaces/inkscape"
   width="114"
   height="102"
   viewBox="0 0 30.162497 26.987501"
   version="1.1"
   id="svg8"
   inkscape:version="1.0.1 (3bc2e813f5, 2020-09-07)"
   sodipodi:docname="icon_router.svg">
  <defs
     id="defs2" />
  <sodipodi:namedview
     id="base"
     pagecolor="#ffffff"
     bordercolor="#666666"
     borderopacity="1.0"
     inkscape:pageopacity="0.0"
     inkscape:pageshadow="2"
     inkscape:zoom="1.4"
     inkscape:cx="130.75871"
     inkscape:cy="131.45382"
     inkscape:document-units="mm"
     inkscape:current-layer="layer1"
     inkscape:document-rotation="0"
     showgrid="false"
     fit-margin-top="0"
     fit-margin-left="0"
     fit-margin-right="0"
     fit-margin-bottom="0"
     units="px"
     inkscape:window-width="1366"
     inkscape:window-height="704"
     inkscape:window-x="1920"
     inkscape:window-y="0"
     inkscape:window-maximized="1" />
  <metadata
     id="metadata5">
    <rdf:RDF>
      <cc:Work
         rdf:about="">
        <dc:format>image/svg+xml</dc:format>
        <dc:type
           rdf:resource="http://purl.org/dc/dcmitype/StillImage" />
        <dc:title></dc:title>
      </cc:Work>
    </rdf:RDF>
  </metadata>
  <g
     inkscape:label="Capa 1"
     inkscape:groupmode="layer"
     id="layer1"
     transform="translate(6.0256217,-3.8213868)">
    <g
       id="g302"
       transform="matrix(0.38756863,0,0,-0.36728671,21.932673,22.747555)">
      <path
         d="m 0,0 v -11.985 c -0.004,-2.542 -2.065,-4.6 -4.607,-4.6 h -57.249 c -2.542,0 -4.604,2.058 -4.608,4.6 V 0 c 0.023,2.529 2.078,4.567 4.608,4.567 H -4.6 c 2.53,0 4.586,-2.038 4.609,-4.567 z m -16.782,-20.685 h 8.289 m -49.461,0 h 8.28 m 13.216,53.692 c 0.656,1.78 2.631,2.691 4.411,2.035 1.78,-0.656 2.692,-2.631 2.035,-4.411 -0.656,-1.78 -2.632,-2.692 -4.412,-2.035 l -10e-4,0.001 c -1.772,0.65 -2.681,2.615 -2.03,4.387 0.002,0.005 0.003,0.01 0.005,0.015 z m -9.108,-53.692 h 24.685 m 16.479,0.009 c 4.721,0.112 8.494,3.967 8.502,8.691 L 4.1,0 C 4.072,4.788 0.188,8.657 -4.6,8.666 h -26.579 v 15.913 c 3.992,1.145 6.299,5.308 5.156,9.299 -1.145,3.991 -5.309,6.299 -9.3,5.154 -3.991,-1.144 -6.299,-5.307 -5.155,-9.299 0.664,-2.311 2.392,-4.166 4.651,-4.99 0.181,-0.065 0.369,-0.123 0.55,-0.172 V 8.666 H -61.856 C -66.647,8.662 -70.536,4.791 -70.563,0 v -11.985 c 0.007,-4.724 3.779,-8.579 8.501,-8.691"
         style="fill:#0898fd;fill-opacity:1;fill-rule:nonzero;stroke:none"
         id="path304" />
    </g>
    <g
       id="g306"
       transform="matrix(0.38756863,0,0,-0.36728671,12.86755,14.831169)">
      <path
         d="M 0,0 C 0.799,-0.801 2.097,-0.803 2.898,-0.003 2.899,-0.002 2.9,-0.001 2.902,0 c 5.65,5.664 5.65,14.832 0,20.496 C 2.034,21.224 0.741,21.109 0.015,20.242 -0.618,19.487 -0.624,18.389 0,17.627 4.075,13.569 4.089,6.978 0.032,2.902 L 0,2.87 C -0.781,2.073 -0.781,0.797 0,0"
         style="fill:#0898fd;fill-opacity:1;fill-rule:nonzero;stroke:none"
         id="path308" />
    </g>
    <g
       id="g310"
       transform="matrix(0.38756863,0,0,-0.36728671,15.527151,16.119905)">
      <path
         d="m 0,0 c -0.815,-0.785 -0.84,-2.083 -0.055,-2.897 0.785,-0.816 2.083,-0.84 2.898,-0.055 0.017,0.016 0.034,0.033 0.051,0.05 9.206,9.208 9.206,24.135 0,33.342 -0.809,0.8 -2.112,0.792 -2.911,-0.015 C -0.816,29.616 -0.809,28.313 0,27.514 7.605,19.907 7.605,7.574 0,-0.032 Z"
         style="fill:#0898fd;fill-opacity:1;fill-rule:nonzero;stroke:none"
         id="path312" />
    </g>
    <g
       id="g314"
       transform="matrix(0.38756863,0,0,-0.36728671,15.250515,25.586864)">
      <path
         d="m 0,0 h 8.198 c 1.132,0 2.05,0.917 2.05,2.05 0,1.132 -0.918,2.049 -2.05,2.049 H 0 C -1.132,4.099 -2.05,3.182 -2.05,2.05 -2.05,0.917 -1.132,0 0,0"
         style="fill:#0898fd;fill-opacity:1;fill-rule:nonzero;stroke:none"
         id="path316" />
    </g>
    <g
       id="g318"
       transform="matrix(0.38756863,0,0,-0.36728671,5.3178962,7.294261)">
      <path
         d="M 0,0 C -0.8,0.802 -2.098,0.804 -2.898,0.004 -2.9,0.003 -2.901,0.002 -2.902,0 c -5.65,-5.664 -5.65,-14.832 0,-20.496 0.801,-0.801 2.1,-0.801 2.902,0 0.802,0.802 0.802,2.101 0,2.902 -4.075,4.058 -4.09,10.651 -0.032,14.725 0.011,0.012 0.021,0.022 0.032,0.033 0.76,0.793 0.76,2.044 0,2.836"
         style="fill:#0898fd;fill-opacity:1;fill-rule:nonzero;stroke:none"
         id="path320" />
    </g>
    <g
       id="g322"
       transform="matrix(0.38756863,0,0,-0.36728671,1.5429101,4.9395498)">
      <path
         d="m 0,0 c -9.206,-9.207 -9.206,-24.135 0,-33.343 0.802,-0.801 2.102,-0.801 2.902,0 0.802,0.802 0.802,2.102 0,2.903 -7.606,7.607 -7.606,19.939 0,27.546 0.802,0.802 0.802,2.101 0,2.903 -0.8,0.801 -2.1,0.801 -2.902,0 z"
         style="fill:#0898fd;fill-opacity:1;fill-rule:nonzero;stroke:none"
         id="path324" />
    </g>
    <g
       id="g326"
       transform="matrix(0.38756863,0,0,-0.36728671,7.3068792,24.081466)">
      <path
         d="m 0,0 c 1.132,0 2.05,-0.917 2.05,-2.049 0,-1.133 -0.918,-2.05 -2.05,-2.05 -1.132,0 -2.05,0.917 -2.05,2.05 C -2.05,-0.917 -1.132,0 0,0"
         style="fill:#0898fd;fill-opacity:1;fill-rule:nonzero;stroke:none"
         id="path328" />
    </g>
    <g
       id="g330"
       transform="matrix(0.38756863,0,0,-0.36728671,11.11974,24.081466)">
      <path
         d="m 0,0 c 1.133,0 2.05,-0.917 2.05,-2.049 0,-1.133 -0.917,-2.05 -2.05,-2.05 -1.132,0 -2.049,0.917 -2.049,2.05 C -2.049,-0.917 -1.132,0 0,0"
         style="fill:#0898fd;fill-opacity:1;fill-rule:nonzero;stroke:none"
         id="path332" />
    </g>
    <g
       id="g334"
       transform="matrix(0.38756863,0,0,-0.36728671,3.494017,24.081466)">
      <path
         d="m 0,0 c 1.132,0 2.05,-0.917 2.05,-2.049 0,-1.133 -0.918,-2.05 -2.05,-2.05 -1.132,0 -2.05,0.917 -2.05,2.05 C -2.05,-0.917 -1.132,0 0,0"
         style="fill:#0898fd;fill-opacity:1;fill-rule:nonzero;stroke:none"
         id="path336" />
    </g>
    <g
       id="g338"
       transform="matrix(0.38756863,0,0,-0.36728671,-0.31884394,24.081466)">
      <path
         d="m 0,0 c 1.132,0 2.05,-0.917 2.05,-2.049 0,-1.133 -0.918,-2.05 -2.05,-2.05 -1.132,0 -2.05,0.917 -2.05,2.05 C -2.05,-0.917 -1.132,0 0,0"
         style="fill:#0898fd;fill-opacity:1;fill-rule:nonzero;stroke:none"
         id="path340" />
    </g>
  </g>
</svg>
