<?xml version="1.0" encoding="UTF-8" standalone="no"?>
<svg
   xmlns:dc="http://purl.org/dc/elements/1.1/"
   xmlns:cc="http://creativecommons.org/ns#"
   xmlns:rdf="http://www.w3.org/1999/02/22-rdf-syntax-ns#"
   xmlns:svg="http://www.w3.org/2000/svg"
   xmlns="http://www.w3.org/2000/svg"
   xmlns:sodipodi="http://sodipodi.sourceforge.net/DTD/sodipodi-0.dtd"
   xmlns:inkscape="http://www.inkscape.org/namespaces/inkscape"
   width="17.404997mm"
   height="24.327202mm"
   viewBox="0 0 17.404997 24.327202"
   version="1.1"
   id="svg24914"
   inkscape:version="1.0.1 (3bc2e813f5, 2020-09-07)"
   sodipodi:docname="location.svg">
  <defs
     id="defs24908" />
  <sodipodi:namedview
     id="base"
     pagecolor="#ffffff"
     bordercolor="#666666"
     borderopacity="1.0"
     inkscape:pageopacity="0.0"
     inkscape:pageshadow="2"
     inkscape:zoom="0.35"
     inkscape:cx="647.01607"
     inkscape:cy="631.41756"
     inkscape:document-units="mm"
     inkscape:current-layer="layer1"
     inkscape:document-rotation="0"
     showgrid="false"
     fit-margin-top="0"
     fit-margin-left="0"
     fit-margin-right="0"
     fit-margin-bottom="0"
     inkscape:window-width="1366"
     inkscape:window-height="704"
     inkscape:window-x="1920"
     inkscape:window-y="0"
     inkscape:window-maximized="1" />
  <metadata
     id="metadata24911">
    <rdf:RDF>
      <cc:Work
         rdf:about="">
        <dc:format>image/svg+xml</dc:format>
        <dc:type
           rdf:resource="http://purl.org/dc/dcmitype/StillImage" />
        <dc:title></dc:title>
      </cc:Work>
    </rdf:RDF>
  </metadata>
  <g
     inkscape:label="Capa 1"
     inkscape:groupmode="layer"
     id="layer1"
     transform="translate(65.356335,18.895895)">
    <g
       id="g168"
       transform="matrix(0.35277777,0,0,-0.35277777,-56.654013,-6.2361124)">
      <path
         d="m 0,0 c -6.314,0 -11.433,5.119 -11.433,11.434 0,6.313 5.119,11.433 11.433,11.433 6.314,0 11.434,-5.12 11.434,-11.433 C 11.434,5.119 6.314,0 0,0 m 0,35.886 c -13.625,0 -24.668,-11.045 -24.668,-24.668 0,-16.18 23.136,-43.001 23.136,-43.001 1.267,-1.72 1.798,-1.72 3.065,0 C 1.532,-31.784 24.669,-4.961 24.669,11.218 24.668,24.84 13.624,35.886 0,35.886"
         style="fill:#000000;fill-opacity:1;fill-rule:nonzero;stroke:none"
         id="path170" />
    </g>
  </g>
</svg>
