<?xml version="1.0" encoding="UTF-8" standalone="no"?>
<svg
   xmlns:dc="http://purl.org/dc/elements/1.1/"
   xmlns:cc="http://creativecommons.org/ns#"
   xmlns:rdf="http://www.w3.org/1999/02/22-rdf-syntax-ns#"
   xmlns:svg="http://www.w3.org/2000/svg"
   xmlns="http://www.w3.org/2000/svg"
   xmlns:sodipodi="http://sodipodi.sourceforge.net/DTD/sodipodi-0.dtd"
   xmlns:inkscape="http://www.inkscape.org/namespaces/inkscape"
   width="33.52578mm"
   height="31.736601mm"
   viewBox="0 0 33.52578 31.736601"
   version="1.1"
   id="svg226509"
   inkscape:version="1.0.1 (3bc2e813f5, 2020-09-07)"
   sodipodi:docname="mail.svg">
  <defs
     id="defs226503" />
  <sodipodi:namedview
     id="base"
     pagecolor="#ffffff"
     bordercolor="#666666"
     borderopacity="1.0"
     inkscape:pageopacity="0.0"
     inkscape:pageshadow="2"
     inkscape:zoom="1.4"
     inkscape:cx="192.43134"
     inkscape:cy="162.88726"
     inkscape:document-units="mm"
     inkscape:current-layer="layer1"
     inkscape:document-rotation="0"
     showgrid="false"
     fit-margin-top="0"
     fit-margin-left="0"
     fit-margin-right="0"
     fit-margin-bottom="0"
     inkscape:window-width="1366"
     inkscape:window-height="704"
     inkscape:window-x="1920"
     inkscape:window-y="0"
     inkscape:window-maximized="1" />
  <metadata
     id="metadata226506">
    <rdf:RDF>
      <cc:Work
         rdf:about="">
        <dc:format>image/svg+xml</dc:format>
        <dc:type
           rdf:resource="http://purl.org/dc/dcmitype/StillImage" />
        <dc:title></dc:title>
      </cc:Work>
    </rdf:RDF>
  </metadata>
  <g
     inkscape:label="Capa 1"
     inkscape:groupmode="layer"
     id="layer1"
     transform="translate(-12.895689,9.6561963)">
    <g
       id="g60179"
       transform="matrix(0.35277777,0,0,-0.35277777,16.328964,3.6597738)">
      <path
         d="M 0,0 C 8.087,-5.831 19.76,-14.128 31.187,-22.281 30.79,-22.571 30.37,-22.85 29.906,-23.156 23.21,-28.162 16.507,-33.198 9.813,-38.219 8.956,-38.835 8.745,-40.181 9.371,-41.03 c 0.627,-0.849 1.975,-1.044 2.817,-0.408 6.682,4.965 13.323,10.071 20,15.001 1.797,1.197 2.96,2.167 3.937,2.718 0.999,0.564 1.882,0.863 3.875,0.875 1.992,-0.012 2.875,-0.311 3.875,-0.875 0.977,-0.551 2.139,-1.521 3.938,-2.718 6.672,-4.991 13.333,-9.999 20,-15.001 0.84,-0.636 2.189,-0.441 2.815,0.408 0.627,0.849 0.415,2.195 -0.44,2.811 -6.719,4.99 -13.369,10.098 -20.094,15.063 -0.465,0.306 -0.885,0.585 -1.281,0.875 C 60.24,-14.128 71.912,-5.83 79.999,0 c 0.001,-14.061 0,-30.567 0,-46.844 0,-0.336 -0.021,-0.347 -0.344,-0.562 -0.321,-0.215 -0.984,-0.438 -1.655,-0.438 -23.674,0 -49.497,10e-4 -76,0 -0.671,0 -1.335,0.223 -1.656,0.438 C 0.022,-47.191 0,-47.18 0,-46.844 Z M 20.812,2.156 C 19.765,2.107 18.856,1.11 18.905,0.062 18.955,-0.985 19.952,-1.893 21,-1.844 h 28 c 1.057,-0.015 2.028,0.944 2.028,2 0,1.057 -0.971,2.015 -2.028,2 z M 74,9.969 C 74.904,9.312 75.859,8.605 76.75,7.844 77.994,6.779 79.017,5.614 79.594,4.625 78.104,3.548 75.791,1.91 74,0.625 Z M 6.031,10 V 0.594 C 4.227,1.888 1.905,3.541 0.406,4.625 0.983,5.614 2.005,6.779 3.25,7.844 4.153,8.616 5.115,9.335 6.031,10 m 14.781,2.156 C 19.765,12.107 18.856,11.11 18.905,10.063 18.955,9.015 19.952,8.107 21,8.156 h 38 c 1.057,-0.015 2.028,0.944 2.028,2 0,1.057 -0.971,2.015 -2.028,2 z m 0,10 C 19.765,22.107 18.856,21.11 18.905,20.062 18.955,19.015 19.952,18.107 21,18.156 h 38 c 1.057,-0.015 2.028,0.944 2.028,2 0,1.057 -0.971,2.015 -2.028,2 z m -10.781,10 H 70 V -2.25 c -7.564,-5.404 -16.062,-11.465 -24.781,-17.687 -1.391,0.657 -3.063,1.08 -5.219,1.093 -2.157,-0.013 -3.828,-0.436 -5.219,-1.093 -8.705,6.212 -17.193,12.257 -24.75,17.656 z m -2.187,4 C 6.86,36.063 6.027,35.144 6.031,34.156 V 14.906 C 5.944,14.86 5.86,14.808 5.781,14.75 4.656,13.892 2.594,12.531 0.656,10.875 -1.281,9.219 -3.223,7.28 -3.938,4.687 -3.981,4.514 -4.003,4.335 -4,4.156 v -51 c 0,-1.664 0.948,-3.121 2.125,-3.906 1.177,-0.786 2.539,-1.094 3.875,-1.094 h 76 c 1.335,0 2.698,0.308 3.874,1.094 1.177,0.785 2.125,2.242 2.125,3.906 0,17.721 0.001,36.279 0,51 0.004,0.179 -0.018,0.358 -0.062,0.531 -0.714,2.593 -2.657,4.532 -4.593,6.188 -1.938,1.656 -4,3.017 -5.125,3.875 -0.07,0.057 -0.143,0.109 -0.219,0.156 v 19.25 c -0.001,1.047 -0.953,2 -2,2 z"
         style="fill:#6f7b85;fill-opacity:1;fill-rule:nonzero;stroke:none"
         id="path60181" />
    </g>
    <g
       id="g60183"
       transform="matrix(0.35277777,0,0,-0.35277777,16.328964,3.6597738)">
      <path
         d="M 0,0 C 8.087,-5.831 19.76,-14.128 31.187,-22.281 30.79,-22.571 30.37,-22.85 29.906,-23.156 23.21,-28.162 16.507,-33.198 9.813,-38.219 8.956,-38.835 8.745,-40.181 9.371,-41.03 c 0.627,-0.849 1.975,-1.044 2.817,-0.408 6.682,4.965 13.323,10.071 20,15.001 1.797,1.197 2.96,2.167 3.937,2.718 0.999,0.564 1.882,0.863 3.875,0.875 1.992,-0.012 2.875,-0.311 3.875,-0.875 0.977,-0.551 2.139,-1.521 3.938,-2.718 6.672,-4.991 13.333,-9.999 20,-15.001 0.84,-0.636 2.189,-0.441 2.815,0.408 0.627,0.849 0.415,2.195 -0.44,2.811 -6.719,4.99 -13.369,10.098 -20.094,15.063 -0.465,0.306 -0.885,0.585 -1.281,0.875 C 60.24,-14.128 71.912,-5.83 79.999,0 c 0.001,-14.061 0,-30.567 0,-46.844 0,-0.336 -0.021,-0.347 -0.344,-0.562 -0.321,-0.215 -0.984,-0.438 -1.655,-0.438 -23.674,0 -49.497,10e-4 -76,0 -0.671,0 -1.335,0.223 -1.656,0.438 C 0.022,-47.191 0,-47.18 0,-46.844 Z M 20.812,2.156 C 19.765,2.107 18.856,1.11 18.905,0.062 18.955,-0.985 19.952,-1.893 21,-1.844 h 28 c 1.057,-0.015 2.028,0.944 2.028,2 0,1.057 -0.971,2.015 -2.028,2 z M 74,9.969 C 74.904,9.312 75.859,8.605 76.75,7.844 77.994,6.779 79.017,5.614 79.594,4.625 78.104,3.548 75.791,1.91 74,0.625 Z M 6.031,10 V 0.594 C 4.227,1.888 1.905,3.541 0.406,4.625 0.983,5.614 2.005,6.779 3.25,7.844 4.153,8.616 5.115,9.335 6.031,10 Z m 14.781,2.156 C 19.765,12.107 18.856,11.11 18.905,10.063 18.955,9.015 19.952,8.107 21,8.156 h 38 c 1.057,-0.015 2.028,0.944 2.028,2 0,1.057 -0.971,2.015 -2.028,2 z m 0,10 C 19.765,22.107 18.856,21.11 18.905,20.062 18.955,19.015 19.952,18.107 21,18.156 h 38 c 1.057,-0.015 2.028,0.944 2.028,2 0,1.057 -0.971,2.015 -2.028,2 z m -10.781,10 H 70 V -2.25 c -7.564,-5.404 -16.062,-11.465 -24.781,-17.687 -1.391,0.657 -3.063,1.08 -5.219,1.093 -2.157,-0.013 -3.828,-0.436 -5.219,-1.093 -8.705,6.212 -17.193,12.257 -24.75,17.656 z m -2.187,4 C 6.86,36.063 6.027,35.144 6.031,34.156 V 14.906 C 5.944,14.86 5.86,14.808 5.781,14.75 4.656,13.892 2.594,12.531 0.656,10.875 -1.281,9.219 -3.223,7.28 -3.938,4.687 -3.981,4.514 -4.003,4.335 -4,4.156 v -51 c 0,-1.664 0.948,-3.121 2.125,-3.906 1.177,-0.786 2.539,-1.094 3.875,-1.094 h 76 c 1.335,0 2.698,0.308 3.874,1.094 1.177,0.785 2.125,2.242 2.125,3.906 0,17.721 0.001,36.279 0,51 0.004,0.179 -0.018,0.358 -0.062,0.531 -0.714,2.593 -2.657,4.532 -4.593,6.188 -1.938,1.656 -4,3.017 -5.125,3.875 -0.07,0.057 -0.143,0.109 -0.219,0.156 v 19.25 c -0.001,1.047 -0.953,2 -2,2 z"
         style="fill:none;stroke:#6f7b85;stroke-width:1;stroke-linecap:butt;stroke-linejoin:miter;stroke-miterlimit:10;stroke-dasharray:none;stroke-opacity:1"
         id="path60185" />
    </g>
  </g>
</svg>
