<?xml version="1.0" encoding="UTF-8" standalone="no"?>
<svg
   xmlns:dc="http://purl.org/dc/elements/1.1/"
   xmlns:cc="http://creativecommons.org/ns#"
   xmlns:rdf="http://www.w3.org/1999/02/22-rdf-syntax-ns#"
   xmlns:svg="http://www.w3.org/2000/svg"
   xmlns="http://www.w3.org/2000/svg"
   xmlns:sodipodi="http://sodipodi.sourceforge.net/DTD/sodipodi-0.dtd"
   xmlns:inkscape="http://www.inkscape.org/namespaces/inkscape"
   width="33.52578mm"
   height="28.736597mm"
   viewBox="0 0 33.52578 28.736597"
   version="1.1"
   id="svg226509"
   inkscape:version="1.0.1 (3bc2e813f5, 2020-09-07)"
   sodipodi:docname="map.svg">
  <defs
     id="defs226503" />
  <sodipodi:namedview
     id="base"
     pagecolor="#ffffff"
     bordercolor="#666666"
     borderopacity="1.0"
     inkscape:pageopacity="0.0"
     inkscape:pageshadow="2"
     inkscape:zoom="0.35"
     inkscape:cx="194.78438"
     inkscape:cy="262.87681"
     inkscape:document-units="mm"
     inkscape:current-layer="layer1"
     inkscape:document-rotation="0"
     showgrid="false"
     fit-margin-top="0"
     fit-margin-left="0"
     fit-margin-right="0"
     fit-margin-bottom="0"
     inkscape:window-width="1366"
     inkscape:window-height="704"
     inkscape:window-x="1920"
     inkscape:window-y="0"
     inkscape:window-maximized="1" />
  <metadata
     id="metadata226506">
    <rdf:RDF>
      <cc:Work
         rdf:about="">
        <dc:format>image/svg+xml</dc:format>
        <dc:type
           rdf:resource="http://purl.org/dc/dcmitype/StillImage" />
        <dc:title></dc:title>
      </cc:Work>
    </rdf:RDF>
  </metadata>
  <g
     inkscape:label="Capa 1"
     inkscape:groupmode="layer"
     id="layer1"
     transform="translate(-54.296634,-78.613843)">
    <g
       id="g60171"
       transform="matrix(0.35277777,0,0,-0.35277777,70.14297,105.14558)">
      <path
         d="M 0,0 -16,5.8 -13.801,40.2 0,34.5 Z M -21,5.9 -39.301,0 -34.9,34.3 -18.801,40.1 Z M 50.1,-3.3 45,36.5 c -0.101,0.9 -0.801,1.8 -1.7,2.1 l -8.601,3.1 C 33.899,40.2 33.1,38.6 32.3,37.1 L 40,34.3 44.399,0 26.1,5.9 24.8,26.1 c -0.901,-0.4 -1.901,-0.6 -3,-0.6 -0.7,0 -1.5,0.1 -2.101,0.3 L 21,5.8 5,0 V 34.5 L 11.399,37.1 9,41.7 2.6,39 -15,46.3 c -0.601,0.2 -1.301,0.3 -1.9,0.1 l -21.201,-7.8 c -0.899,-0.3 -1.5,-1.1 -1.7,-2.1 L -44.9,-3.3 c -0.1,-0.9 0.2,-1.7 0.9,-2.3 0.699,-0.6 1.6,-0.7 2.399,-0.5 L -18.7,1.3 1.699,-6.1 c 0.601,-0.2 1.2,-0.2 1.7,0 L 23.8,1.3 46.699,-6.1 c 0.301,-0.1 0.5,-0.1 0.801,-0.1 0.6,0 1.199,0.2 1.6,0.6 0.7,0.6 1.099,1.4 1,2.3"
         style="fill:#6f7b85;fill-opacity:1;fill-rule:nonzero;stroke:none"
         id="path60173" />
    </g>
    <g
       id="g60175"
       transform="matrix(0.35277777,0,0,-0.35277777,77.904073,81.438847)">
      <path
         d="m 0,0 c 3.899,0 7,-3.1 7,-7 0,-3.9 -3.101,-7 -7,-7 -3.9,0 -7,3.1 -7,7 0,3.8 3.1,7 7,7 m -2,-35.4 c 0.8,-1.6 3.1,-1.6 3.899,0 0,0 9.101,17.8 11.201,22 2.099,4.2 2.2,8.9 0,13.3 C 9.5,7.2 0.6,10.1 -6.7,6.4 -14,2.7 -16.801,-6.4 -13.2,-13.4 c 3.599,-7 11.2,-22 11.2,-22"
         style="fill:#6f7b85;fill-opacity:1;fill-rule:nonzero;stroke:none"
         id="path60177" />
    </g>
  </g>
</svg>
