<?xml version="1.0" encoding="UTF-8" standalone="no"?>
<svg
   xmlns:dc="http://purl.org/dc/elements/1.1/"
   xmlns:cc="http://creativecommons.org/ns#"
   xmlns:rdf="http://www.w3.org/1999/02/22-rdf-syntax-ns#"
   xmlns:svg="http://www.w3.org/2000/svg"
   xmlns="http://www.w3.org/2000/svg"
   xmlns:sodipodi="http://sodipodi.sourceforge.net/DTD/sodipodi-0.dtd"
   xmlns:inkscape="http://www.inkscape.org/namespaces/inkscape"
   version="1.1"
   id="Capa_1"
   x="0px"
   y="0px"
   viewBox="0 0 511.99999 200.00001"
   xml:space="preserve"
   sodipodi:docname="menu.svg"
   width="27.379679"
   height="10.695188"
   inkscape:version="1.0.1 (1.0.1+r73)"><metadata
   id="metadata55"><rdf:RDF><cc:Work
       rdf:about=""><dc:format>image/svg+xml</dc:format><dc:type
         rdf:resource="http://purl.org/dc/dcmitype/StillImage" /><dc:title></dc:title></cc:Work></rdf:RDF></metadata><defs
   id="defs53" /><sodipodi:namedview
   pagecolor="#ffffff"
   bordercolor="#666666"
   borderopacity="1"
   objecttolerance="10"
   gridtolerance="10"
   guidetolerance="10"
   inkscape:pageopacity="0"
   inkscape:pageshadow="2"
   inkscape:window-width="1920"
   inkscape:window-height="997"
   id="namedview51"
   showgrid="false"
   scale-x="18.7"
   fit-margin-top="0"
   fit-margin-left="0"
   fit-margin-right="0"
   fit-margin-bottom="0"
   inkscape:zoom="9.1039998"
   inkscape:cx="41.310069"
   inkscape:cy="19.510065"
   inkscape:window-x="0"
   inkscape:window-y="115"
   inkscape:window-maximized="1"
   inkscape:current-layer="Capa_1" />
<g
   id="g6"
   transform="translate(0,-236)">
	<g
   id="g4">
		<path
   d="M 492,236 H 20 c -11.046,0 -20,8.954 -20,20 0,11.046 8.954,20 20,20 h 472 c 11.046,0 20,-8.954 20,-20 0,-11.046 -8.954,-20 -20,-20 z"
   id="path2" />
	</g>
</g>

<g
   id="g18"
   transform="translate(0,-236)">
	<g
   id="g16">
		<path
   d="M 492,396 H 20 c -11.046,0 -20,8.954 -20,20 0,11.046 8.954,20 20,20 h 472 c 11.046,0 20,-8.954 20,-20 0,-11.046 -8.954,-20 -20,-20 z"
   id="path14" />
	</g>
</g>
<g
   id="g20"
   transform="translate(-20.165945,-158.30395)">
</g>
<g
   id="g22"
   transform="translate(-20.165945,-158.30395)">
</g>
<g
   id="g24"
   transform="translate(-20.165945,-158.30395)">
</g>
<g
   id="g26"
   transform="translate(-20.165945,-158.30395)">
</g>
<g
   id="g28"
   transform="translate(-20.165945,-158.30395)">
</g>
<g
   id="g30"
   transform="translate(-20.165945,-158.30395)">
</g>
<g
   id="g32"
   transform="translate(-20.165945,-158.30395)">
</g>
<g
   id="g34"
   transform="translate(-20.165945,-158.30395)">
</g>
<g
   id="g36"
   transform="translate(-20.165945,-158.30395)">
</g>
<g
   id="g38"
   transform="translate(-20.165945,-158.30395)">
</g>
<g
   id="g40"
   transform="translate(-20.165945,-158.30395)">
</g>
<g
   id="g42"
   transform="translate(-20.165945,-158.30395)">
</g>
<g
   id="g44"
   transform="translate(-20.165945,-158.30395)">
</g>
<g
   id="g46"
   transform="translate(-20.165945,-158.30395)">
</g>
<g
   id="g48"
   transform="translate(-20.165945,-158.30395)">
</g>
<path
   style="fill:#ffffff;stroke-width:0.621359"
   d="M 15.192582,39.039253 C 9.639929,37.537693 4.507724,33.131513 2.062936,27.766993 0.077558,23.410543 0.096073,16.603513 2.105546,12.100193 3.819759,8.258563 8.463784,3.693483 12.602883,1.781303 l 2.931094,-1.35412 H 256.00001 496.46603 l 2.93109,1.35412 c 4.1391,1.91218 8.78313,6.47726 10.49734,10.31889 2.01763,4.52159 2.01763,11.27803 0,15.79962 -1.71421,3.84163 -6.35824,8.40671 -10.49734,10.31889 l -2.93109,1.35412 -239.2233,0.11543 c -187.683377,0.0906 -239.832346,-0.0492 -242.050148,-0.649 z"
   id="path59" /><path
   style="fill:#ffffff;stroke-width:0.621359"
   d="M 12.776749,198.21085 C 8.699561,196.64542 4.295112,192.44625 2.148185,188.07767 0.070582,183.85015 -0.003034,176.43071 1.989526,172.08726 3.95511,167.80263 8.669092,163.36183 12.953242,161.75892 l 3.559395,-1.33174 H 256.00001 495.48737 l 3.5594,1.33174 c 4.26349,1.59518 8.59783,5.67213 10.80506,10.16341 1.23539,2.51379 1.52682,4.05561 1.52682,8.07767 0,4.02206 -0.29143,5.56388 -1.52682,8.07767 -2.20723,4.49128 -6.54157,8.56823 -10.80506,10.1634 l -3.5594,1.33175 -239.66601,-0.0324 -239.66602,-0.0324 z"
   id="path61" /></svg>
