<?xml version="1.0" encoding="UTF-8" standalone="no"?>
<svg
   xmlns:dc="http://purl.org/dc/elements/1.1/"
   xmlns:cc="http://creativecommons.org/ns#"
   xmlns:rdf="http://www.w3.org/1999/02/22-rdf-syntax-ns#"
   xmlns:svg="http://www.w3.org/2000/svg"
   xmlns="http://www.w3.org/2000/svg"
   xmlns:sodipodi="http://sodipodi.sourceforge.net/DTD/sodipodi-0.dtd"
   xmlns:inkscape="http://www.inkscape.org/namespaces/inkscape"
   width="25.4mm"
   height="18.344482mm"
   viewBox="0 0 25.4 18.344483"
   version="1.1"
   id="svg24914"
   inkscape:version="1.0.1 (1.0.1+r73)"
   sodipodi:docname="message.svg">
  <defs
     id="defs24908" />
  <sodipodi:namedview
     id="base"
     pagecolor="#ffffff"
     bordercolor="#666666"
     borderopacity="1.0"
     inkscape:pageopacity="0.0"
     inkscape:pageshadow="2"
     inkscape:zoom="1.4"
     inkscape:cx="118.12516"
     inkscape:cy="118.03227"
     inkscape:document-units="mm"
     inkscape:current-layer="layer1"
     inkscape:document-rotation="0"
     showgrid="false"
     fit-margin-top="0"
     fit-margin-left="0"
     fit-margin-right="0"
     fit-margin-bottom="0"
     inkscape:window-width="1920"
     inkscape:window-height="970"
     inkscape:window-x="1920"
     inkscape:window-y="27"
     inkscape:window-maximized="1" />
  <metadata
     id="metadata24911">
    <rdf:RDF>
      <cc:Work
         rdf:about="">
        <dc:format>image/svg+xml</dc:format>
        <dc:type
           rdf:resource="http://purl.org/dc/dcmitype/StillImage" />
        <dc:title></dc:title>
      </cc:Work>
    </rdf:RDF>
  </metadata>
  <g
     inkscape:label="Capa 1"
     inkscape:groupmode="layer"
     id="layer1"
     transform="translate(-18.553537,-92.098517)">
    <g
       id="g176"
       transform="matrix(0.35277777,0,0,-0.35277777,43.920023,94.511868)">
      <path
         d="M 0,0 -20.287,-19.159 -0.001,-38.32 c 0.057,0.38 0.096,0.766 0.096,1.161 v 36 C 0.095,-0.764 0.056,-0.379 0,0"
         style="fill:#000000;fill-opacity:1;fill-rule:nonzero;stroke:none"
         id="path178" />
    </g>
    <g
       id="g180"
       transform="matrix(0.35277777,0,0,-0.35277777,32.820609,103.05262)">
      <path
         d="m 0,0 29.75,28.097 c -1.47,1.799 -3.702,2.954 -6.192,2.954 h -56 c -2.491,0 -4.724,-1.155 -6.194,-2.953 L -8.885,-0.001 C -6.477,-2.275 -2.407,-2.275 0,0"
         style="fill:#000000;fill-opacity:1;fill-rule:nonzero;stroke:none"
         id="path182" />
    </g>
    <g
       id="g184"
       transform="matrix(0.35277777,0,0,-0.35277777,18.586698,94.511196)">
      <path
         d="m 0,0 c -0.055,-0.379 -0.094,-0.766 -0.094,-1.161 v -36 c 0,-0.395 0.039,-0.781 0.094,-1.161 l 20.286,19.163 z"
         style="fill:#000000;fill-opacity:1;fill-rule:nonzero;stroke:none"
         id="path186" />
    </g>
    <path
       d="m 33.789373,104.07889 c -0.699205,0.6611 -1.617486,0.9913 -2.535766,0.9913 -0.918633,0 -1.837267,-0.3302 -2.53612,-0.9913 l -1.946628,-1.83798 -7.579783,7.16033 c 0.518231,0.6343 1.305983,1.04176 2.184753,1.04176 h 19.755555 c 0.878417,0 1.665817,-0.40746 2.1844,-1.04176 l -7.580136,-7.16033 z"
       style="fill:#000000;fill-opacity:1;fill-rule:nonzero;stroke:none;stroke-width:0.352777"
       id="path190" />
  </g>
</svg>
